<?xml version="1.0" encoding="UTF-8" standalone="no"?>
<!-- Created with Inkscape (http://www.inkscape.org/) -->

<svg
   width="1037"
   height="507"
   viewBox="0 0 274.37291 134.14375"
   version="1.1"
   id="svg5"
   sodipodi:docname="Bluedeck Poster2.svg"
   inkscape:version="1.2-dev (9ee32be, 2021-06-19)"
   xmlns:inkscape="http://www.inkscape.org/namespaces/inkscape"
   xmlns:sodipodi="http://sodipodi.sourceforge.net/DTD/sodipodi-0.dtd"
   xmlns="http://www.w3.org/2000/svg"
   xmlns:svg="http://www.w3.org/2000/svg">
  <sodipodi:namedview
     id="namedview7"
     pagecolor="#ffffff"
     bordercolor="#666666"
     borderopacity="1.0"
     inkscape:pageshadow="2"
     inkscape:pageopacity="0.0"
     inkscape:pagecheckerboard="0"
     inkscape:document-units="px"
     showgrid="false"
     inkscape:zoom="1.1599112"
     inkscape:cx="661.25752"
     inkscape:cy="329.76662"
     inkscape:window-width="1316"
     inkscape:window-height="847"
     inkscape:window-x="0"
     inkscape:window-y="25"
     inkscape:window-maximized="0"
     inkscape:current-layer="layer1" />
  <defs
     id="defs2">
    <clipPath
       clipPathUnits="userSpaceOnUse"
       id="clipPath1554">
      <path
         d="M 0,500 H 500 V 0 H 0 Z"
         id="path1552" />
    </clipPath>
    <clipPath
       clipPathUnits="userSpaceOnUse"
       id="clipPath904">
      <path
         d="M 0,500 H 500 V 0 H 0 Z"
         id="path902" />
    </clipPath>
    <clipPath
       clipPathUnits="userSpaceOnUse"
       id="clipPath1146">
      <path
         d="m 291.571,383.747 h 176.39 v -176.39 h -176.39 z"
         id="path1144" />
    </clipPath>
    <clipPath
       clipPathUnits="userSpaceOnUse"
       id="clipPath1162">
      <path
         d="M 297.977,377.341 H 461.555 V 213.763 H 297.977 Z"
         id="path1160" />
    </clipPath>
    <clipPath
       clipPathUnits="userSpaceOnUse"
       id="clipPath1178">
      <path
         d="M 312.107,363.211 H 447.426 V 227.893 H 312.107 Z"
         id="path1176" />
    </clipPath>
    <clipPath
       clipPathUnits="userSpaceOnUse"
       id="clipPath904-2">
      <path
         d="M 0,500 H 500 V 0 H 0 Z"
         id="path902-2" />
    </clipPath>
    <clipPath
       clipPathUnits="userSpaceOnUse"
       id="clipPath1146-7">
      <path
         d="m 291.571,383.747 h 176.39 v -176.39 h -176.39 z"
         id="path1144-4" />
    </clipPath>
    <clipPath
       clipPathUnits="userSpaceOnUse"
       id="clipPath1162-7">
      <path
         d="M 297.977,377.341 H 461.555 V 213.763 H 297.977 Z"
         id="path1160-5" />
    </clipPath>
    <clipPath
       clipPathUnits="userSpaceOnUse"
       id="clipPath1178-7">
      <path
         d="M 312.107,363.211 H 447.426 V 227.893 H 312.107 Z"
         id="path1176-3" />
    </clipPath>
    <clipPath
       clipPathUnits="userSpaceOnUse"
       id="clipPath872">
      <path
         d="M 0,500 H 500 V 0 H 0 Z"
         id="path870" />
    </clipPath>
    <rect
       x="142.05391"
       y="200.72835"
       width="218.48509"
       height="94.959953"
       id="rect5683" />
  </defs>
  <g
     inkscape:label="Layer 1"
     inkscape:groupmode="layer"
     id="layer1">
    <g
       id="g1049">
      <path
         id="rect868"
         style="fill:#1a5072;fill-opacity:1;stroke-width:0.802578;stroke-linecap:round"
         d="M -0.45048792,15.020275 276.56628,-0.42011818 V 135.21254 l -277.34826504,0.36462 z"
         sodipodi:nodetypes="ccccc" />
      <path
         d="m 209.70358,69.608749 c 0,24.160145 -19.5854,43.745551 -43.74555,43.745551 -24.15987,0 -43.74582,-19.585406 -43.74582,-43.745551 0,-24.159871 19.58595,-43.745549 43.74582,-43.745549 24.16015,0 43.74555,19.585678 43.74555,43.745549"
         style="fill:#97c6d4;fill-opacity:1;fill-rule:nonzero;stroke:none;stroke-width:0.274002"
         id="path876" />
      <path
         d="m 212.43905,69.608749 c 0,25.670719 -20.81019,46.481191 -46.48119,46.481191 -25.67044,0 -46.48064,-20.810472 -46.48064,-46.481191 0,-25.670719 20.8102,-46.480913 46.48064,-46.480913 25.671,0 46.48119,20.810194 46.48119,46.480913 z"
         style="fill:none;stroke:#97c6d4;stroke-width:0.137001;stroke-linecap:butt;stroke-linejoin:miter;stroke-miterlimit:10;stroke-dasharray:none;stroke-opacity:1"
         id="path880" />
      <path
         style="fill:none;stroke:#ff9400;stroke-width:2.64583;stroke-linecap:butt;stroke-linejoin:miter;stroke-miterlimit:4;stroke-dasharray:none;stroke-opacity:1"
         d="M 7.8159598,27.055078 V 1.8612986 H 73.034883"
         id="path969"
         sodipodi:nodetypes="ccc" />
    </g>
  </g>
  <g
     inkscape:groupmode="layer"
     id="layer2"
     inkscape:label="Layer 2">
    <g
       id="g1580"
       transform="matrix(0.35767544,0,0,-0.35767544,129.94275,44.775173)">
      <path
         d="m 0,0 c 0,-0.75 -0.608,-1.358 -1.358,-1.358 -0.75,0 -1.358,0.608 -1.358,1.358 0,0.75 0.608,1.358 1.358,1.358 C -0.608,1.358 0,0.75 0,0 Z"
         style="fill:none;stroke:#ffffff;stroke-width:0.5;stroke-linecap:butt;stroke-linejoin:miter;stroke-miterlimit:10;stroke-dasharray:none;stroke-opacity:1"
         id="path1582" />
    </g>
    <g
       id="g1584"
       transform="matrix(0.35767544,0,0,-0.35767544,151.46544,44.775173)">
      <path
         d="m 0,0 c 0,-0.75 -0.607,-1.358 -1.357,-1.358 -0.75,0 -1.358,0.608 -1.358,1.358 0,0.75 0.608,1.358 1.358,1.358 C -0.607,1.358 0,0.75 0,0 Z"
         style="fill:none;stroke:#ffffff;stroke-width:0.5;stroke-linecap:butt;stroke-linejoin:miter;stroke-miterlimit:10;stroke-dasharray:none;stroke-opacity:1"
         id="path1586" />
    </g>
    <g
       id="g43108">
      <g
         id="g1708"
         transform="matrix(0.35767544,0,0,-0.35767544,121.27302,72.718608)">
        <path
           d="m 0,0 c 0,-18.477 -14.979,-33.457 -33.456,-33.457 -18.478,0 -33.456,14.98 -33.456,33.457 0,18.477 14.978,33.456 33.456,33.456 C -14.979,33.456 0,18.477 0,0"
           style="fill:#ffffff;fill-opacity:1;fill-rule:nonzero;stroke:none"
           id="path1710" />
      </g>
      <g
         id="g1712"
         transform="matrix(0.35767544,0,0,-0.35767544,119.62017,63.807983)">
        <path
           d="m 0,0 c 5.776,-6.68 9.271,-15.388 9.271,-24.913 0,-21.045 -17.06,-38.106 -38.106,-38.106 -5.137,0 -10.036,1.017 -14.509,2.86"
           style="fill:none;stroke:#ffffff;stroke-width:1.207;stroke-linecap:round;stroke-linejoin:miter;stroke-miterlimit:10;stroke-dasharray:none;stroke-opacity:1"
           id="path1714" />
      </g>
      <g
         id="g1716"
         transform="matrix(0.35767544,0,0,-0.35767544,100.08318,82.753621)">
        <path
           d="m 0,0 c -7.573,6.965 -12.318,16.956 -12.318,28.056 0,21.045 17.06,38.106 38.105,38.106"
           style="fill:none;stroke:#ffffff;stroke-width:1.207;stroke-linecap:round;stroke-linejoin:miter;stroke-miterlimit:10;stroke-dasharray:none;stroke-opacity:1"
           id="path1718" />
      </g>
    </g>
    <g
       id="g1764"
       transform="matrix(0.35767544,0,0,-0.35767544,200.94272,25.491459)">
      <path
         d="m 0,0 c 3.806,-4.4 6.106,-10.136 6.106,-16.409 0,-13.862 -11.237,-25.099 -25.098,-25.099 -3.384,0 -6.611,0.669 -9.557,1.883"
         style="fill:none;stroke:#ffffff;stroke-width:0.795;stroke-linecap:round;stroke-linejoin:miter;stroke-miterlimit:10;stroke-dasharray:none;stroke-opacity:1"
         id="path1766" />
    </g>
    <g
       id="g23120"
       transform="translate(8.2577657,-6.5192887)">
      <g
         id="g1784"
         transform="matrix(0.35767544,0,0,-0.35767544,180.06166,19.886685)">
        <path
           d="m 0,0 -3.558,-0.182 0.182,3.557 C -4.739,4.297 -6.297,4.95 -7.973,5.274 l -2.382,-2.64 -2.383,2.64 C -14.414,4.95 -15.972,4.297 -17.335,3.375 L -17.153,-0.182 -20.711,0 c -0.922,-1.364 -1.574,-2.922 -1.898,-4.597 l 2.639,-2.383 -2.639,-2.383 c 0.324,-1.676 0.976,-3.233 1.898,-4.597 l 3.558,0.182 -0.182,-3.558 c 1.363,-0.921 2.921,-1.574 4.597,-1.898 l 2.383,2.64 2.382,-2.64 c 1.676,0.324 3.234,0.977 4.597,1.898 L -3.558,-13.778 0,-13.96 c 0.922,1.364 1.574,2.921 1.898,4.597 l -2.639,2.383 2.639,2.383 C 1.574,-2.922 0.921,-1.364 0,0 Z"
           style="fill:none;stroke:#ffffff;stroke-width:0.5;stroke-linecap:butt;stroke-linejoin:miter;stroke-miterlimit:10;stroke-dasharray:none;stroke-opacity:1"
           id="path1786" />
      </g>
      <g
         id="g1788"
         transform="matrix(0.35767544,0,0,-0.35767544,178.31173,22.383259)">
        <path
           d="m 0,0 c 0,-3.018 -2.445,-5.463 -5.463,-5.463 -3.017,0 -5.463,2.445 -5.463,5.463 0,3.017 2.446,5.463 5.463,5.463 C -2.445,5.463 0,3.017 0,0 Z"
           style="fill:none;stroke:#ffffff;stroke-width:0.5;stroke-linecap:butt;stroke-linejoin:miter;stroke-miterlimit:10;stroke-dasharray:none;stroke-opacity:1"
           id="path1790" />
      </g>
    </g>
    <g
       id="g23126"
       transform="translate(0,6.3500003)">
      <g
         id="g1792"
         transform="matrix(0.35767544,0,0,-0.35767544,224.90035,104.64965)">
        <path
           d="m 0,0 -3.558,-0.182 0.183,3.558 C -4.739,4.297 -6.297,4.95 -7.973,5.273 l -2.382,-2.639 -2.383,2.639 C -14.413,4.95 -15.972,4.297 -17.335,3.376 L -17.153,-0.182 -20.711,0 c -0.921,-1.364 -1.574,-2.922 -1.898,-4.597 l 2.639,-2.383 -2.639,-2.383 c 0.324,-1.675 0.977,-3.233 1.898,-4.597 l 3.558,0.182 -0.182,-3.558 c 1.363,-0.921 2.922,-1.574 4.597,-1.898 l 2.383,2.64 2.382,-2.64 c 1.676,0.324 3.234,0.977 4.598,1.898 L -3.558,-13.778 0,-13.96 c 0.922,1.364 1.574,2.922 1.898,4.597 l -2.639,2.383 2.639,2.383 C 1.574,-2.922 0.922,-1.364 0,0 Z"
           style="fill:none;stroke:#ffffff;stroke-width:0.5;stroke-linecap:butt;stroke-linejoin:miter;stroke-miterlimit:10;stroke-dasharray:none;stroke-opacity:1"
           id="path1794" />
      </g>
      <path
         d="m 223.15039,107.1464 c 0,1.07911 -0.87452,1.95398 -1.95398,1.95398 -1.07911,0 -1.95398,-0.87487 -1.95398,-1.95398 0,-1.07946 0.87487,-1.95434 1.95398,-1.95434 1.07946,0 1.95398,0.87488 1.95398,1.95434 z"
         style="fill:none;stroke:#ffffff;stroke-width:0.178838;stroke-linecap:butt;stroke-linejoin:miter;stroke-miterlimit:10;stroke-dasharray:none;stroke-opacity:1"
         id="path1798" />
    </g>
    <g
       id="g1800"
       transform="matrix(0.35767544,0,0,-0.35767544,108.3757,95.588656)">
      <path
         d="m 0,0 c -2.094,0 -3.79,1.697 -3.79,3.791 0,2.093 1.696,3.79 3.79,3.79 2.094,0 3.79,-1.697 3.79,-3.79 C 3.79,1.697 2.094,0 0,0 M 8.501,5.444 C 8.276,6.606 7.823,7.687 7.185,8.633 L 4.717,8.507 4.843,10.976 c -0.947,0.638 -2.028,1.091 -3.19,1.316 L 0,10.461 -1.653,12.292 c -1.162,-0.225 -2.243,-0.678 -3.19,-1.316 L -4.717,8.507 -7.185,8.633 C -7.823,7.687 -8.276,6.606 -8.502,5.444 L -6.67,3.791 -8.502,2.138 c 0.226,-1.163 0.679,-2.243 1.317,-3.19 l 2.468,0.126 -0.126,-2.468 c 0.947,-0.639 2.028,-1.092 3.19,-1.317 L 0,-2.88 1.653,-4.711 c 1.162,0.225 2.243,0.678 3.19,1.317 l -0.126,2.468 2.468,-0.126 c 0.638,0.947 1.091,2.027 1.316,3.19 L 6.67,3.791 Z"
         style="fill:#ffffff;fill-opacity:1;fill-rule:nonzero;stroke:none"
         id="path1802" />
    </g>
    <g
       id="g1804"
       transform="matrix(0.35767544,0,0,-0.35767544,250.33739,69.806715)">
      <path
         d="m 0,0 c -2.094,0 -3.79,1.697 -3.79,3.79 0,2.093 1.696,3.791 3.79,3.791 2.093,0 3.79,-1.698 3.79,-3.791 C 3.79,1.697 2.093,0 0,0 M 8.501,5.444 C 8.276,6.606 7.823,7.687 7.185,8.633 L 4.716,8.507 4.842,10.975 C 3.896,11.614 2.815,12.067 1.653,12.292 L 0,10.46 -1.653,12.292 c -1.162,-0.225 -2.243,-0.678 -3.19,-1.317 L -4.717,8.507 -7.185,8.633 C -7.824,7.687 -8.276,6.606 -8.502,5.444 L -6.67,3.79 -8.502,2.137 c 0.226,-1.162 0.678,-2.243 1.317,-3.189 l 2.468,0.126 -0.126,-2.469 c 0.947,-0.638 2.028,-1.091 3.19,-1.316 L 0,-2.88 1.653,-4.711 c 1.162,0.225 2.243,0.678 3.189,1.316 l -0.126,2.469 2.469,-0.126 c 0.638,0.946 1.091,2.027 1.316,3.189 L 6.67,3.79 Z"
         style="fill:#ffffff;fill-opacity:1;fill-rule:nonzero;stroke:none"
         id="path1806" />
    </g>
    <g
       id="g39117">
      <g
         id="g25015">
        <g
           id="g1664"
           transform="matrix(0.35767544,0,0,-0.35767544,150.49442,29.158312)">
          <path
             d="m 0,0 c 0,-15.896 -12.887,-28.782 -28.782,-28.782 -15.897,0 -28.782,12.886 -28.782,28.782 0,15.896 12.885,28.782 28.782,28.782 C -12.887,28.782 0,15.896 0,0"
             style="fill:#ffffff;fill-opacity:1;fill-rule:nonzero;stroke:none"
             id="path1666" />
        </g>
        <g
           id="g1668"
           transform="matrix(0.35767544,0,0,-0.35767544,149.07244,21.492397)">
          <path
             d="m 0,0 c 4.969,-5.747 7.976,-13.239 7.976,-21.433 0,-18.105 -14.678,-32.782 -32.783,-32.782 -4.42,0 -8.634,0.875 -12.482,2.46"
             style="fill:none;stroke:#ffffff;stroke-width:1.038;stroke-linecap:round;stroke-linejoin:miter;stroke-miterlimit:10;stroke-dasharray:none;stroke-opacity:1"
             id="path1670" />
        </g>
        <g
           id="g1672"
           transform="matrix(0.35767544,0,0,-0.35767544,132.26485,37.791238)">
          <path
             d="m 0,0 c -6.516,5.992 -10.598,14.587 -10.598,24.136 0,18.105 14.677,32.782 32.783,32.782"
             style="fill:none;stroke:#ffffff;stroke-width:1.038;stroke-linecap:round;stroke-linejoin:miter;stroke-miterlimit:10;stroke-dasharray:none;stroke-opacity:1"
             id="path1674" />
        </g>
      </g>
      <path
         id="text34051"
         style="font-size:8.58754px;line-height:1.25;font-family:sans-serif;fill:#ff9400;fill-opacity:1;stroke-width:0.264583"
         d="m 135.95136,25.632584 c -1.07697,0 -2.15394,0 -3.23091,0 0,2.235865 0,4.471728 0,6.707593 1.54638,0 3.09278,0 4.63916,0 0.24467,-0.558618 0.2847,-1.459954 -0.46822,-1.621734 -0.80191,-0.10901 -1.6215,0.01604 -2.43081,-0.0287 0.0271,-0.392465 -0.23555,-1.230116 0.39677,-1.176389 0.73898,-0.06758 1.55157,0.169383 2.24214,-0.07759 0.73967,-0.402295 0.37625,-1.540317 -0.41082,-1.603795 -0.74602,0.01989 -1.49779,0.08226 -2.255,0.05023 -0.20563,-0.584953 0.39368,-0.688653 0.81984,-0.606357 0.702,0.0088 1.40407,0.0061 2.1061,0.0072 0.24467,-0.558618 0.2847,-1.459954 -0.46822,-1.621735 -0.30767,-0.08218 -0.62691,-0.04057 -0.94003,-0.0287 z m 2.32317,-0.0018 c -0.83252,0.1981 -0.50604,1.170971 -0.56689,1.785701 0,1.613123 0,3.226247 0,4.83937 0.59065,0.194403 1.51333,0.271344 1.70963,-0.502307 0.11022,-0.555506 0.0378,-1.129829 0,-1.693493 0.77093,0.0029 1.02412,0.945271 1.55477,1.369819 0.3314,0.550833 0.87701,1.078245 1.56852,0.933618 0.45861,0.04971 0.64077,-0.281654 1.04587,-0.03229 0.69262,0.291186 1.495,-0.285085 1.37187,-1.046206 -0.026,-0.361068 -0.004,-0.721631 -0.0461,-1.083218 1.44215,0.234118 3.14413,-0.870026 3.01211,-2.445501 9.1e-4,-1.3469 -1.39522,-2.265519 -2.65589,-2.122392 -0.62639,0.05826 -1.38073,-0.191852 -1.90081,0.219349 -0.41169,0.558667 -0.0543,1.291746 -0.17582,1.928501 0,1.207929 0,2.415858 0,3.623786 -0.53631,-0.636994 -1.10249,-1.255999 -1.61814,-1.914148 1.13949,-0.84308 1.195,-2.874315 -0.15069,-3.541265 -0.97362,-0.478578 -2.11121,-0.278075 -3.1484,-0.319324 z m 1.78857,1.614558 c 0.59178,-0.02867 0.87559,0.752531 0.34982,1.058433 -0.27118,0.119744 -1.16338,0.406096 -0.97792,-0.125828 0.0116,-0.350475 -0.16209,-1.094034 0.43615,-0.952338 0.064,0.0066 0.12797,0.01315 0.19195,0.01973 z m 5.33881,-0.0072 c 0.57067,-0.02114 1.02729,0.654133 0.58124,1.103281 -0.25129,0.188815 -1.04404,0.430349 -1.04767,0.0879 0.13683,-0.381047 -0.24158,-0.892821 0.12558,-1.17504 0.11448,0.009 0.22616,-0.02737 0.34085,-0.01615 z" />
    </g>
    <path
       id="text41013"
       style="font-size:8.46768px;line-height:1.25;font-family:sans-serif;fill:#ff9400;fill-opacity:1;stroke-width:0.264583"
       d="m 103.06234,68.510922 c -1.52112,0.03868 -2.82071,1.315666 -2.93313,2.824345 -0.249967,1.53313 0.37708,3.403107 1.98494,3.900344 1.2431,0.424854 2.59094,0.101175 3.71632,-0.500485 0,-0.569036 0,-1.138071 0,-1.707106 -0.57995,-0.137793 -0.96923,0.184862 -1.40965,0.498036 -0.83782,0.491609 -2.21051,0.314298 -2.44927,-0.776204 -0.29096,-0.951482 -0.0656,-2.469778 1.1414,-2.597839 0.74539,-0.10643 1.45659,0.254573 1.995,0.743033 0.73483,0.205342 0.81654,-0.24243 0.72252,-0.865928 0.0571,-0.528398 0.0586,-1.019012 -0.56782,-1.114169 -0.687,-0.314585 -1.44599,-0.457198 -2.20031,-0.404027 z m 2.86095,0.584202 c 0,2.076555 0,4.153109 0,6.229664 0.58298,0 1.16597,0 1.74896,0 0,-0.760129 10e-6,-1.52026 0,-2.280389 0.62232,-0.08185 0.82834,0.730242 1.25441,1.069801 0.38256,0.376633 0.67243,0.953427 1.11007,1.210588 1.02389,0 2.04779,0 3.07169,0 0,-1.077406 0,-2.154812 0,-3.232219 0.25893,0.550886 0.51923,1.101133 0.77711,1.652508 0.49085,-0.05556 1.20124,0.235846 1.29378,-0.450473 0.18494,-0.249771 0.63713,-1.686549 0.57531,-0.84023 0,0.956804 0,1.913609 0,2.870414 0.58298,0 1.16598,0 1.74897,0 0,-2.240956 0,-4.481913 0,-6.722869 -0.62243,0 -1.24485,0 -1.86727,0 -0.39152,0.842851 -0.78125,1.686534 -1.17204,2.529721 -0.40314,-0.843374 -0.80897,-1.685469 -1.21026,-2.529721 -0.61515,0 -1.23028,0 -1.84543,0 0,1.92004 0,3.840079 0,5.760119 -0.50703,-0.639561 -1.1994,-1.296527 -1.59427,-1.9255 1.23002,-0.848101 1.14298,-3.06241 -0.33299,-3.604165 -1.13725,-0.40588 -2.37671,-0.162592 -3.55804,-0.230454 0,0.164401 0,0.328803 0,0.493205 z m 2.13479,1.148384 c 0.42354,-0.06355 0.99706,0.140785 0.81169,0.675198 -0.0772,0.574323 -0.77,0.498695 -1.19752,0.504124 0.12345,-0.387085 -0.32025,-1.394142 0.38583,-1.179322 z" />
    <g
       transform="matrix(0.04171266,0,0,0.04171266,230.56144,11.865827)"
       id="text5681"
       style="font-size:13.3333px;font-family:'Myanmar MN';-inkscape-font-specification:'Myanmar MN';white-space:pre;fill:#ff9400;stroke-width:6.343" />
    <g
       id="g25029"
       transform="matrix(1.198771,0,0,1.198771,73.068686,-12.176679)">
      <g
         id="g25019"
         transform="matrix(0.35767544,0,0,-0.35767544,150.49442,29.158312)">
        <path
           d="m 0,0 c 0,-15.896 -12.887,-28.782 -28.782,-28.782 -15.897,0 -28.782,12.886 -28.782,28.782 0,15.896 12.885,28.782 28.782,28.782 C -12.887,28.782 0,15.896 0,0"
           style="fill:#ffffff;fill-opacity:1;fill-rule:nonzero;stroke:none"
           id="path25017" />
      </g>
      <g
         id="g25023"
         transform="matrix(0.35767544,0,0,-0.35767544,149.07244,21.492397)">
        <path
           d="m 0,0 c 4.969,-5.747 7.976,-13.239 7.976,-21.433 0,-18.105 -14.678,-32.782 -32.783,-32.782 -4.42,0 -8.634,0.875 -12.482,2.46"
           style="fill:none;stroke:#ffffff;stroke-width:1.038;stroke-linecap:round;stroke-linejoin:miter;stroke-miterlimit:10;stroke-dasharray:none;stroke-opacity:1"
           id="path25021" />
      </g>
      <g
         id="g25027"
         transform="matrix(0.35767544,0,0,-0.35767544,132.26485,37.791238)">
        <path
           d="m 0,0 c -6.516,5.992 -10.598,14.587 -10.598,24.136 0,18.105 14.677,32.782 32.783,32.782"
           style="fill:none;stroke:#ffffff;stroke-width:1.038;stroke-linecap:round;stroke-linejoin:miter;stroke-miterlimit:10;stroke-dasharray:none;stroke-opacity:1"
           id="path25025" />
      </g>
    </g>
  </g>
  <g
     inkscape:groupmode="layer"
     id="layer3"
     inkscape:label="Layer 3">
    <g
       id="g906"
       transform="matrix(0.28620518,0,0,-0.28620518,213.91673,99.957025)">
      <path
         d="m 0,0 h -334.567 v 196.39 c 0,6.842 5.546,12.389 12.388,12.389 H -12.39 C -5.547,208.779 0,203.232 0,196.39 Z"
         style="fill:#ffffff;fill-opacity:1;fill-rule:nonzero;stroke:none"
         id="path908" />
    </g>
    <path
       d="m 213.91679,99.957139 h -95.75481 v -2.56125 h 95.75481 z"
       style="fill:#dcecf4;fill-opacity:1;fill-rule:nonzero;stroke:none;stroke-width:0.286205"
       id="path910" />
    <path
       d="M 212.46781,98.567642 H 119.61083 V 44.168337 c 0,-1.42244 1.15312,-2.57556 2.57556,-2.57556 h 87.70586 c 1.42244,0 2.57556,1.15312 2.57556,2.57556 z"
       style="fill:#1a5072;fill-opacity:1;fill-rule:nonzero;stroke:none;stroke-width:0.286205"
       id="path914" />
    <path
       d="m 127.75555,98.567642 h -8.14483 V 44.168337 c 0,-1.42244 1.15312,-2.57556 2.57556,-2.57556 h 5.56927 z"
       style="fill:#5fa6b7;fill-opacity:1;fill-rule:nonzero;stroke:none;stroke-width:0.286205"
       id="path918" />
    <path
       d="m 212.46781,46.662358 h -92.85698 v -2.493992 c 0,-1.42244 1.15312,-2.57556 2.57556,-2.57556 h 87.70586 c 1.42244,0 2.57556,1.15312 2.57556,2.57556 z"
       style="fill:#1188a2;fill-opacity:1;fill-rule:nonzero;stroke:none;stroke-width:0.286205"
       id="path922" />
    <g
       id="g924"
       transform="matrix(0.28620518,0,0,-0.28620518,212.77666,103.47729)">
      <path
         d="m 0,0 h -326.601 c -8.299,0 -15.38,6.005 -16.736,14.192 l -0.153,0.924 H 16.89 L 16.736,14.192 C 15.38,6.005 8.3,0 0,0"
         style="fill:#ffffff;fill-opacity:1;fill-rule:nonzero;stroke:none"
         id="path926" />
    </g>
    <g
       id="g928"
       transform="matrix(0.28620518,0,0,-0.28620518,216.54624,99.150957)">
      <path
         d="m 0,0 c -2.328,-6.728 -8.698,-11.408 -16.023,-11.408 h -326.601 c -4.599,0 -8.818,1.848 -11.901,4.886 2.941,-5.184 8.501,-8.594 14.754,-8.594 h 326.6 c 8.3,0 15.381,6.005 16.736,14.192 L 3.719,0 Z"
         style="fill:#dcecf4;fill-opacity:1;fill-rule:nonzero;stroke:none"
         id="path930" />
    </g>
    <g
       id="g932"
       transform="matrix(0.28620518,0,0,-0.28620518,131.57181,51.000713)">
      <path
         d="M 0,0 H 114.087"
         style="fill:none;stroke:#54eac3;stroke-width:1.077;stroke-linecap:round;stroke-linejoin:miter;stroke-miterlimit:10;stroke-dasharray:none;stroke-opacity:1"
         id="path934" />
    </g>
    <g
       id="g936"
       transform="matrix(0.28620518,0,0,-0.28620518,166.91786,51.000713)">
      <path
         d="M 0,0 H 37.934"
         style="fill:none;stroke:#54eac3;stroke-width:1.077;stroke-linecap:round;stroke-linejoin:miter;stroke-miterlimit:10;stroke-dasharray:none;stroke-opacity:1"
         id="path938" />
    </g>
    <g
       id="g940"
       transform="matrix(0.28620518,0,0,-0.28620518,131.57181,74.241604)">
      <path
         d="M 0,0 H 114.087"
         style="fill:none;stroke:#69cdff;stroke-width:1.077;stroke-linecap:round;stroke-linejoin:miter;stroke-miterlimit:10;stroke-dasharray:none;stroke-opacity:1"
         id="path942" />
    </g>
    <g
       id="g944"
       transform="matrix(0.28620518,0,0,-0.28620518,166.91786,74.241604)">
      <path
         d="M 0,0 H 22.532"
         style="fill:none;stroke:#69cdff;stroke-width:1.077;stroke-linecap:round;stroke-linejoin:miter;stroke-miterlimit:10;stroke-dasharray:none;stroke-opacity:1"
         id="path946" />
    </g>
    <g
       id="g948"
       transform="matrix(0.28620518,0,0,-0.28620518,131.57181,80.92438)">
      <path
         d="M 0,0 H 114.087"
         style="fill:none;stroke:#54eac3;stroke-width:1.077;stroke-linecap:round;stroke-linejoin:miter;stroke-miterlimit:10;stroke-dasharray:none;stroke-opacity:1"
         id="path950" />
    </g>
    <g
       id="g952"
       transform="matrix(0.28620518,0,0,-0.28620518,166.91786,80.92438)">
      <path
         d="M 0,0 H 22.532"
         style="fill:none;stroke:#54eac3;stroke-width:1.077;stroke-linecap:round;stroke-linejoin:miter;stroke-miterlimit:10;stroke-dasharray:none;stroke-opacity:1"
         id="path954" />
    </g>
    <g
       id="g956"
       transform="matrix(0.28620518,0,0,-0.28620518,131.57181,92.804986)">
      <path
         d="M 0,0 H 114.087"
         style="fill:none;stroke:#69cdff;stroke-width:1.077;stroke-linecap:round;stroke-linejoin:miter;stroke-miterlimit:10;stroke-dasharray:none;stroke-opacity:1"
         id="path958" />
    </g>
    <g
       id="g960"
       transform="matrix(0.28620518,0,0,-0.28620518,166.91786,92.804986)">
      <path
         d="M 0,0 H 37.934"
         style="fill:none;stroke:#69cdff;stroke-width:1.077;stroke-linecap:round;stroke-linejoin:miter;stroke-miterlimit:10;stroke-dasharray:none;stroke-opacity:1"
         id="path962" />
    </g>
    <g
       id="g964"
       transform="matrix(0.28620518,0,0,-0.28620518,154.02019,94.661113)">
      <path
         d="M 0,0 H 35.652"
         style="fill:none;stroke:#54eac3;stroke-width:1.077;stroke-linecap:round;stroke-linejoin:miter;stroke-miterlimit:10;stroke-dasharray:none;stroke-opacity:1"
         id="path966" />
    </g>
    <g
       id="g968"
       transform="matrix(0.28620518,0,0,-0.28620518,166.91786,94.661113)">
      <path
         d="M 0,0 H 37.934"
         style="fill:none;stroke:#54eac3;stroke-width:1.077;stroke-linecap:round;stroke-linejoin:miter;stroke-miterlimit:10;stroke-dasharray:none;stroke-opacity:1"
         id="path970" />
    </g>
    <g
       id="g972"
       transform="matrix(0.28620518,0,0,-0.28620518,138.83678,53.673698)">
      <path
         d="M 0,0 H 88.703"
         style="fill:none;stroke:#69cdff;stroke-width:1.077;stroke-linecap:round;stroke-linejoin:miter;stroke-miterlimit:10;stroke-dasharray:none;stroke-opacity:1"
         id="path974" />
    </g>
    <g
       id="g976"
       transform="matrix(0.28620518,0,0,-0.28620518,166.91786,53.673698)">
      <path
         d="M 0,0 H 13.976"
         style="fill:none;stroke:#69cdff;stroke-width:1.077;stroke-linecap:round;stroke-linejoin:miter;stroke-miterlimit:10;stroke-dasharray:none;stroke-opacity:1"
         id="path978" />
    </g>
    <g
       id="g980"
       transform="matrix(0.28620518,0,0,-0.28620518,138.83678,55.307357)">
      <path
         d="M 0,0 H 88.703"
         style="fill:none;stroke:#69cdff;stroke-width:1.077;stroke-linecap:round;stroke-linejoin:miter;stroke-miterlimit:10;stroke-dasharray:none;stroke-opacity:1"
         id="path982" />
    </g>
    <g
       id="g984"
       transform="matrix(0.28620518,0,0,-0.28620518,166.91786,55.307357)">
      <path
         d="M 0,0 H 24.243"
         style="fill:none;stroke:#69cdff;stroke-width:1.077;stroke-linecap:round;stroke-linejoin:miter;stroke-miterlimit:10;stroke-dasharray:none;stroke-opacity:1"
         id="path986" />
    </g>
    <g
       id="g988"
       transform="matrix(0.28620518,0,0,-0.28620518,138.83678,56.940873)">
      <path
         d="M 0,0 H 88.703"
         style="fill:none;stroke:#54eac3;stroke-width:1.077;stroke-linecap:round;stroke-linejoin:miter;stroke-miterlimit:10;stroke-dasharray:none;stroke-opacity:1"
         id="path990" />
    </g>
    <g
       id="g992"
       transform="matrix(0.28620518,0,0,-0.28620518,166.91786,56.940873)">
      <path
         d="M 0,0 H 13.976"
         style="fill:none;stroke:#54eac3;stroke-width:1.077;stroke-linecap:round;stroke-linejoin:miter;stroke-miterlimit:10;stroke-dasharray:none;stroke-opacity:1"
         id="path994" />
    </g>
    <g
       id="g996"
       transform="matrix(0.28620518,0,0,-0.28620518,138.83678,58.574389)">
      <path
         d="M 0,0 H 88.703"
         style="fill:none;stroke:#69cdff;stroke-width:1.077;stroke-linecap:round;stroke-linejoin:miter;stroke-miterlimit:10;stroke-dasharray:none;stroke-opacity:1"
         id="path998" />
    </g>
    <g
       id="g1000"
       transform="matrix(0.28620518,0,0,-0.28620518,166.91786,58.574389)">
      <path
         d="M 0,0 H 24.243"
         style="fill:none;stroke:#69cdff;stroke-width:1.077;stroke-linecap:round;stroke-linejoin:miter;stroke-miterlimit:10;stroke-dasharray:none;stroke-opacity:1"
         id="path1002" />
    </g>
    <g
       id="g1004"
       transform="matrix(0.28620518,0,0,-0.28620518,138.83678,60.207905)">
      <path
         d="M 0,0 H 88.703"
         style="fill:none;stroke:#69cdff;stroke-width:1.077;stroke-linecap:round;stroke-linejoin:miter;stroke-miterlimit:10;stroke-dasharray:none;stroke-opacity:1"
         id="path1006" />
    </g>
    <g
       id="g1008"
       transform="matrix(0.28620518,0,0,-0.28620518,166.91786,60.207905)">
      <path
         d="M 0,0 H 13.976"
         style="fill:none;stroke:#69cdff;stroke-width:1.077;stroke-linecap:round;stroke-linejoin:miter;stroke-miterlimit:10;stroke-dasharray:none;stroke-opacity:1"
         id="path1010" />
    </g>
    <g
       id="g1012"
       transform="matrix(0.28620518,0,0,-0.28620518,148.38776,62.212744)">
      <path
         d="M 0,0 H 55.332"
         style="fill:none;stroke:#69cdff;stroke-width:1.077;stroke-linecap:round;stroke-linejoin:miter;stroke-miterlimit:10;stroke-dasharray:none;stroke-opacity:1"
         id="path1014" />
    </g>
    <g
       id="g1016"
       transform="matrix(0.28620518,0,0,-0.28620518,166.91786,62.212744)">
      <path
         d="M 0,0 H 29.377"
         style="fill:none;stroke:#69cdff;stroke-width:1.077;stroke-linecap:round;stroke-linejoin:miter;stroke-miterlimit:10;stroke-dasharray:none;stroke-opacity:1"
         id="path1018" />
    </g>
    <g
       id="g1020"
       transform="matrix(0.28620518,0,0,-0.28620518,148.38776,64.217582)">
      <path
         d="M 0,0 H 55.332"
         style="fill:none;stroke:#69cdff;stroke-width:1.077;stroke-linecap:round;stroke-linejoin:miter;stroke-miterlimit:10;stroke-dasharray:none;stroke-opacity:1"
         id="path1022" />
    </g>
    <g
       id="g1024"
       transform="matrix(0.28620518,0,0,-0.28620518,166.91786,64.217582)">
      <path
         d="M 0,0 H 29.377"
         style="fill:none;stroke:#69cdff;stroke-width:1.077;stroke-linecap:round;stroke-linejoin:miter;stroke-miterlimit:10;stroke-dasharray:none;stroke-opacity:1"
         id="path1026" />
    </g>
    <g
       id="g1028"
       transform="matrix(0.28620518,0,0,-0.28620518,148.38776,66.222564)">
      <path
         d="M 0,0 H 43.923"
         style="fill:none;stroke:#69cdff;stroke-width:1.077;stroke-linecap:round;stroke-linejoin:miter;stroke-miterlimit:10;stroke-dasharray:none;stroke-opacity:1"
         id="path1030" />
    </g>
    <g
       id="g1032"
       transform="matrix(0.28620518,0,0,-0.28620518,163.65249,66.222564)">
      <path
         d="M 0,0 H 40.786"
         style="fill:none;stroke:#69cdff;stroke-width:1.077;stroke-linecap:round;stroke-linejoin:miter;stroke-miterlimit:10;stroke-dasharray:none;stroke-opacity:1"
         id="path1034" />
    </g>
    <g
       id="g1036"
       transform="matrix(0.28620518,0,0,-0.28620518,148.38776,68.227374)">
      <path
         d="M 0,0 H 55.332"
         style="fill:none;stroke:#69cdff;stroke-width:1.077;stroke-linecap:round;stroke-linejoin:miter;stroke-miterlimit:10;stroke-dasharray:none;stroke-opacity:1"
         id="path1038" />
    </g>
    <g
       id="g1040"
       transform="matrix(0.28620518,0,0,-0.28620518,166.91786,68.227374)">
      <path
         d="M 0,0 H 29.377"
         style="fill:none;stroke:#69cdff;stroke-width:1.077;stroke-linecap:round;stroke-linejoin:miter;stroke-miterlimit:10;stroke-dasharray:none;stroke-opacity:1"
         id="path1042" />
    </g>
    <g
       id="g1044"
       transform="matrix(0.28620518,0,0,-0.28620518,148.38776,70.232213)">
      <path
         d="M 0,0 H 43.923"
         style="fill:none;stroke:#69cdff;stroke-width:1.077;stroke-linecap:round;stroke-linejoin:miter;stroke-miterlimit:10;stroke-dasharray:none;stroke-opacity:1"
         id="path1046" />
    </g>
    <g
       id="g1048"
       transform="matrix(0.28620518,0,0,-0.28620518,163.65249,70.232213)">
      <path
         d="M 0,0 H 40.786"
         style="fill:none;stroke:#69cdff;stroke-width:1.077;stroke-linecap:round;stroke-linejoin:miter;stroke-miterlimit:10;stroke-dasharray:none;stroke-opacity:1"
         id="path1050" />
    </g>
    <g
       id="g1052"
       transform="matrix(0.28620518,0,0,-0.28620518,148.38776,72.236765)">
      <path
         d="M 0,0 H 55.332"
         style="fill:none;stroke:#69cdff;stroke-width:1.077;stroke-linecap:round;stroke-linejoin:miter;stroke-miterlimit:10;stroke-dasharray:none;stroke-opacity:1"
         id="path1054" />
    </g>
    <g
       id="g1056"
       transform="matrix(0.28620518,0,0,-0.28620518,166.91786,72.236765)">
      <path
         d="M 0,0 H 29.377"
         style="fill:none;stroke:#69cdff;stroke-width:1.077;stroke-linecap:round;stroke-linejoin:miter;stroke-miterlimit:10;stroke-dasharray:none;stroke-opacity:1"
         id="path1058" />
    </g>
    <g
       id="g1060"
       transform="matrix(0.28620518,0,0,-0.28620518,152.38765,76.914732)">
      <path
         d="M 0,0 H 55.332"
         style="fill:none;stroke:#69cdff;stroke-width:1.077;stroke-linecap:round;stroke-linejoin:miter;stroke-miterlimit:10;stroke-dasharray:none;stroke-opacity:1"
         id="path1062" />
    </g>
    <g
       id="g1064"
       transform="matrix(0.28620518,0,0,-0.28620518,170.91775,76.914732)">
      <path
         d="M 0,0 H 29.377"
         style="fill:none;stroke:#69cdff;stroke-width:1.077;stroke-linecap:round;stroke-linejoin:miter;stroke-miterlimit:10;stroke-dasharray:none;stroke-opacity:1"
         id="path1066" />
    </g>
    <g
       id="g1068"
       transform="matrix(0.28620518,0,0,-0.28620518,152.38765,78.919542)">
      <path
         d="M 0,0 H 39.359"
         style="fill:none;stroke:#69cdff;stroke-width:1.077;stroke-linecap:round;stroke-linejoin:miter;stroke-miterlimit:10;stroke-dasharray:none;stroke-opacity:1"
         id="path1070" />
    </g>
    <g
       id="g1072"
       transform="matrix(0.28620518,0,0,-0.28620518,166.34631,78.919542)">
      <path
         d="M 0,0 H 45.35"
         style="fill:none;stroke:#69cdff;stroke-width:1.077;stroke-linecap:round;stroke-linejoin:miter;stroke-miterlimit:10;stroke-dasharray:none;stroke-opacity:1"
         id="path1074" />
    </g>
    <g
       id="g1076"
       transform="matrix(0.28620518,0,0,-0.28620518,158.83648,83.523438)">
      <path
         d="M 0,0 H 16.827"
         style="fill:none;stroke:#69cdff;stroke-width:1.077;stroke-linecap:round;stroke-linejoin:miter;stroke-miterlimit:10;stroke-dasharray:none;stroke-opacity:1"
         id="path1078" />
    </g>
    <g
       id="g1080"
       transform="matrix(0.28620518,0,0,-0.28620518,166.34631,83.523438)">
      <path
         d="M 0,0 H 31.374"
         style="fill:none;stroke:#69cdff;stroke-width:1.077;stroke-linecap:round;stroke-linejoin:miter;stroke-miterlimit:10;stroke-dasharray:none;stroke-opacity:1"
         id="path1082" />
    </g>
    <g
       id="g1084"
       transform="matrix(0.28620518,0,0,-0.28620518,160.3058,85.379565)">
      <path
         d="M 0,0 H 11.693"
         style="fill:none;stroke:#69cdff;stroke-width:1.077;stroke-linecap:round;stroke-linejoin:miter;stroke-miterlimit:10;stroke-dasharray:none;stroke-opacity:1"
         id="path1086" />
    </g>
    <g
       id="g1088"
       transform="matrix(0.28620518,0,0,-0.28620518,166.34631,85.379565)">
      <path
         d="M 0,0 H 39.931"
         style="fill:none;stroke:#69cdff;stroke-width:1.077;stroke-linecap:round;stroke-linejoin:miter;stroke-miterlimit:10;stroke-dasharray:none;stroke-opacity:1"
         id="path1090" />
    </g>
    <g
       id="g1092"
       transform="matrix(0.28620518,0,0,-0.28620518,158.83648,87.236006)">
      <path
         d="M 0,0 H 16.827"
         style="fill:none;stroke:#54eac3;stroke-width:1.077;stroke-linecap:round;stroke-linejoin:miter;stroke-miterlimit:10;stroke-dasharray:none;stroke-opacity:1"
         id="path1094" />
    </g>
    <g
       id="g1096"
       transform="matrix(0.28620518,0,0,-0.28620518,166.34631,87.236006)">
      <path
         d="M 0,0 H 31.374"
         style="fill:none;stroke:#54eac3;stroke-width:1.077;stroke-linecap:round;stroke-linejoin:miter;stroke-miterlimit:10;stroke-dasharray:none;stroke-opacity:1"
         id="path1098" />
    </g>
    <g
       id="g1100"
       transform="matrix(0.28620518,0,0,-0.28620518,160.3058,89.092133)">
      <path
         d="M 0,0 H 11.693"
         style="fill:none;stroke:#69cdff;stroke-width:1.077;stroke-linecap:round;stroke-linejoin:miter;stroke-miterlimit:10;stroke-dasharray:none;stroke-opacity:1"
         id="path1102" />
    </g>
    <g
       id="g1104"
       transform="matrix(0.28620518,0,0,-0.28620518,166.34631,89.092133)">
      <path
         d="M 0,0 H 39.931"
         style="fill:none;stroke:#69cdff;stroke-width:1.077;stroke-linecap:round;stroke-linejoin:miter;stroke-miterlimit:10;stroke-dasharray:none;stroke-opacity:1"
         id="path1106" />
    </g>
    <path
       d="m 125.13975,51.000713 c 0,0.804523 -0.65226,1.456498 -1.45678,1.456498 -0.80424,0 -1.4565,-0.651975 -1.4565,-1.456498 0,-0.804523 0.65226,-1.456498 1.4565,-1.456498 0.80452,0 1.45678,0.651975 1.45678,1.456498"
       style="fill:#97c6d4;fill-opacity:1;fill-rule:nonzero;stroke:none;stroke-width:0.286205"
       id="path1110" />
    <g
       id="g1112"
       transform="matrix(0.28620518,0,0,-0.28620518,124.61261,44.127467)">
      <path
         d="m 0,0 c 0,-1.3 -1.054,-2.354 -2.353,-2.354 -1.299,0 -2.353,1.054 -2.353,2.354 0,1.299 1.054,2.353 2.353,2.353 C -1.054,2.353 0,1.299 0,0"
         style="fill:#54eac3;fill-opacity:1;fill-rule:nonzero;stroke:none"
         id="path1114" />
    </g>
    <g
       id="g1116"
       transform="matrix(0.28620518,0,0,-0.28620518,127.08196,44.127467)">
      <path
         d="m 0,0 c 0,-1.3 -1.054,-2.354 -2.353,-2.354 -1.299,0 -2.353,1.054 -2.353,2.354 0,1.299 1.054,2.353 2.353,2.353 C -1.054,2.353 0,1.299 0,0"
         style="fill:#54eac3;fill-opacity:1;fill-rule:nonzero;stroke:none"
         id="path1118" />
    </g>
    <g
       id="g1120"
       transform="matrix(0.28620518,0,0,-0.28620518,129.55131,44.127467)">
      <path
         d="m 0,0 c 0,-1.3 -1.054,-2.354 -2.353,-2.354 -1.299,0 -2.353,1.054 -2.353,2.354 0,1.299 1.054,2.353 2.353,2.353 C -1.054,2.353 0,1.299 0,0"
         style="fill:#54eac3;fill-opacity:1;fill-rule:nonzero;stroke:none"
         id="path1122" />
    </g>
    <g
       id="g1136"
       transform="matrix(0.28620518,0,0,-0.28620518,217.39618,51.64187)">
      <path
         d="m 0,0 h 25.42 c 6.852,0 12.407,-5.555 12.407,-12.407 v -125.496 c 0,-6.851 -5.555,-12.406 -12.407,-12.406 h -38.433"
         style="fill:none;stroke:#ffffff;stroke-width:1.129;stroke-linecap:butt;stroke-linejoin:miter;stroke-miterlimit:10;stroke-dasharray:none;stroke-opacity:1"
         id="path1138" />
    </g>
    <g
       id="g1140"
       transform="matrix(0.28620518,0,0,-0.28620518,94.289603,136.4317)">
      <g
         id="g1142" />
      <g
         id="g1154">
        <g
           clip-path="url(#clipPath1146-7)"
           opacity="0.0500031"
           id="g1152">
          <g
             transform="translate(467.9612,295.5518)"
             id="g1150">
            <path
               d="m 0,0 c 0,-48.709 -39.486,-88.195 -88.195,-88.195 -48.709,0 -88.196,39.486 -88.196,88.195 0,48.709 39.487,88.195 88.196,88.195 C -39.486,88.195 0,48.709 0,0"
               style="fill:#ffffff;fill-opacity:1;fill-rule:nonzero;stroke:none"
               id="path1148" />
          </g>
        </g>
      </g>
    </g>
    <g
       id="g1156"
       transform="matrix(0.28620518,0,0,-0.28620518,94.289603,136.4317)">
      <g
         id="g1158" />
      <g
         id="g1170">
        <g
           clip-path="url(#clipPath1162-7)"
           opacity="0.149994"
           id="g1168">
          <g
             transform="translate(461.5549,295.5518)"
             id="g1166">
            <path
               d="m 0,0 c 0,-45.171 -36.618,-81.789 -81.789,-81.789 -45.171,0 -81.789,36.618 -81.789,81.789 0,45.171 36.618,81.789 81.789,81.789 C -36.618,81.789 0,45.171 0,0"
               style="fill:#ffffff;fill-opacity:1;fill-rule:nonzero;stroke:none"
               id="path1164" />
          </g>
        </g>
      </g>
    </g>
    <g
       id="g1172"
       transform="matrix(0.28620518,0,0,-0.28620518,94.289603,136.4317)">
      <g
         id="g1174" />
      <g
         id="g1186">
        <g
           clip-path="url(#clipPath1178-7)"
           opacity="0.5"
           id="g1184">
          <g
             transform="translate(447.425,295.5518)"
             id="g1182">
            <path
               d="m 0,0 c 0,-37.367 -30.292,-67.659 -67.659,-67.659 -37.367,0 -67.659,30.292 -67.659,67.659 0,37.368 30.292,67.66 67.659,67.66 C -30.292,67.66 0,37.368 0,0"
               style="fill:#ffffff;fill-opacity:1;fill-rule:nonzero;stroke:none"
               id="path1180" />
          </g>
        </g>
      </g>
    </g>
    <path
       d="m 216.44535,78.463417 h -26.93391 c -0.64368,0 -1.16571,-0.521466 -1.16571,-1.165141 V 24.703208 c 0,-0.643675 0.52203,-1.165427 1.16571,-1.165427 h 26.93391 c 0.64339,0 1.16514,0.521752 1.16514,1.165427 v 52.595068 c 0,0.643675 -0.52175,1.165141 -1.16514,1.165141"
       style="fill:#ffffff;fill-opacity:1;fill-rule:nonzero;stroke:none;stroke-width:0.286205"
       id="path1190" />
    <path
       d="m 215.66052,77.501653 h -25.36465 c -0.61391,0 -1.11133,-0.497425 -1.11133,-1.111335 V 25.610937 c 0,-0.61391 0.49742,-1.111335 1.11133,-1.111335 h 25.36465 c 0.61391,0 1.11133,0.497425 1.11133,1.111335 v 50.779381 c 0,0.61391 -0.49742,1.111335 -1.11133,1.111335"
       style="fill:#1a5072;fill-opacity:1;fill-rule:nonzero;stroke:none;stroke-width:0.286205"
       id="path1194" />
    <path
       d="m 207.28175,25.162882 h -8.60705 c -0.31711,0 -0.57384,-0.257012 -0.57384,-0.573841 v -0.405839 h 9.75473 v 0.405839 c 0,0.316829 -0.25701,0.573841 -0.57384,0.573841"
       style="fill:#45718d;fill-opacity:1;fill-rule:nonzero;stroke:none;stroke-width:0.286205"
       id="path1198" />
    <g
       id="g1200"
       transform="matrix(0.28620518,0,0,-0.28620518,200.9595,24.49963)">
      <path
         d="M 0,0 H 14.106"
         style="fill:none;stroke:#ffffff;stroke-width:0.726;stroke-linecap:round;stroke-linejoin:miter;stroke-miterlimit:10;stroke-dasharray:none;stroke-opacity:1"
         id="path1202" />
    </g>
    <path
       d="m 209.34529,36.621708 c 0,3.516603 -2.8506,6.367207 -6.36692,6.367207 -3.5166,0 -6.36721,-2.850604 -6.36721,-6.367207 0,-3.516603 2.85061,-6.367207 6.36721,-6.367207 3.51632,0 6.36692,2.850604 6.36692,6.367207"
       style="fill:#5fa6b7;fill-opacity:1;fill-rule:nonzero;stroke:none;stroke-width:0.286205"
       id="path1206" />
    <g
       id="g1208"
       transform="matrix(0.28620518,0,0,-0.28620518,204.61786,36.555594)">
      <path
         d="m 0,0 h -2.331 c 2.305,1.221 3.876,3.641 3.876,6.43 0,4.017 -3.257,7.274 -7.274,7.274 -4.017,0 -7.274,-3.257 -7.274,-7.274 0,-2.789 1.571,-5.209 3.876,-6.43 h -2.331 c -3.843,0 -6.958,-3.115 -6.958,-6.958 v -2.32 c 0,-1.501 1.218,-2.719 2.719,-2.719 H 4.239 c 1.502,0 2.719,1.218 2.719,2.719 v 2.32 C 6.958,-3.115 3.843,0 0,0"
         style="fill:#ffffff;fill-opacity:1;fill-rule:nonzero;stroke:none"
         id="path1210" />
    </g>
    <path
       d="m 205.99941,74.371284 h -6.04236 c -0.33687,0 -0.60991,-0.27304 -0.60991,-0.609903 0,-0.336864 0.27304,-0.609903 0.60991,-0.609903 h 6.04236 c 0.33686,0 0.6099,0.273039 0.6099,0.609903 0,0.336863 -0.27304,0.609903 -0.6099,0.609903"
       style="fill:#5fa6b7;fill-opacity:1;fill-rule:nonzero;stroke:#5fa6b7;stroke-width:0.286205;stroke-opacity:1"
       id="path1214" />
    <path
       d="m 210.12955,61.617408 h -14.30282 c -1.29107,0 -2.33829,-1.046939 -2.33829,-2.338296 0,-1.291358 1.04722,-2.338297 2.33829,-2.338297 h 14.30282 c 1.29136,0 2.3383,1.046939 2.3383,2.338297 0,1.291357 -1.04694,2.338296 -2.3383,2.338296 z"
       style="fill:none;stroke:#5fa6b7;stroke-width:0.297653;stroke-linecap:butt;stroke-linejoin:miter;stroke-miterlimit:10;stroke-dasharray:none;stroke-opacity:1"
       id="path1218" />
    <g
       id="g1220"
       transform="matrix(0.28620518,0,0,-0.28620518,199.4069,59.279141)">
      <path
         d="m 0,0 c 0,-0.743 -0.603,-1.346 -1.347,-1.346 -0.743,0 -1.346,0.603 -1.346,1.346 0,0.744 0.603,1.347 1.346,1.347 C -0.603,1.347 0,0.744 0,0"
         style="fill:#e1e8ea;fill-opacity:1;fill-rule:nonzero;stroke:none"
         id="path1222" />
    </g>
    <g
       id="g1224"
       transform="matrix(0.28620518,0,0,-0.28620518,201.38632,59.279141)">
      <path
         d="m 0,0 c 0,-0.743 -0.603,-1.346 -1.346,-1.346 -0.744,0 -1.346,0.603 -1.346,1.346 0,0.744 0.602,1.347 1.346,1.347 C -0.603,1.347 0,0.744 0,0"
         style="fill:#e1e8ea;fill-opacity:1;fill-rule:nonzero;stroke:none"
         id="path1226" />
    </g>
    <g
       id="g1228"
       transform="matrix(0.28620518,0,0,-0.28620518,203.36597,59.279141)">
      <path
         d="m 0,0 c 0,-0.743 -0.603,-1.346 -1.347,-1.346 -0.743,0 -1.345,0.603 -1.345,1.346 0,0.744 0.602,1.347 1.345,1.347 C -0.603,1.347 0,0.744 0,0"
         style="fill:#e1e8ea;fill-opacity:1;fill-rule:nonzero;stroke:none"
         id="path1230" />
    </g>
    <g
       id="g1232"
       transform="matrix(0.28620518,0,0,-0.28620518,205.3454,59.279141)">
      <path
         d="m 0,0 c 0,-0.743 -0.603,-1.346 -1.346,-1.346 -0.744,0 -1.346,0.603 -1.346,1.346 0,0.744 0.602,1.347 1.346,1.347 C -0.603,1.347 0,0.744 0,0"
         style="fill:#e1e8ea;fill-opacity:1;fill-rule:nonzero;stroke:none"
         id="path1234" />
    </g>
    <g
       id="g1236"
       transform="matrix(0.28620518,0,0,-0.28620518,207.32508,59.279141)">
      <path
         d="m 0,0 c 0,-0.743 -0.603,-1.346 -1.347,-1.346 -0.743,0 -1.345,0.603 -1.345,1.346 0,0.744 0.602,1.347 1.345,1.347 C -0.603,1.347 0,0.744 0,0"
         style="fill:#e1e8ea;fill-opacity:1;fill-rule:nonzero;stroke:none"
         id="path1238" />
    </g>
    <path
       d="m 210.12955,54.423727 h -14.30282 c -1.29107,0 -2.33829,-1.046939 -2.33829,-2.33801 0,-1.291644 1.04722,-2.338296 2.33829,-2.338296 h 14.30282 c 1.29136,0 2.3383,1.046652 2.3383,2.338296 0,1.291071 -1.04694,2.33801 -2.3383,2.33801 z"
       style="fill:none;stroke:#5fa6b7;stroke-width:0.297653;stroke-linecap:butt;stroke-linejoin:miter;stroke-miterlimit:10;stroke-dasharray:none;stroke-opacity:1"
       id="path1242" />
    <g
       id="g1244"
       transform="matrix(0.28620518,0,0,-0.28620518,208.85811,52.327904)">
      <path
         d="m 0,0 h -41.071 c -0.468,0 -0.847,0.379 -0.847,0.847 0,0.467 0.379,0.846 0.847,0.846 H 0 C 0.467,1.693 0.847,1.314 0.847,0.847 0.847,0.379 0.467,0 0,0"
         style="fill:#e1e8ea;fill-opacity:1;fill-rule:nonzero;stroke:none"
         id="path1246" />
    </g>
    <path
       d="m 125.13975,55.234049 c 0,0.804523 -0.65226,1.456498 -1.45678,1.456498 -0.80424,0 -1.4565,-0.651975 -1.4565,-1.456498 0,-0.804523 0.65226,-1.456498 1.4565,-1.456498 0.80452,0 1.45678,0.651975 1.45678,1.456498"
       style="fill:#97c6d4;fill-opacity:1;fill-rule:nonzero;stroke:none;stroke-width:0.286205"
       id="path15271" />
    <path
       d="m 125.13975,59.467385 c 0,0.804523 -0.65226,1.456498 -1.45678,1.456498 -0.80424,0 -1.4565,-0.651975 -1.4565,-1.456498 0,-0.804523 0.65226,-1.456498 1.4565,-1.456498 0.80452,0 1.45678,0.651975 1.45678,1.456498"
       style="fill:#97c6d4;fill-opacity:1;fill-rule:nonzero;stroke:none;stroke-width:0.286205"
       id="path15273" />
    <path
       d="m 125.13975,63.700721 c 0,0.804523 -0.65226,1.456498 -1.45678,1.456498 -0.80424,0 -1.4565,-0.651975 -1.4565,-1.456498 0,-0.804523 0.65226,-1.456498 1.4565,-1.456498 0.80452,0 1.45678,0.651975 1.45678,1.456498"
       style="fill:#97c6d4;fill-opacity:1;fill-rule:nonzero;stroke:none;stroke-width:0.286205"
       id="path15275" />
    <path
       d="m 125.13975,67.934057 c 0,0.804523 -0.65226,1.456498 -1.45678,1.456498 -0.80424,0 -1.4565,-0.651975 -1.4565,-1.456498 0,-0.804523 0.65226,-1.456498 1.4565,-1.456498 0.80452,0 1.45678,0.651975 1.45678,1.456498"
       style="fill:#97c6d4;fill-opacity:1;fill-rule:nonzero;stroke:none;stroke-width:0.286205"
       id="path15277" />
  </g>
</svg>
