<?xml version="1.0" encoding="utf-8"?>
<!-- Generator: Adobe Illustrator 22.0.0, SVG Export Plug-In . SVG Version: 6.00 Build 0)  -->
<svg version="1.1" xmlns="http://www.w3.org/2000/svg" xmlns:xlink="http://www.w3.org/1999/xlink" x="0px" y="0px"
	 viewBox="0 0 3301.2 1106" style="enable-background:new 0 0 3301.2 1106;" xml:space="preserve">
<style type="text/css">
	.st0{fill:#97C6D4;}
	.st1{fill:#1A5072;}
	.st2{fill:#5FA6B7;}
	.st3{fill:#4DB8C4;}
	.st4{fill:#1188A2;}
	.st5{fill:#1A5072;stroke:#1A5072;stroke-width:5;stroke-miterlimit:10;}
	.st6{font-family:'Broadway';}
	.st7{font-size:312.3519px;}
	.st8{letter-spacing:2.6;}
	.st9{fill:none;}
	.st10{fill:#6B6D6D;}
	.st11{font-family:'CalistoMT';}
	.st12{font-size:128.5369px;}
	.st13{letter-spacing:25;}
</style>
<g id="Layer_1">
	<g>
		<g id="XMLID_1_">
			<g>
				<path class="st0" d="M212.8,551.5c-13.4,0-24.3,10.9-24.3,24.3c0,12.8,10,21.8,24.3,21.8l55.7,0.1c14,0,25.3,11.4,25.3,25.3
					c0,13.4,10.9,24.3,24.3,24.3l206.5-2.3l0,0.5v-0.5c14,0,25.3,11.4,25.3,25.3c0,14-11.4,25.3-25.3,25.3H343
					c-13.4,0-24.3,10.9-24.3,24.3c0,12.5,9.5,20.5,24.3,20.5l49.7-0.6l0,0.5V740c14,0,25.3,11.4,25.3,25.3c0,14-11.4,25.3-25.3,25.3
					h-24.8c-13.4,0-24.3,10.9-24.3,24.3c0,12.8,10,21.8,24.3,21.8l36.5-1.1l0,0.5v-0.5c14,0,25.3,11.4,25.3,25.3
					c0,13.4,10.9,24.3,24.3,24.3h6.1c14,0,25.3,11.4,25.3,25.3c0,14-11.4,25.3-25.3,25.3h-96.7c-13.4,0-24.3,10.9-24.3,24.3
					c0,13.4,10.9,24.3,24.3,24.3l311.5-3.5l0,1l-311.6,3.5l0-0.5v0.5c-14,0-25.3-11.4-25.3-25.3c0-14,11.4-25.3,25.3-25.3h96.7
					c13.4,0,24.3-10.9,24.3-24.3c0-13.4-10.9-24.3-24.3-24.3H454c-14,0-25.3-11.4-25.3-25.3c0-13.4-10.9-24.3-24.3-24.3l-36.5,1.1
					l0-0.5v0.5c-14.7,0-25.3-9.6-25.3-22.8c0-14,11.4-25.3,25.3-25.3h24.8c13.4,0,24.3-10.9,24.3-24.3c0-13.4-10.9-24.3-24.3-24.3
					l-49.7,0.6l0-0.5v0.5c-15.1,0-25.3-8.7-25.3-21.5c0-14,11.4-25.3,25.3-25.3h181.7c13.4,0,24.3-10.9,24.3-24.3
					s-10.9-24.3-24.3-24.3l-206.6,2.3c-14,0-25.3-11.4-25.3-25.3c0-13.4-10.9-24.3-24.3-24.3l-55.7-0.1c-14.7,0-25.3-9.6-25.3-22.8
					c0-14,11.4-25.3,25.3-25.3l106.8-0.1c12.2,0,22.3-9,24.1-20.8c0-1.2,0.1-2.4,0.3-3.5c0,0,0,0,0,0c1.8-12.3,12.5-21.7,25.3-21.7
					h55.8c13.4,0,24.3-10.9,24.3-24.3c0-13.4-10.9-24.3-24.3-24.3l-55.8,0c-14,0-25.3-11.4-25.3-25.3c0-13,10.2-21.7,25.3-21.7
					h136.5c13.4,0,24.3-10.9,24.3-24.3c0-13.4-10.9-24.3-24.3-24.3H344.5c-14,0-25.3-11.4-25.3-25.3c0-14,11.4-25.3,25.3-25.3v0.5
					l0-0.5l68.6,1.8c14.1,0,24.3-9.5,24.3-22.5c0-13.4-10.9-24.3-24.3-24.3h-24.8c-14.6,0-25.2-9.8-25.2-23.4
					c0-15.5,6.9-24.3,20.1-25.3l0,0.5v-0.5c13.4,0,24.3-10.9,24.3-24.3s-10.9-24.3-24.3-24.3l-71,1.9l0-0.5v0.5
					c-14,0-25.3-11.4-25.3-25.3c0-14,11.4-25.3,25.3-25.3c1.1-0.2,77.9-5.8,228.8,3c35.2,2.1,69.6,12.9,102.3,31.6
					c26.1,14.9,51.2,35,74.5,59.7c39.7,42,60.8,83.4,61,83.8c0.4,0.9,41,92.1,33.5,126c-7.4,33.4,48.5,77.9,49.1,78.4
					c1.8,1.5,43.8,37.7,43.8,57.3c0,15.3-14.5,19.4-26.1,22.6c-3.6,1-7,1.9-9.6,3.1c-10.2,4.5-5.5,19.9-4.8,21.9
					c1.2,0.5,5.2,3.7,13.4,21.6c9.2,20-3.5,27.6-4.9,28.4l-11,15c-0.1,0.1-4.8,4.6-4.1,8c0.3,1.4,1.6,2.5,3.8,3.3
					c9.6,3.2,15.8,16.1,16,16.7l0,0.2c0,0.2,1.8,16.2-9.1,21.7c-10.3,5.1-5.4,34.2-5.4,34.5c16.6,44.2,10,69.2,9.7,70.3
					c-2.1,30.7-27.7,55-58.9,55c0,0-22.8,0-36.3,0c-38.1,5.4-68.7,34.4-76,72.3c-0.4,2.2-0.6,4-0.7,5.7c-0.2,1.8-0.3,3.7-0.8,6
					c-0.1,0.3-1.7,6.2-7.2,11.3c-4.5,4.2-10.8,6.6-17.1,6.6h0v-1h0c6.1,0,12-2.3,16.4-6.3c5.3-4.9,6.9-10.8,6.9-10.8
					c0.4-2.2,0.6-4.1,0.7-5.9c0.1-1.8,0.3-3.6,0.7-5.8c7.4-38.3,38.3-67.7,76.9-73.1c13.5,0,36.3,0,36.3,0c32,0,58-26,58-58h0.6
					c1.3-8.5,2.6-31.2-10.5-66c-0.2-1.3-5.1-30.2,5.9-35.7c9.9-5,8.7-19.4,8.6-20.6c-0.5-1.1-6.6-13.1-15.4-16.1
					c-2.6-0.8-4.1-2.2-4.5-4c-0.9-4,4.1-8.7,4.3-8.9l11.1-15.1l0.1-0.1c0.6-0.3,13.8-7,4.5-27.1c-9.2-19.9-12.9-21.1-13.1-21.2
					l-0.3,0l-0.1-0.3c-0.1-0.2-6.5-18.2,5.3-23.4c2.7-1.2,6.2-2.2,9.8-3.2c11.9-3.3,25.3-7.1,25.3-21.6c0-19.1-43-56.1-43.4-56.5
					c-0.5-0.4-57-45.3-49.4-79.4c7.4-33.5-33-124.4-33.4-125.3c-0.2-0.4-21.3-41.6-60.9-83.5c-36.5-38.7-96.7-85.9-176.1-91.1
					c-152.3-10-227.9-3.1-228.7-3l0-0.5v0.5c-13.4,0-24.3,10.9-24.3,24.3c0,13.4,10.9,24.3,24.3,24.3l71-1.9
					c14,0,25.3,11.4,25.3,25.3c0,14-11.4,25.3-25.3,25.3c-15.8,1.3-19.2,13.9-19.2,24.3c0,13,10.2,22.4,24.2,22.4H413
					c14,0,25.3,11.4,25.3,25.3c0,13.4-10.9,23.5-25.3,23.5v-0.5l0,0.5l-68.6-1.8c-13.4,0-24.3,10.9-24.3,24.3
					c0,13.4,10.9,24.3,24.3,24.3h161.3c14,0,25.3,11.4,25.3,25.3s-11.4,25.3-25.3,25.3H369.3c-12.1,0-24.3,6.4-24.3,20.7
					c0,13.4,10.9,24.3,24.3,24.3l55.8,0c14,0,25.3,11.4,25.3,25.3s-11.4,25.3-25.3,25.3h-55.8c-12.4,0-22.6,9.1-24.3,20.8
					c0,13.9-11.4,25.2-25.3,25.2L212.8,551.5z"/>
				<path class="st0" d="M904,558.2c0,14.6-13.5,18.3-25.3,21.6c-3.6,1-7,2-9.8,3.2c-11.7,5.2-5.3,23.2-5.3,23.4l0.1,0.3l0.3,0
					c0.2,0,3.9,1.3,13.1,21.2c9.3,20.1-4,26.8-4.5,27.1l-0.1,0.1l-11.1,15.1c-0.2,0.2-5.2,4.9-4.3,8.9c0.4,1.8,1.9,3.2,4.5,4
					c8.8,2.9,14.9,15,15.4,16.1c0.1,1.2,1.3,15.6-8.6,20.6c-11,5.5-6.1,34.3-5.9,35.7c13,34.8,11.7,57.5,10.5,66h-0.6
					c0,32-26,58-58,58c0,0-22.8,0-36.3,0c-38.6,5.4-69.5,34.8-76.9,73.1c-0.4,2.2-0.6,4.1-0.7,5.8c-0.2,1.8-0.3,3.6-0.7,5.9
					c0,0.1-1.6,5.9-6.9,10.8c-4.4,4-10.3,6.3-16.4,6.3h0v1H675l0-1l-311.5,3.5c-13.4,0-24.3-10.9-24.3-24.3
					c0-13.4,10.9-24.3,24.3-24.3h96.7c14,0,25.3-11.4,25.3-25.3c0-14-11.4-25.3-25.3-25.3H454c-13.4,0-24.3-10.9-24.3-24.3
					c0-14-11.4-25.3-25.3-25.3v0.5l0-0.5l-36.5,1.1c-14.3,0-24.3-9-24.3-21.8c0-13.4,10.9-24.3,24.3-24.3h24.8
					c14,0,25.3-11.4,25.3-25.3c0-14-11.4-25.3-25.3-25.3v0.5l0-0.5l-49.7,0.6c-14.8,0-24.3-8.1-24.3-20.5
					c0-13.4,10.9-24.3,24.3-24.3h181.7c14,0,25.3-11.4,25.3-25.3c0-14-11.4-25.3-25.3-25.3v0.5l0-0.5l-206.5,2.3
					c-13.4,0-24.3-10.9-24.3-24.3c0-14-11.4-25.3-25.3-25.3l-55.7-0.1c-14.3,0-24.3-9-24.3-21.8c0-13.4,10.9-24.3,24.3-24.3
					l106.8-0.1c13.9,0,25.3-11.3,25.3-25.2c1.7-11.8,12-20.8,24.3-20.8h55.8c14,0,25.3-11.4,25.3-25.3s-11.4-25.3-25.3-25.3l-55.8,0
					c-13.4,0-24.3-10.9-24.3-24.3c0-14.3,12.2-20.7,24.3-20.7h136.5c14,0,25.3-11.4,25.3-25.3s-11.4-25.3-25.3-25.3H344.5
					c-13.4,0-24.3-10.9-24.3-24.3c0-13.4,10.9-24.3,24.3-24.3l68.6,1.8l0-0.5v0.5c14.4,0,25.3-10.1,25.3-23.5
					c0-14-11.4-25.3-25.3-25.3h-24.8c-14,0-24.2-9.4-24.2-22.4c0-10.4,3.3-23.1,19.2-24.3c13.9,0,25.3-11.4,25.3-25.3
					c0-14-11.4-25.3-25.3-25.3l-71,1.9c-13.4,0-24.3-10.9-24.3-24.3c0-13.4,10.9-24.3,24.3-24.3v-0.5l0,0.5
					c0.8-0.1,76.4-6.9,228.7,3c79.4,5.2,139.6,52.4,176.1,91.1c39.6,41.9,60.7,83.1,60.9,83.5c0.4,0.9,40.9,91.8,33.4,125.3
					c-7.6,34,48.8,78.9,49.4,79.4C861,502,904,539,904,558.2z"/>
				<path class="st1" d="M286.8,881.9c14,0,25.3,11.4,25.3,25.3c0,14-11.4,25.3-25.3,25.3H188c-14,0-25.3-11.4-25.3-25.3
					c0-14,11.4-25.3,25.3-25.3H286.8z M311.1,907.2c0-13.4-10.9-24.3-24.3-24.3H188c-13.4,0-24.3,10.9-24.3,24.3
					c0,13.4,10.9,24.3,24.3,24.3h98.8C300.2,931.6,311.1,920.7,311.1,907.2z"/>
				<path class="st1" d="M286.8,882.9c13.4,0,24.3,10.9,24.3,24.3c0,13.4-10.9,24.3-24.3,24.3H188c-13.4,0-24.3-10.9-24.3-24.3
					c0-13.4,10.9-24.3,24.3-24.3H286.8z"/>
				<path class="st1" d="M268.5,405.1c14,0,25.3,11.4,25.3,25.3c0,14-11.4,25.3-25.3,25.3H167.7c-14,0-25.3-11.4-25.3-25.3
					c0-14,11.4-25.3,25.3-25.3H268.5z M292.8,430.5c0-13.4-10.9-24.3-24.3-24.3H167.7c-13.4,0-24.3,10.9-24.3,24.3
					c0,13.4,10.9,24.3,24.3,24.3h100.8C281.9,454.8,292.8,443.9,292.8,430.5z"/>
				<path class="st1" d="M268.5,406.1c13.4,0,24.3,10.9,24.3,24.3c0,13.4-10.9,24.3-24.3,24.3H167.7c-13.4,0-24.3-10.9-24.3-24.3
					c0-13.4,10.9-24.3,24.3-24.3H268.5z"/>
				<path class="st1" d="M262.5,213.8c14,0,25.3,11.4,25.3,25.3s-11.4,25.3-25.3,25.3c-14,0-25.3-11.4-25.3-25.3
					S248.5,213.8,262.5,213.8z M286.8,239.1c0-13.4-10.9-24.3-24.3-24.3c-13.4,0-24.3,10.9-24.3,24.3c0,13.4,10.9,24.3,24.3,24.3
					C275.9,263.5,286.8,252.5,286.8,239.1z"/>
				<circle class="st1" cx="262.5" cy="239.1" r="24.3"/>
				<path class="st1" d="M258.2,694.8c14,0,25.3,11.4,25.3,25.3c0,14-11.4,25.3-25.3,25.3c-14,0-25.3-11.4-25.3-25.3
					C232.9,706.1,244.2,694.8,258.2,694.8z M282.5,720.1c0-13.4-10.9-24.3-24.3-24.3c-13.4,0-24.3,10.9-24.3,24.3
					c0,13.4,10.9,24.3,24.3,24.3C271.6,744.4,282.5,733.5,282.5,720.1z"/>
				<path class="st1" d="M258.2,695.8c13.4,0,24.3,10.9,24.3,24.3c0,13.4-10.9,24.3-24.3,24.3c-13.4,0-24.3-10.9-24.3-24.3
					C233.9,706.7,244.8,695.8,258.2,695.8z"/>
				<path class="st1" d="M113.9,550.5c14,0,25.3,11.4,25.3,25.3c0,14-11.4,25.3-25.3,25.3s-25.3-11.4-25.3-25.3
					C88.6,561.9,99.9,550.5,113.9,550.5z M138.2,575.8c0-13.4-10.9-24.3-24.3-24.3c-13.4,0-24.3,10.9-24.3,24.3
					c0,13.4,10.9,24.3,24.3,24.3C127.3,600.2,138.2,589.3,138.2,575.8z"/>
				<path class="st1" d="M113.9,551.5c13.4,0,24.3,10.9,24.3,24.3c0,13.4-10.9,24.3-24.3,24.3c-13.4,0-24.3-10.9-24.3-24.3
					C89.6,562.4,100.5,551.5,113.9,551.5z"/>
				<path class="st1" d="M97.4,459.3c14,0,25.3,11.4,25.3,25.3S111.4,510,97.4,510H36.7c-14,0-25.3-11.4-25.3-25.3
					s11.4-25.3,25.3-25.3H97.4z M121.8,484.7c0-6.7-2.7-12.8-7.1-17.2c-4.4-4.4-10.5-7.1-17.2-7.1H36.7c-13.4,0-24.3,10.9-24.3,24.3
					c0,13.4,10.9,24.3,24.3,24.3h60.7C110.8,509,121.8,498.1,121.8,484.7z"/>
				<path class="st1" d="M114.6,467.5c4.4,4.4,7.1,10.5,7.1,17.2c0,13.4-10.9,24.3-24.3,24.3H36.7c-13.4,0-24.3-10.9-24.3-24.3
					c0-13.4,10.9-24.3,24.3-24.3h60.7C104.1,460.3,110.2,463.1,114.6,467.5z"/>
			</g>
			<g>
			</g>
		</g>
	</g>
</g>
<g id="Layer_4">
	<g>
		<g id="XMLID_4_">
			<g>
				<path class="st2" d="M808,646.5c14,0,25.4,11.4,25.4,25.4c0,14-11.4,25.4-25.4,25.4l-2.9-0.2c-12.5,0-22.5,8.5-24.2,19.9
					c-0.1,13-8,26.7-22.8,26.7l-42.3,0.6c-13.9,0-21.4,13.4-21.4,25.9c0,12.5,9.6,20.6,24.4,20.6l61.6,0.1c14,0,25.4,11.4,25.4,25.4
					c0,14-11.4,25.4-25.4,25.4h-31c-12.4,0-22.6,9.1-24.4,20.8c-0.1,13.9-11.4,25.3-25.4,25.3l-63.7,1.6
					c-13.5,0-24.4,10.9-24.4,24.4c0,12.8,10,21.8,24.4,21.8l71.4-0.5l-0.2,0.5h0c0,0.1-0.1,0.2-0.1,0.3c-0.2,0.3-0.3,0.7-0.5,1
					c0,0.1-0.1,0.2-0.1,0.3c0,0-0.1,0.1-0.1,0.1l-0.1-0.1c0.2-0.4,0.3-0.8,0.3-1.2l-70.6,0.5c-14.7,0-25.4-9.6-25.4-22.8
					c0-14,11.4-25.4,25.4-25.4l63.7-1.6c12.2,0,22.4-9.1,24.1-20.8c0-1.2,0.1-2.4,0.3-3.5c0,0,0,0,0,0c1.8-12.3,12.5-21.7,25.4-21.7
					h31c13.4,0,24.4-10.9,24.4-24.4c0-13.4-10.9-24.4-24.4-24.4l-61.6-0.1c-15.2,0-25.4-8.7-25.4-21.6c0-13.1,7.9-26.9,22.4-26.9
					l42.3-0.6c12.8,0,20.3-10.9,21.6-22.2h0c0-1.2,0.1-2.4,0.3-3.6c0,0,0,0,0-0.1h0c1.8-11.9,12.2-20.8,25.3-20.8l2.9,0.2
					c13.4,0,24.3-10.9,24.3-24.4c0-13.4-10.9-24.4-24.4-24.4h-89.3c-14.7,0-25.4-9.6-25.4-22.8c0-14,11.4-25.4,25.4-25.4l15.3,0.3
					c13.7,0,24.5-10.3,24.5-23.5c0-12.9-10.1-22.3-24-22.3l-10.3,0.2c-14,0-25.4-11.4-25.4-25.4c0-13.4-10.9-24.4-24.4-24.4l-15.8,0
					c-14.7,0-25.4-9.6-25.4-22.8c0-14,11.4-25.4,25.4-25.4l25.5-1.3c12.2,0,22.4-9.1,24.1-20.8c0-1.2,0.1-2.4,0.3-3.5c0,0,0,0,0,0
					c1.7-11.9,11.8-21.1,24.1-21.7v-0.6c12.2,0,22.4-9.1,24.1-20.8c0-1.2,0.1-2.4,0.3-3.5c0,0,0,0,0,0c1.8-12.3,12.5-21.7,25.4-21.7
					l19.5-3c-1.7-6.3-19.2-67.7-66-126.3c-45.4-56.8-128.6-122.5-266.8-113.2l-45-1.9l-113.4,1.3c-13.4,0-24.4,10.9-24.4,24.4
					c0,13.4,10.9,24.4,24.4,24.4l68.5-1.9l0,1l-68.5,1.9l0-0.5v0.5c-14,0-25.4-11.4-25.4-25.4c0-14,11.4-25.4,25.4-25.4l113.4-1.3
					l45,1.9c61.2-4.2,116.8,5.9,165.3,29.9c38.8,19.2,73.2,47.4,102.2,83.6C786,294,802.8,358.8,803,359.5l0.1,0.5l-20.7,3.2
					c-12.4,0-22.7,9.1-24.4,20.8c0,1.2-0.1,2.4-0.3,3.5c-1.7,11.9-11.7,21.1-23.8,21.7v0.6c-12.4,0-22.6,9.1-24.4,20.8
					c0,13.9-11.4,25.3-25.4,25.3l-25.5,1.3c-13.5,0-24.4,10.9-24.4,24.4c0,12.9,10,21.8,24.4,21.8l15.8,0c14,0,25.4,11.4,25.4,25.4
					c0,13.4,10.9,24.4,24.4,24.4l10.3-0.2c14.5,0,25,9.8,25,23.3c0,13.8-11.2,24.5-25.5,24.5l-15.3-0.3c-13.4,0-24.4,10.9-24.4,24.4
					c0,12.9,10,21.8,24.4,21.8H808z"/>
				<path class="st2" d="M808,647.5c13.4,0,24.4,10.9,24.4,24.4c0,13.4-10.9,24.4-24.3,24.4l-2.9-0.2c-13,0-23.5,8.9-25.3,20.8h0
					c0,0,0,0,0,0.1c-0.2,1.2-0.3,2.4-0.3,3.6h0c-1.3,11.4-8.8,22.2-21.6,22.2l-42.3,0.6c-14.6,0-22.4,13.9-22.4,26.9
					c0,12.9,10.2,21.6,25.4,21.6l61.6,0.1c13.4,0,24.4,10.9,24.4,24.4c0,13.4-10.9,24.4-24.4,24.4h-31c-12.9,0-23.6,9.5-25.4,21.7
					c0,0,0,0,0,0c-0.2,1.2-0.3,2.3-0.3,3.5c-1.7,11.8-11.9,20.8-24.1,20.8l-63.7,1.6c-14,0-25.4,11.4-25.4,25.4
					c0,13.2,10.7,22.8,25.4,22.8l70.6-0.5c-0.1,0.4-0.2,0.8-0.3,1.2c-0.3,0.7-0.7,1.4-1.1,2.2c-0.9,1.7-2.1,3.8-2.8,6.8
					c-0.7,2.9-1,5.9-1.3,8.8c-1.3,12-2.5,23.4-27.7,27l-237.9,2.5l0,0.5l-0.1-0.5l-73.4,0.8v0c-13.4,0-24.4-10.9-24.4-24.4
					s10.9-24.4,24.4-24.4h96.8c14,0,25.4-11.4,25.4-25.4c0-14-11.4-25.4-25.4-25.4h-6.1c-13.4,0-24.4-10.9-24.4-24.4
					c0-14-11.4-25.4-25.4-25.4v0.5l0-0.5l-36.6,1.1c-14.3,0-24.4-9-24.4-21.8c0-13.4,10.9-24.4,24.4-24.4h24.9
					c14,0,25.4-11.4,25.4-25.4c0-14-11.4-25.4-25.4-25.4v0.5l0-0.5l-49.7,0.6c-14.8,0-24.4-8.1-24.4-20.6
					c0-13.4,10.9-24.4,24.4-24.4h181.9c14,0,25.4-11.4,25.4-25.4c0-14-11.4-25.4-25.4-25.4v0.5l0-0.5l-206.8,2.3
					c-13.4,0-24.4-10.9-24.4-24.4c0-14-11.4-25.4-25.4-25.4l-55.8-0.1c-14.3,0-24.4-9-24.4-21.8c0-13.4,10.9-24.4,24.4-24.4l106.9,0
					c14,0,25.3-11.3,25.4-25.3c1.7-11.8,12-20.8,24.4-20.8h55.9c14,0,25.4-11.4,25.4-25.4c0-10.3-6.3-19.3-15.3-23.3
					c-0.1-0.1-0.3-0.1-0.4-0.2c-0.6-0.2-1.2-0.5-1.8-0.7l0.5,0c-0.2-0.1-0.4-0.2-0.6-0.3c-0.4-0.2-0.8-0.5-1.3-0.7l-6.6-0.2l-55.9,0
					c-13.4,0-24.4-10.9-24.4-24.4c0-14.3,12.2-20.7,24.4-20.7h136.6c14.2,0,25.3-11,25.3-25c0-14.2-11.3-25.7-25.3-25.7H343
					c-13.4,0-24.4-10.9-24.4-24.4c0-13.4,10.9-24.4,24.4-24.4l68.6,1.8l0-0.5v0.5c14.5,0,25.4-10.1,25.4-23.5
					c0-14-11.4-25.4-25.4-25.4h-24.9c-14,0-24.2-9.4-24.2-22.4c0-10.4,3.3-23.1,19.2-24.4c14,0,25.3-11.4,25.3-25.4
					c0-14-11.4-25.4-25.4-25.4v1h-2.6l0-1l-68.5,1.9c-13.4,0-24.4-10.9-24.4-24.4c0-13.4,10.9-24.4,24.4-24.4l113.4-1.3l45,1.9
					c138.2-9.4,221.3,56.4,266.8,113.2c46.9,58.6,64.3,120,66,126.3l-19.5,3c-12.9,0-23.6,9.5-25.4,21.7c0,0,0,0,0,0
					c-0.2,1.2-0.3,2.3-0.3,3.5c-1.7,11.8-11.9,20.8-24.1,20.8v0.6c-12.3,0.6-22.4,9.8-24.1,21.7c0,0,0,0,0,0
					c-0.2,1.2-0.3,2.3-0.3,3.5c-1.7,11.8-11.9,20.8-24.1,20.8l-25.5,1.3c-14,0-25.4,11.4-25.4,25.4c0,13.2,10.7,22.8,25.4,22.8
					l15.8,0c13.4,0,24.4,10.9,24.4,24.4c0,14,11.4,25.4,25.4,25.4l10.3-0.2c13.9,0,24,9.4,24,22.3c0,13.2-10.8,23.5-24.5,23.5
					l-15.3-0.3c-14,0-25.4,11.4-25.4,25.4c0,13.2,10.7,22.8,25.4,22.8H808z"/>
				<path class="st2" d="M706.2,937.2l0.1,0.1c-0.2,0.5-0.4,1.1-0.6,1.6c-0.1,0.3-0.2,0.7-0.4,1c-0.1,0.3-0.2,0.5-0.3,0.8
					c-0.2,0.4-0.3,0.9-0.4,1.3c-0.2,0.5-0.4,1.1-0.6,1.7c-0.3,0.8-0.6,1.7-0.8,2.7c-0.7,2.9-1,5.8-1.3,8.7
					c-1.3,12.4-2.6,24.2-28.6,27.9l-238,2.5v-0.3v-0.2v0l0-0.5l237.9-2.5c25.1-3.6,26.3-15,27.7-27c0.3-2.9,0.6-5.9,1.3-8.8
					c0.7-3,1.8-5.1,2.8-6.8C705.5,938.6,705.9,937.9,706.2,937.2z"/>
				<path class="st3" d="M267,599l-55.8-0.1c-14.7,0-25.4-9.6-25.4-22.8c0-14,11.4-25.4,25.4-25.4l106.9,0
					c12.2,0,22.4-9.1,24.1-20.8c0-1.2,0.1-2.4,0.3-3.5c0,0,0,0,0,0h0c1.8-12.3,12.5-21.7,25.4-21.7h55.9c13.4,0,24.4-10.9,24.4-24.4
					c0-12.8-9.9-23.4-22.6-24.3v0l-1.7-0.1l-55.9,0l0-0.5v0.5c-14,0-25.4-11.4-25.4-25.4c0-13,10.2-21.7,25.4-21.7h136.6
					c13.6,0,24.3-10.5,24.3-24c0-13.6-10.9-24.7-24.3-24.7H343c-14,0-25.4-11.4-25.4-25.4c0-14,11.4-25.4,25.4-25.4v0.5l0-0.5
					l68.6,1.8c14.1,0,24.3-9.5,24.3-22.5c0-13.4-10.9-24.4-24.4-24.4h-24.9c-14.6,0-25.2-9.8-25.2-23.4c0-15.6,7-24.3,20.1-25.4
					l0,0.5v-0.5c13.4,0,24.4-10.9,24.4-24.4c0-13.4-10.9-24.4-24.4-24.4v-1c14,0,25.4,11.4,25.4,25.4c0,14-11.4,25.3-25.3,25.4
					c-15.9,1.3-19.2,13.9-19.2,24.4c0,13,10.2,22.4,24.2,22.4h24.9c14,0,25.4,11.4,25.4,25.4c0,13.4-10.9,23.5-25.4,23.5v-0.5l0,0.5
					l-68.6-1.8c-13.4,0-24.4,10.9-24.4,24.4c0,13.4,10.9,24.4,24.4,24.4h161.5c14,0,25.3,11.5,25.3,25.7c0,14-11.1,25-25.3,25H367.8
					c-12.1,0-24.4,6.4-24.4,20.7c0,13.4,10.9,24.4,24.4,24.4l55.9,0l6.6,0.2c0.4,0.3,0.8,0.5,1.3,0.7c0.2,0.1,0.4,0.2,0.6,0.3
					l-0.5,0c0.6,0.2,1.2,0.4,1.8,0.7c0.1,0.1,0.3,0.1,0.4,0.2c9,3.9,15.3,12.9,15.3,23.3c0,14-11.4,25.4-25.4,25.4h-55.9
					c-12.4,0-22.6,9.1-24.4,20.8c-0.1,13.9-11.4,25.3-25.4,25.3l-106.9,0c-13.4,0-24.4,10.9-24.4,24.4c0,12.9,10,21.8,24.4,21.8
					L267,598c14,0,25.4,11.4,25.4,25.4c0,13.4,10.9,24.4,24.4,24.4l206.8-2.3l0,0.5v-0.5c14,0,25.4,11.4,25.4,25.4
					c0,14-11.4,25.4-25.4,25.4H341.5c-13.4,0-24.4,10.9-24.4,24.4c0,12.5,9.6,20.6,24.4,20.6l49.7-0.6l0,0.5v-0.5
					c14,0,25.4,11.4,25.4,25.4c0,14-11.4,25.4-25.4,25.4h-24.9c-13.4,0-24.4,10.9-24.4,24.4c0,12.9,10,21.8,24.4,21.8l36.6-1.1
					l0,0.5v-0.5c14,0,25.4,11.4,25.4,25.4c0,13.4,10.9,24.4,24.4,24.4h6.1c14,0,25.4,11.4,25.4,25.4c0,14-11.4,25.4-25.4,25.4H362
					c-13.4,0-24.4,10.9-24.4,24.4s10.9,24.4,24.4,24.4v0l73.4-0.8l0.1,0.5v0v0.2v0.3h-0.1l-73.3,0.8v0c-14,0-25.4-11.4-25.4-25.4
					c0-14,11.4-25.4,25.4-25.4h96.8c13.4,0,24.4-10.9,24.4-24.4S472.2,887,458.8,887h-6.1c-14,0-25.4-11.4-25.4-25.4
					c0-13.4-10.9-24.4-24.4-24.4l-36.6,1.1l0-0.5v0.5c-14.7,0-25.4-9.6-25.4-22.8c0-14,11.4-25.4,25.4-25.4h24.9
					c13.4,0,24.4-10.9,24.4-24.4s-10.9-24.4-24.4-24.4l-49.7,0.6c-15.2,0-25.4-8.7-25.4-21.6c0-14,11.4-25.4,25.4-25.4h181.9
					c13.4,0,24.4-10.9,24.4-24.4c0-13.4-10.9-24.4-24.4-24.4l-206.8,2.3l0-0.5v0.5c-14,0-25.4-11.4-25.4-25.4
					C291.3,610,280.4,599,267,599z"/>
			</g>
			<g>
			</g>
		</g>
	</g>
</g>
<g id="Layer_3">
	<g id="XMLID_3_">
		<g>
			<path class="st4" d="M362.4,241.4c0,13,10.2,22.4,24.2,22.4h24.9c14,0,25.4,11.4,25.4,25.3c0,13.4-10.9,23.5-25.4,23.5v-0.5
				l0,0.5l-68.6-1.8c-13.4,0-24.3,10.9-24.3,24.4c0,13.4,10.9,24.4,24.3,24.4h161.4v0c14,0,25.4,11.4,25.4,25.4
				c0,14-11.4,25.4-25.4,25.4v0H367.7c-12.1,0-24.4,6.4-24.4,20.7c0,13.4,10.9,24.4,24.4,24.4l55.8,0l6.2,0.2c0.5,0.3,1,0.5,1.5,0.7
				c0.2,0.1,0.4,0.3,0.6,0.4l-0.4,0c0.4,0.1,0.7,0.3,1.1,0.4c0.6,0.3,1.2,0.5,1.8,0.8c8.6,4.1,14.6,12.9,14.6,22.9
				c0,14-11.4,25.3-25.4,25.3h-55.8c-12.4,0-22.6,9.1-24.4,20.8c-0.1,13.9-11.4,25.3-25.3,25.3l-106.9,0
				c-13.4,0-24.3,10.9-24.3,24.3c0,12.9,10,21.8,24.3,21.8l55.8,0.1c14,0,25.4,11.4,25.4,25.4c0,13.4,10.9,24.3,24.4,24.3l206.7-2.3
				c14,0,25.3,11.4,25.3,25.4c0,14-11.4,25.3-25.3,25.3H341.4c-13.4,0-24.4,10.9-24.4,24.4c0,12.5,9.5,20.6,24.3,20.6l49.7-0.6
				l0,0.5v-0.5c14,0,25.4,11.4,25.4,25.3c0,14-11.4,25.4-25.4,25.4h-24.8c-13.4,0-24.3,10.9-24.3,24.3c0,12.9,10,21.8,24.3,21.8
				l36.6-1.1l0,0.5v-0.5c14,0,25.3,11.4,25.3,25.3c0,13.4,10.9,24.3,24.4,24.3h6.1c14,0,25.3,11.4,25.3,25.4
				c0,14-11.4,25.3-25.3,25.3h-96.7c-13.4,0-24.4,10.9-24.4,24.3c0,6.7,2.7,12.8,7.1,17.2c4.4,4.4,10.5,7.1,17.2,7.1l73.3-0.8
				l0.1,0.5v-0.5l69.7,0.2l-69.7,0.8h-0.1l-73.3,0.8c-14,0-25.4-11.4-25.4-25.3c0-14,11.4-25.3,25.4-25.3h96.7
				c13.4,0,24.3-10.9,24.3-24.3c0-13.4-10.9-24.4-24.3-24.4h-6.1c-14,0-25.4-11.4-25.4-25.3c0-13.4-10.9-24.3-24.3-24.3l-36.6,1.1
				l0-0.5v0.5c-14.7,0-25.3-9.6-25.3-22.8c0-14,11.4-25.3,25.3-25.3h24.8c13.4,0,24.4-10.9,24.4-24.4c0-13.4-10.9-24.3-24.4-24.3
				l-49.7,0.6c-15.2,0-25.4-8.7-25.4-21.6c0-14,11.4-25.4,25.4-25.4h181.8c13.4,0,24.3-10.9,24.3-24.3c0-13.4-10.9-24.4-24.3-24.4
				L316.6,649c-14,0-25.4-11.4-25.4-25.3c0-13.4-10.9-24.4-24.4-24.4l-55.8-0.1c-14.7,0-25.3-9.6-25.3-22.8
				c0-14,11.4-25.3,25.3-25.3l106.9,0c12.2,0,22.4-9,24.1-20.8c0-1.2,0.1-2.4,0.3-3.5c0,0,0,0,0,0c1.8-12.3,12.5-21.7,25.4-21.7
				h55.8c13.4,0,24.4-10.9,24.4-24.3c0-12.7-9.9-23.4-22.6-24.3v0l-1.7-0.1l-55.8,0c-14,0-25.4-11.4-25.4-25.4
				c0-13,10.2-21.7,25.4-21.7h136.5v0c13.4,0,24.4-10.9,24.4-24.4c0-13.4-10.9-24.3-24.4-24.4v0H342.9c-14,0-25.3-11.4-25.3-25.4
				c0-14,11.4-25.4,25.3-25.4v0.5l0-0.5l68.6,1.8c14.1,0,24.3-9.5,24.3-22.5c0-13.4-10.9-24.3-24.4-24.3h-24.9
				c-14.6,0-25.2-9.8-25.2-23.4c0-15.6,6.9-24.3,20.1-25.3l0,0.5V216c13.4,0,24.4-10.9,24.4-24.3c0-13.4-10.9-24.3-24.4-24.3v-1
				c14,0,25.4,11.4,25.4,25.3c0,14-11.4,25.3-25.3,25.3C365.7,218.3,362.4,231,362.4,241.4z"/>
			<path class="st4" d="M386.6,263.8c-14,0-24.2-9.4-24.2-22.4c0-10.4,3.3-23.1,19.2-24.4c14,0,25.3-11.4,25.3-25.3
				c0-14-11.4-25.3-25.4-25.3l-71,1.9c-13.4,0-24.3-10.9-24.3-24.3c0-13.4,10.9-24.4,24.3-24.4l113.4-1.3l38.5,1.6
				c-11.1,2.6-18.9,11.8-18.9,23.3c0,14,11.4,25.4,25.4,25.4l155-0.4c13.4,0,24.3,10.9,24.3,24.3c0,13.1-10.2,22.5-24.3,22.5
				l-6.5-0.1c-14,0-25.3,11.4-25.3,25.4c0,14,11.4,25.3,25.4,25.3l25.3-0.7c13.4,0,22,8.6,22,22c0,14,11.4,25.3,25.3,25.3l29.9,0.3
				c13.4,0,24.3,10.9,24.3,24.3c0,13.1-10.2,22.5-24.4,22.5l-9.2,1.8c-12.9,0-23.6,9.5-25.3,21.7c0,0,0,0,0,0
				c-0.2,1.2-0.3,2.3-0.3,3.5c-1.7,11.7-11.9,20.8-24.1,20.8l-65.6,0.5c-14.3,0-24.3,15.3-24.4,29.1c-1.7,11.7-11.9,20.8-24.1,20.8
				v0.1c-12.8,1.3-22.8,12.1-22.8,25.2c0,12.9,10.2,21.6,25.3,21.6l59.8,1.3h2.7c13.4,0,24.3,10.9,24.3,24.4
				c0,13.4-10.9,24.4-24.3,24.4l-72.2-1.6c-14,0-25.3,11.4-25.3,25.3c0,12.9,10.2,21.6,25.3,21.6l58.3-0.6c13.4,0,22,8.6,22,22
				c0,14,11.4,25.3,25.4,25.3l3.2-0.2c13.4,0,24.3,10.9,24.3,24.4c0,14,11.4,25.3,25.3,25.3h6.1c13.4,0,24.4,10.9,24.4,24.4
				c0,13.4-10.9,24.3-24.3,24.3l-46.6-1.2c-12.9,0-23.5,9.5-25.3,21.7h0c0,0,0,0,0,0c-0.2,1.2-0.3,2.4-0.3,3.5
				c-1.7,11.7-11.9,20.8-24.1,20.8l-68.4,0.6c-14,0-25.3,11.4-25.3,25.3c0,14,11.4,25.4,25.3,25.4l104.4-1.3
				c13.4,0,24.4,10.9,24.4,24.3c0,13.4-10.9,24.3-24.4,24.3h-52c-12.9,0-23.6,9.5-25.4,21.7c0,0,0,0,0,0c-0.2,1.2-0.3,2.4-0.3,3.5
				c-1.7,11.7-11.9,20.8-24.1,20.8l-30.1,0.5c-14,0-25.3,11.4-25.3,25.4c0,11.5,7.7,21.5,18.2,24.6H505l-69.7-0.2v0.5l-0.1-0.5
				l-73.3,0.8c-6.7,0-12.8-2.7-17.2-7.1c-4.4-4.4-7.1-10.5-7.1-17.2c0-13.4,10.9-24.3,24.4-24.3h96.7c14,0,25.3-11.4,25.3-25.3
				c0-14-11.4-25.4-25.3-25.4h-6.1c-13.4,0-24.4-10.9-24.4-24.3c0-14-11.4-25.3-25.3-25.3v0.5l0-0.5l-36.6,1.1
				c-14.3,0-24.3-9-24.3-21.8c0-13.4,10.9-24.3,24.3-24.3h24.8c14,0,25.4-11.4,25.4-25.4c0-14-11.4-25.3-25.4-25.3v0.5l0-0.5
				l-49.7,0.6c-14.8,0-24.3-8.1-24.3-20.6c0-13.4,10.9-24.4,24.4-24.4h181.8c14,0,25.3-11.4,25.3-25.3c0-14-11.4-25.4-25.3-25.4
				L316.6,648c-13.4,0-24.4-10.9-24.4-24.3c0-14-11.4-25.4-25.4-25.4l-55.8-0.1c-14.3,0-24.3-9-24.3-21.8
				c0-13.4,10.9-24.3,24.3-24.3l106.9,0c13.9,0,25.3-11.3,25.3-25.3c1.7-11.8,12-20.8,24.4-20.8h55.8c14,0,25.4-11.4,25.4-25.3
				c0-10-5.9-18.8-14.6-22.9c-0.6-0.2-1.2-0.5-1.8-0.8c-0.4-0.1-0.7-0.3-1.1-0.4l0.4,0c-0.2-0.1-0.4-0.3-0.6-0.4
				c-0.5-0.2-1-0.4-1.5-0.7l-6.2-0.2l-55.8,0c-13.4,0-24.4-10.9-24.4-24.4c0-14.3,12.2-20.7,24.4-20.7h136.5v0
				c14,0,25.4-11.4,25.4-25.4c0-14-11.4-25.4-25.4-25.4v0H342.9c-13.4,0-24.3-10.9-24.3-24.4c0-13.4,10.9-24.3,24.3-24.4l68.6,1.8
				l0-0.5v0.5c14.5,0,25.4-10.1,25.4-23.5c0-14-11.4-25.3-25.4-25.3H386.6z"/>
			<path class="st4" d="M644,838.7c14,0,25.4,11.4,25.4,25.3c0,14-11.4,25.3-25.4,25.3h-52c-12.4,0-22.6,9.1-24.4,20.8
				c0,13.9-11.4,25.3-25.3,25.3l-30.1,0.5c-13.4,0-24.4,10.9-24.4,24.4c0,6.7,2.7,12.8,7,17.3c4.4,4.5,10.4,7.2,17.1,7.2l-6.9,0.1
				c-10.5-3.1-18.2-13-18.2-24.6c0-14,11.4-25.4,25.3-25.4l30.1-0.5c12.2,0,22.4-9,24.1-20.8c0-1.2,0.1-2.4,0.3-3.5c0,0,0,0,0,0
				c1.8-12.3,12.5-21.7,25.4-21.7h52c13.4,0,24.4-10.9,24.4-24.3c0-13.4-10.9-24.3-24.4-24.3L539.6,841c-14,0-25.3-11.4-25.3-25.4
				c0-14,11.4-25.3,25.3-25.3l68.4-0.6c12.2,0,22.4-9,24.1-20.8c0-1.2,0.1-2.4,0.3-3.5c0,0,0,0,0,0h0c1.8-12.3,12.5-21.7,25.3-21.7
				l46.6,1.2c13.4,0,24.3-10.9,24.3-24.3c0-13.4-10.9-24.4-24.4-24.4h-6.1c-14,0-25.3-11.4-25.3-25.3c0-13.4-10.9-24.4-24.3-24.4
				l-3.2,0.2c-14,0-25.4-11.4-25.4-25.3c0-13.4-8.6-22-22-22l-58.3,0.6c-15.2,0-25.3-8.7-25.3-21.6c0-14,11.4-25.3,25.3-25.3
				l72.2,1.6c13.4,0,24.3-10.9,24.3-24.4c0-13.4-10.9-24.4-24.3-24.4h-2.7l-59.8-1.3c-15.1,0-25.3-8.7-25.3-21.6
				c0-13.1,10-24,22.8-25.2v-0.1c12.2,0,22.3-9,24.1-20.8c0-13.8,10-29.1,24.4-29.1l65.6-0.5c12.2,0,22.3-9,24.1-20.8
				c0-1.2,0.1-2.4,0.3-3.5c0,0,0,0,0,0c1.8-12.3,12.5-21.7,25.3-21.7l9.2-1.8c14.2,0,24.4-9.5,24.4-22.5c0-13.4-10.9-24.3-24.3-24.3
				l-29.9-0.3c-14,0-25.3-11.4-25.3-25.3c0-13.4-8.6-22-22-22l-25.3,0.7c-14,0-25.4-11.4-25.4-25.3c0-14,11.4-25.4,25.3-25.4
				l6.5,0.1c14.1,0,24.3-9.5,24.3-22.5c0-13.4-10.9-24.3-24.3-24.3l-155,0.4c-14,0-25.4-11.4-25.4-25.4c0-11.6,7.8-20.8,18.9-23.3
				l-38.5-1.6l-113.4,1.3c-13.4,0-24.3,10.9-24.3,24.4c0,13.4,10.9,24.3,24.3,24.3l71-1.9v1l-71,1.9l0-0.5v0.5
				c-14,0-25.3-11.4-25.3-25.3c0-14,11.4-25.4,25.3-25.4l113.4-1.3l45,1.9l0,1c-13.9,0-24.3,9.9-24.3,23.1
				c0,13.4,10.9,24.4,24.3,24.4l155-0.4c14,0,25.3,11.4,25.3,25.3c0,13.4-10.9,23.5-25.3,23.5l-6.5-0.1c-13.4,0-24.3,10.9-24.3,24.4
				c0,13.4,10.9,24.3,24.3,24.3l25.3-0.7c14,0,23,9,23,23c0,13.4,10.9,24.3,24.4,24.3l29.9,0.3c14,0,25.3,11.4,25.3,25.3
				c0,13.4-10.9,23.5-25.3,23.5l-9.2,1.8c-12.4,0-22.7,9.1-24.4,20.8c-0.1,13.9-11.4,25.2-25.3,25.2l-65.6,0.5
				c-12.2,0-21.5,12.3-23.1,24.5h0c0,13.1-10,23.9-22.8,25.2v0.1c-13.4,0-24.3,10.9-24.3,24.4c0,12.5,9.6,20.6,24.3,20.6l59.8,1.3
				h2.7c14,0,25.3,11.4,25.3,25.4c0,14-11.4,25.4-25.3,25.4l-72.2-1.6c-13.4,0-24.3,10.9-24.3,24.3c0,12.5,9.6,20.6,24.3,20.6
				l58.3-0.6c14,0,23,9,23,23c0,13.4,10.9,24.3,24.3,24.3l3.2-0.2c14,0,25.4,11.4,25.4,25.4c0,13.4,10.9,24.3,24.3,24.3h6.1
				c14,0,25.4,11.4,25.4,25.4c0,14-11.4,25.3-25.4,25.3l-46.6-1.2c-12.4,0-22.6,9.1-24.3,20.8c0,13.9-11.4,25.3-25.3,25.3l-68.4,0.6
				c-13.4,0-24.3,10.9-24.3,24.3c0,13.4,10.9,24.4,24.3,24.4L644,838.7z"/>
		</g>
		<g>
		</g>
	</g>
</g>
<g id="Layer_2">
	<g>
		<g id="XMLID_2_">
			<g>
				<path class="st1" d="M293.1,623.3c0,13.4,10.9,24.3,24.4,24.3l0.5,0v0.2v0.5c-14,0-26.6-11-26.6-25c0-13.4-9.7-24.8-23.1-24.8
					v-0.3v-0.2v-0.2C282,598.2,293.1,609.5,293.1,623.3z"/>
				<path class="st1" d="M422.1,454.8c-9.6-3.3-15.5-11.3-15.5-21.2c0-11.6,7.1-20.8,17.3-23.8h-55.3c-12.1,0-24.4,6.4-24.4,20.7
					c0,13.4,10.9,24.4,24.4,24.4L422.1,454.8z M584.6,670.6c0-13.4-10.9-24.4-24.4-24.4h-29.1c10.6,3.1,18.3,12.8,18.3,24.4
					c0,11.5-7.8,21.3-18.3,24.3h29.1C573.7,695,584.6,684.1,584.6,670.6z M410.8,962.1c0-12,8-22.4,18.6-25.6h-66.7
					c-13.4,0-24.4,10.9-24.4,24.4c0,6.7,2.7,12.8,7.1,17.2c4.4,4.4,10.5,7.1,17.2,7.1l65.9-0.7C418,981.8,410.8,973.2,410.8,962.1z
					 M506.2,886.8c-14,0-25.4-11.4-25.4-25.4c0-13.4-10.9-24.4-24.4-24.4l-7.8,1.1h0c-14.8,0-25.4-9.6-25.4-22.8
					c0-14,11.4-25.4,25.4-25.4l92.6,0.6c13.4,0,24.4-10.9,24.4-24.3s-10.9-24.4-24.4-24.4l-47.4,0.6c-14.7,0-25.4-9.6-25.4-22.8
					c0-10.8,6.8-20.1,16.4-23.7H342.3c-13.4,0-24.4,10.9-24.4,24.4c0,12.5,9.6,20.6,24.4,20.6l49.7-0.6l0,0.5v0.2l-49.2,0.6l0-0.5
					v0.5c-15.2,0-25.4-8.7-25.4-21.6c0-14,11.4-25.3,25.4-25.3h145.9c0.7,0,1.3-0.1,1.9-0.1c1.2,0,2.4,0.1,3.7,0.1h28.7h1.8
					c13.4,0,23.2-10.5,23.2-23.9s-9.7-24.8-23.2-24.8l-86.5,1v0.2c-1,0-1.9-0.1-2.8-0.2l-117.4,1.3v-0.5v-0.2l112.3-1.3
					c-10.4-3.2-17.9-12.8-17.9-24.3c0-13.4-10.9-24.4-24.4-24.4l-32.6,1.4l-0.1,0c-11.8-2.2-19.5-11-19.5-22.3
					c0-14.1,10.5-24.8,24.5-24.8h144.9c14.1,0,24.4-9.4,24.4-22.3c0-13.4-10.9-24.4-24.4-24.4l-13.5,0.6c-14,0-25.4-11.4-25.4-25.4
					c0-13.4-10.9-24.4-24.4-24.4l-9.5-0.3c10.1,3.3,17.4,12.9,17.4,24.1c0,14-11.4,25.4-25.4,25.4h-55.9c-12.4,0-22.6,9.1-24.4,20.8
					c0,7-2.9,13.3-7.5,17.9c-4.6,4.6-10.9,7.4-17.9,7.4L212,551.6c-13.4,0-24.4,10.9-24.4,24.4c0,12.8,10,21.8,24.4,21.8l55.8,0.1
					c0.2,0,0.3,0,0.5,0v0.2v0.2l0,0.3l-55.8-0.1c-14.7,0-25.4-9.6-25.4-22.8c0-7,2.8-13.3,7.4-17.9c4.6-4.6,10.9-7.4,17.9-7.4
					l106.9,0c12.2,0,22.4-9,24.1-20.8c0-1.2,0.1-2.4,0.3-3.5c0,0,0,0,0,0c1.8-12.3,12.5-21.7,25.4-21.7H425
					c13.4,0,24.4-10.9,24.4-24.4c0-12.8-9.9-23.4-22.6-24.3c0,0-0.1,0-0.1,0l-1.7-0.1l-55.9,0c-14,0-25.4-11.4-25.4-25.4
					c0-13,10.2-21.7,25.4-21.7h136.6v1h-74.1c-13.4,0-23.5,10.2-23.5,23.8c0,10.8,7.3,19.1,18.6,21.3l15.7,0.5
					c14,0,25.3,11.4,25.3,25.4c0,13.4,10.9,24.4,24.4,24.4l13.5-0.6c14,0,25.4,11.4,25.4,25.4c0,13.5-10.7,23.3-25.4,23.3H360.8
					c-13.4,0-23.5,10.2-23.5,23.8c0,10.8,7.3,19.1,18.6,21.3l32.5-1.4c14,0,25.4,11.4,25.4,25.3c0,12.5,9.5,22.8,21.6,24.2l89.3-1
					h36.1c14,0,25.4,11.4,25.4,25.3c0,14-11.4,25.4-25.4,25.4h-36.1h-1.8h-34.1c-10.8,2.5-18.9,12.2-18.9,23.7
					c0,12.9,10,21.8,24.4,21.8l47.4-0.6c14,0,25.4,11.4,25.4,25.3c0,14-11.4,25.4-25.4,25.4l-92.6-0.6c-13.4,0-24.4,10.9-24.4,24.4
					c0,12.8,10,21.8,24.4,21.8l7.8-1.1c0,0,0,0,0,0c14,0,25.4,11.4,25.4,25.3c0,13.4,10.9,24.4,24.4,24.4h6.1
					c14,0,25.3,11.4,25.3,25.4s-11.4,25.4-25.3,25.4h-76.1c-13.2,0-24.4,11.7-24.4,25.6c0,12.9,10.1,23.8,24.2,23.8l-73.3,0.3v0
					c-14.5,1.9-26.7-11.6-26.7-25.6c0-14,11.9-26,26.7-25.1H460c7.8,0,14.7-3.7,19.2-9.4c-2.6,4.3-6.5,7.6-11.7,9.4
					c-0.3,0.1-0.6,0.2-1,0.3h45.7c13.4,0,24.4-10.9,24.4-24.4c0-13.4-10.9-24.4-24.4-24.4H506.2z"/>
				<path class="st1" d="M459.5,885.8c3.7,0.3,7,1.2,9.9,2.6c-2.9-1.2-6.1-1.9-9.4-1.9h-6.1c-14,0-26.8-10.8-26.8-24.8
					c0-13.4-9.5-24.9-22.9-24.9l-0.5,0l0-0.2v-0.5c14,0,25.4,11.4,25.4,25.4c0,13.4,10.9,24.4,24.4,24.4H459.5z"/>
				<path class="st1" d="M466.3,480.7c0,14,11.4,25.4,25.4,25.4l13.5-0.6c13.4,0,24.4,10.9,24.4,24.4c0,12.9-10.3,22.3-24.4,22.3
					H360.3c-13.9,0-24.5,10.7-24.5,24.8c0,11.3,7.7,20,19.5,22.3l0.1,0l32.6-1.4c13.4,0,24.4,10.9,24.4,24.4
					c0,11.4,7.6,21.1,17.9,24.3l-112.3,1.3l-0.5,0c-13.4,0-24.4-10.9-24.4-24.3c0-13.8-11.1-25.1-24.9-25.4c-0.2,0-0.3,0-0.5,0
					l-55.8-0.1c-14.3,0-24.4-9-24.4-21.8c0-13.4,10.9-24.4,24.4-24.4l106.9-0.1c7,0,13.3-2.8,17.9-7.4c4.6-4.6,7.4-10.9,7.5-17.9
					c1.7-11.8,12-20.8,24.4-20.8h55.9c14,0,25.4-11.4,25.4-25.4c0-11.1-7.3-20.8-17.4-24.1l9.5,0.3
					C455.4,456.4,466.3,467.3,466.3,480.7z"/>
				<path class="st1" d="M367.6,837.9c-14.7,0-25.4-9.6-25.4-22.8c0-14,11.4-25.4,25.4-25.4h24.9c13.4,0,23-10.3,23-23.7
					s-9.5-25-23-25l-0.5,0v-0.2v-0.5c14,0,25.3,11.4,25.3,25.4S406,791,392,791h-24.9c-13.4,0-24.4,10.9-24.4,24.4
					c0,12.8,10,21.8,24.3,21.8l36.6-1.1l0,0.5l0,0.2L367.6,837.9v-0.4V837.9z"/>
				<path class="st1" d="M484.4,910.9c0-10.1-6.1-18.7-14.9-22.4c0,0,0,0-0.1,0c-2.9-1.4-6.2-2.3-9.9-2.6c14,0,25.4,11.4,25.4,25.4
					c0,11.2-7.3,20.7-17.3,24c5.1-1.7,9.1-5,11.7-9.4c0,0,0,0,0,0C482.5,921.7,484.4,916.5,484.4,910.9z"/>
				<path class="st1" d="M424.7,116.8c0,0,0.1,0,0.1,0c-13.2,0.3-24.3,12.1-24.3,25.3c0,13.1,10.5,23.1,24.4,23.1h32.5
					c13.9,0,24,10.1,24,24.1c0,13.4,10.9,24.4,24.4,24.4l35.4,0.9c14,0,25.3,11.4,25.3,25.4c0,14-11.4,25.4-25.4,25.4l-29.9,0.8
					c-13.5,0-24.4,10.9-24.4,24.4c0,12.7,10.1,21.6,24.7,21.6l31.4-0.9c14.1,0,23.5,9.4,23.5,23.5c0,13.4,10.9,24.4,24.3,24.4
					c14,0,25.4,11.4,25.4,25.4c0,14-11.4,25.4-25.4,25.4v0h-84.1c-0.2,0-0.4,0-0.7,0v0v-1v0h0.7c13.1-0.4,23.7-11.1,23.7-24.3
					c0-13.4-10.9-24.4-24.3-24.4H343.7c-14,0-25.3-11.4-25.3-25.4c0-14,11.4-25.4,25.3-25.4v0.5l0-0.5l68.6,1.8
					c14.1,0,24.4-9.5,24.4-22.5c0-13.4-10.9-24.4-24.4-24.4h-24.9c-14.6,0-25.2-9.8-25.2-23.4c0-15.6,7-24.3,20.1-25.4l0,0.5v-0.5
					c13.4,0,24.4-10.9,24.4-24.4c0-13.4-10.9-24.3-24.4-24.3l-71,1.9l0-0.5v0.5c-14,0-25.4-11.4-25.4-25.4s11.4-25.4,27.5-25.4
					l53.1-1.5L424.7,116.8z M615.2,384.4c0-6.7-2.7-12.8-7.1-17.2c-4.4-4.4-10.5-7.1-17.2-7.1c-14,0-25.3-11.4-25.3-25.4
					c0-13.5-9.1-22.5-22.5-22.5l-31.4,0.9c-14.9,0-25.7-9.5-25.7-22.6c0-14,11.4-25.4,25.4-25.4l29.9-0.8
					c13.4,0,24.4-10.9,24.4-24.4c0-13.4-10.9-24.4-24.4-24.4l-35.4-0.9c-14,0-25.3-11.4-25.3-25.4c0-13.4-9.7-23.1-23-23.1h-32.5
					c-14.5,0-25.4-10.3-25.4-24.1c0-11.4,7.6-21.1,18-24.3l-106.1,1.2c-13.4,0-24.4,10.9-24.4,24.4c0,13.4,10.9,24.4,24.4,24.4
					l71-1.9l0,0.5v-0.5c14,0,25.4,11.4,25.4,25.3c0,14-11.4,25.3-25.3,25.4c-15.8,1.3-19.2,13.9-19.2,24.4c0,13,10.2,22.4,24.2,22.4
					h24.9c14,0,25.4,11.4,25.4,25.4c0,13.4-10.9,23.5-25.4,23.5v-0.5l0,0.5l-68.6-1.8c-13.4,0-24.3,10.9-24.3,24.4
					c0,13.4,10.9,24.4,24.3,24.4h162.4c14,0,25.3,11.4,25.3,25.4c0,11.5-7.7,21.3-18.3,24.3h77.7v0
					C604.3,408.8,615.2,397.8,615.2,384.4z"/>
				<path class="st1" d="M608.1,367.2c4.4,4.4,7.1,10.5,7.1,17.2c0,13.4-10.9,24.4-24.4,24.4v0h-77.7c10.5-3.1,18.3-12.8,18.3-24.3
					c0-14-11.4-25.4-25.3-25.4H343.7c-13.4,0-24.3-10.9-24.3-24.4c0-13.4,10.9-24.4,24.3-24.4l68.6,1.8l0-0.5v0.5
					c14.4,0,25.4-10.1,25.4-23.5c0-14-11.4-25.4-25.4-25.4h-24.9c-14,0-24.2-9.4-24.2-22.4c0-10.4,3.3-23.1,19.2-24.4
					c14,0,25.3-11.4,25.3-25.4c0-14-11.4-25.3-25.4-25.3v0.5l0-0.5l-71,1.9c-13.4,0-24.4-10.9-24.4-24.4c0-13.4,10.9-24.4,24.4-24.4
					l106.1-1.2c-10.4,3.2-18,12.8-18,24.3c0,13.7,10.9,24.1,25.4,24.1h32.5c13.4,0,23,9.7,23,23.1c0,14,11.4,25.4,25.3,25.4
					l35.4,0.9c13.4,0,24.4,10.9,24.4,24.4c0,13.4-10.9,24.4-24.4,24.4l-29.9,0.8c-14,0-25.4,11.4-25.4,25.4
					c0,13.1,10.8,22.6,25.7,22.6l31.4-0.9c13.5,0,22.5,9,22.5,22.5c0,14,11.4,25.4,25.3,25.4C597.6,360,603.7,362.8,608.1,367.2z"/>
				<path class="st1" d="M560.3,646.3c13.4,0,24.4,10.9,24.4,24.4S573.7,695,560.3,695h-29.1c10.6-3,18.3-12.8,18.3-24.3
					c0-11.5-7.8-21.3-18.3-24.4H560.3z"/>
				<path class="st1" d="M541.2,741.9c13.4,0,24.4,10.9,24.4,24.4s-10.9,24.3-24.4,24.3l-92.6-0.6c-14,0-25.4,11.4-25.4,25.4
					c0,13.2,10.6,22.8,25.4,22.8h0l7.8-1.1c13.4,0,24.4,10.9,24.4,24.4c0,14,11.4,25.4,25.4,25.4h6.1c13.4,0,24.4,10.9,24.4,24.4
					c0,13.4-10.9,24.4-24.4,24.4h-45.7c0.3-0.1,0.7-0.2,1-0.3c10.1-3.4,17.3-12.9,17.3-24c0-14-11.4-25.4-25.4-25.4h-6.1
					c-13.4,0-24.4-10.9-24.4-24.4c0-14-11.4-25.4-25.4-25.4v0.5l0-0.5l-36.6,1.1c-14.3,0-24.3-9-24.3-21.8
					c0-13.4,10.9-24.4,24.4-24.4H392c14,0,25.3-11.4,25.3-25.4S406,740.3,392,740.3v0.5l0-0.5l-49.7,0.6c-14.8,0-24.4-8.1-24.4-20.6
					c0-13.4,10.9-24.4,24.4-24.4h142.5c-9.6,3.6-16.4,12.9-16.4,23.7c0,13.2,10.7,22.8,25.4,22.8L541.2,741.9z"/>
				<path class="st1" d="M479.2,925.8c2.4-4,3.7-9,3.7-14.4c0-10.4-5-18.9-13.5-23c8.7,3.7,14.9,12.4,14.9,22.4
					C484.4,916.5,482.5,921.7,479.2,925.8z"/>
				<path class="st1" d="M362.8,936.5h66.7c-10.6,3.2-18.6,13.6-18.6,25.6c0,11.1,7.2,19.6,17.9,22.3l-65.9,0.7
					c-6.7,0-12.8-2.7-17.2-7.1c-4.4-4.4-7.1-10.5-7.1-17.2C338.4,947.5,349.3,936.5,362.8,936.5z"/>
				<path class="st1" d="M368.6,409.8h55.3c-10.2,3-17.3,12.2-17.3,23.8c0,10,6,17.9,15.5,21.2l-53.5,0c-13.4,0-24.4-10.9-24.4-24.4
					C344.2,416.1,356.5,409.8,368.6,409.8z"/>
			</g>
			<g>
			</g>
		</g>
	</g>
</g>
<g id="Layer_5">
	<text transform="matrix(0.7575 0 0 1 956.5054 561.031)" class="st5 st6 st7 st8">bluedeck techno</text>
	<rect x="924.9" y="206.9" class="st9" width="1905.2" height="90"/>
	<text transform="matrix(1 0 0 1 977.333 735.0469)" class="st10 st11 st12 st13">VALUES AND INTELLECT</text>
</g>
</svg>
