<?xml version="1.0" encoding="utf-8"?>
<!-- Generator: Adobe Illustrator 22.0.0, SVG Export Plug-In . SVG Version: 6.00 Build 0)  -->
<svg version="1.1" id="Layer_1" xmlns="http://www.w3.org/2000/svg" xmlns:xlink="http://www.w3.org/1999/xlink" x="0px" y="0px"
	 viewBox="0 0 864 864" style="enable-background:new 0 0 864 864;" xml:space="preserve">
<style type="text/css">
	.st0{fill:#97C6D4;}
	.st1{fill:#1A5072;}
	.st2{fill:#5FA6B7;}
	.st3{fill:#4DB8C4;}
	.st4{fill:#1188A2;}
</style>
<g>
	<g id="XMLID_1_">
		<g>
			<path class="st0" d="M723.9,733.6c-35.3,5-63.5,31.8-70.2,66.7c-0.4,2-0.5,3.7-0.7,5.3c-0.1,1.6-0.3,3.3-0.7,5.3
				c0,0.1-1.5,5.4-6.3,9.9c-4,3.7-9.4,5.8-15,5.8h0v0.9H630l0-0.9l-284.5,3.2c-12.3,0-22.2-10-22.2-22.2s10-22.2,22.2-22.2h88.3
				c12.8,0,23.1-10.4,23.1-23.1c0-12.7-10.4-23.1-23.1-23.1h-5.5c-12.3,0-22.2-10-22.2-22.2c0-12.8-10.4-23.1-23.1-23.1v0.5l0-0.5
				l-33.4,1c-13.1,0-22.2-8.2-22.2-19.9c0-12.3,10-22.2,22.2-22.2h22.7c12.7,0,23.1-10.4,23.1-23.1c0-12.7-10.4-23.1-23.1-23.1v0.5
				l0-0.5l-45.3,0.6c-13.5,0-22.2-7.4-22.2-18.8c0-12.2,10-22.2,22.2-22.2h165.9c12.8,0,23.1-10.4,23.1-23.1
				c0-12.8-10.4-23.1-23.1-23.1v0.5l0-0.5l-188.6,2.1c-12.3,0-22.2-10-22.2-22.2c0-12.8-10.4-23.1-23.1-23.1l-50.9-0.1
				c-13.1,0-22.2-8.2-22.2-19.9c0-12.3,10-22.2,22.2-22.2l97.5-0.1c12.7,0,23.1-10.3,23.1-23c1.6-10.7,10.9-19,22.2-19h51
				c12.7,0,23.1-10.4,23.1-23.1s-10.4-23.1-23.1-23.1l-51,0c-12.3,0-22.2-10-22.2-22.2c0-13,11.2-18.9,22.2-18.9h124.6
				c12.8,0,23.1-10.4,23.1-23.1c0-12.8-10.4-23.1-23.1-23.1H328.1c-12.3,0-22.2-10-22.2-22.2c0-12.2,10-22.2,22.2-22.2l62.6,1.7
				l0-0.5v0.5c13.2,0,23.1-9.2,23.1-21.5c0-12.8-10.4-23.1-23.1-23.1h-22.7c-12.8,0-22.1-8.6-22.1-20.4c0-9.5,3-21.1,17.5-22.2
				c12.7,0,23.1-10.4,23.1-23.1c0-12.8-10.4-23.1-23.1-23.1l-64.8,1.8c-12.2,0-22.2-10-22.2-22.2c0-12.3,10-22.2,22.2-22.2v-0.5
				l0,0.5c0.7-0.1,69.8-6.3,208.8,2.8c72.5,4.8,127.5,47.8,160.8,83.2c36.1,38.3,55.4,75.9,55.6,76.3c0.4,0.8,37.3,83.8,30.5,114.4
				c-6.9,31.1,44.6,72.1,45.1,72.5c0.4,0.3,39.6,34.1,39.6,51.6c0,13.3-12.3,16.7-23.1,19.7c-3.3,0.9-6.4,1.8-8.9,2.9
				c-10.7,4.7-4.9,21.2-4.8,21.3l0.1,0.2l0.3,0c0.1,0,3.6,1.2,11.9,19.3c8.5,18.4-3.6,24.5-4.1,24.8l-0.1,0.1l-10.2,13.8
				c-0.2,0.2-4.7,4.5-3.9,8.1c0.4,1.7,1.7,2.9,4.1,3.7c8.1,2.7,13.6,13.7,14.1,14.7c0.1,1.1,1.2,14.3-7.9,18.8
				c-10,5-5.6,31.4-5.4,32.6c11.9,31.8,10.7,52.5,9.6,60.3h-0.6c0,29.2-23.8,53-53,53C757.1,733.6,736.3,733.6,723.9,733.6z"/>
			<path class="st1" d="M275.5,736.9c12.3,0,22.2,10,22.2,22.2c0,12.3-10,22.2-22.2,22.2h-90.2c-12.3,0-22.2-10-22.2-22.2
				c0-12.2,10-22.2,22.2-22.2H275.5z"/>
			<path class="st1" d="M258.8,301.5c12.2,0,22.2,10,22.2,22.2c0,12.2-10,22.2-22.2,22.2h-92c-12.3,0-22.2-10-22.2-22.2
				c0-12.3,10-22.2,22.2-22.2H258.8z"/>
			<circle class="st1" cx="253.3" cy="149" r="22.2"/>
			<path class="st1" d="M249.4,566c12.2,0,22.2,10,22.2,22.2c0,12.3-10,22.2-22.2,22.2c-12.3,0-22.2-10-22.2-22.2
				C227.1,576,237.1,566,249.4,566z"/>
			<path class="st1" d="M253.3,171.2c12.3,0,22.2-10,22.2-22.2c0-12.2-10-22.2-22.2-22.2c-12.2,0-22.2,10-22.2,22.2
				C231,161.3,241,171.2,253.3,171.2z M276.4,149c0,12.8-10.4,23.1-23.1,23.1s-23.1-10.4-23.1-23.1c0-12.8,10.4-23.1,23.1-23.1
				S276.4,136.3,276.4,149z"/>
			<path class="st1" d="M272.5,588.2c0,12.8-10.4,23.1-23.1,23.1c-12.8,0-23.1-10.4-23.1-23.1c0-12.7,10.4-23.1,23.1-23.1
				C262.1,565.1,272.5,575.5,272.5,588.2z M249.4,610.5c12.2,0,22.2-10,22.2-22.2c0-12.2-10-22.2-22.2-22.2
				c-12.3,0-22.2,10-22.2,22.2C227.1,600.5,237.1,610.5,249.4,610.5z"/>
			<path class="st0" d="M723.8,201.9c-0.2-0.4-19.4-38-55.6-76.3C634.9,90.3,580,47.2,507.4,42.4c-139-9.1-208.1-2.8-208.8-2.8
				l0-0.5v0.5c-12.3,0-22.2,10-22.2,22.2c0,12.2,10,22.2,22.2,22.2l64.8-1.8c12.8,0,23.1,10.4,23.1,23.1c0,12.7-10.4,23.1-23.1,23.1
				c-14.5,1.1-17.5,12.7-17.5,22.2c0,11.8,9.3,20.4,22.1,20.4h22.7c12.8,0,23.1,10.4,23.1,23.1c0,12.2-9.9,21.5-23.1,21.5v-0.5
				l0,0.5l-62.6-1.7c-12.2,0-22.2,10-22.2,22.2c0,12.3,10,22.2,22.2,22.2h147.3c12.8,0,23.1,10.4,23.1,23.1
				c0,12.8-10.4,23.1-23.1,23.1H350.8c-11.1,0-22.2,5.8-22.2,18.9c0,12.2,10,22.2,22.2,22.2l51,0c12.7,0,23.1,10.4,23.1,23.1
				s-10.4,23.1-23.1,23.1h-51c-11.3,0-20.6,8.3-22.2,19c0,12.7-10.4,23-23.1,23l-97.5,0.1c-12.3,0-22.2,10-22.2,22.2
				c0,11.7,9.1,19.9,22.2,19.9l50.9,0.1c12.8,0,23.1,10.4,23.1,23.1c0,12.3,10,22.2,22.2,22.2l188.6-2.1l0,0.5v-0.5
				c12.8,0,23.1,10.4,23.1,23.1c0,12.8-10.4,23.1-23.1,23.1H326.8c-12.3,0-22.2,10-22.2,22.2c0,11.4,8.7,18.8,22.2,18.8l45.3-0.6
				l0,0.5v-0.5c12.7,0,23.1,10.4,23.1,23.1c0,12.8-10.4,23.1-23.1,23.1h-22.7c-12.2,0-22.2,10-22.2,22.2c0,11.7,9.1,19.9,22.2,19.9
				l33.4-1l0,0.5v-0.5c12.8,0,23.1,10.4,23.1,23.1c0,12.3,10,22.2,22.2,22.2h5.5c12.8,0,23.1,10.4,23.1,23.1
				c0,12.8-10.4,23.1-23.1,23.1h-88.3c-12.3,0-22.2,10-22.2,22.2s10,22.2,22.2,22.2l284.5-3.2l0,0.9l-284.5,3.2l0-0.5v0.5
				c-12.8,0-23.1-10.4-23.1-23.1c0-12.8,10.4-23.1,23.1-23.1h88.3c12.3,0,22.2-10,22.2-22.2c0-12.2-10-22.2-22.2-22.2h-5.5
				c-12.8,0-23.1-10.4-23.1-23.1c0-12.3-10-22.2-22.2-22.2l-33.4,1l0-0.5v0.5c-13.4,0-23.1-8.8-23.1-20.8
				c0-12.8,10.4-23.1,23.1-23.1h22.7c12.2,0,22.2-10,22.2-22.2c0-12.2-10-22.2-22.2-22.2l-45.3,0.6l0-0.5v0.5
				c-13.8,0-23.1-7.9-23.1-19.7c0-12.7,10.4-23.1,23.1-23.1h165.9c12.3,0,22.2-10,22.2-22.2s-10-22.2-22.2-22.2l-188.6,2.1
				c-12.8,0-23.1-10.4-23.1-23.1c0-12.2-10-22.2-22.2-22.2l-50.9-0.1c-13.4,0-23.1-8.8-23.1-20.8c0-12.8,10.4-23.1,23.1-23.1
				l97.5-0.1c11.1,0,20.4-8.2,22-19c0-1.1,0.1-2.2,0.2-3.2c0,0,0,0,0,0c1.6-11.2,11.4-19.8,23.1-19.8h51c12.2,0,22.2-10,22.2-22.2
				s-10-22.2-22.2-22.2l-51,0c-12.8,0-23.1-10.4-23.1-23.1c0-11.8,9.3-19.8,23.1-19.8h124.6c12.2,0,22.2-10,22.2-22.2
				s-10-22.2-22.2-22.2H328.1c-12.8,0-23.1-10.4-23.1-23.1c0-12.7,10.4-23.1,23.1-23.1v0.5l0-0.5l62.6,1.7
				c12.9,0,22.2-8.6,22.2-20.5c0-12.3-10-22.2-22.2-22.2h-22.7c-13.3,0-23-9-23-21.3c0-14.2,6.3-22.2,18.3-23.1l0,0.5v-0.5
				c12.3,0,22.2-10,22.2-22.2s-10-22.2-22.2-22.2L298.6,85l0-0.5V85c-12.8,0-23.1-10.4-23.1-23.1c0-12.7,10.4-23.1,23.1-23.1
				c1-0.1,71.2-5.3,208.9,2.8c32.2,1.9,63.6,11.8,93.4,28.9c23.9,13.7,46.7,32,68,54.5c36.2,38.4,55.5,76.1,55.7,76.5
				c0.4,0.9,37.5,84.1,30.6,115c-6.8,30.5,44.3,71.1,44.8,71.5c1.6,1.4,40,34.4,40,52.3c0,14-13.2,17.7-23.8,20.6
				c-3.3,0.9-6.4,1.8-8.8,2.8c-9.3,4.1-5,18.2-4.4,20c1.1,0.5,4.7,3.4,12.3,19.8c8.4,18.3-3.2,25.2-4.4,25.9l-10.1,13.7
				c-0.1,0.1-4.4,4.2-3.7,7.3c0.3,1.3,1.5,2.3,3.5,3c8.8,2.9,14.4,14.7,14.6,15.2l0,0.1c0,0.2,1.7,14.8-8.4,19.8
				c-9.4,4.7-5,31.2-4.9,31.5c15.1,40.4,9.2,63.2,8.9,64.2c-1.9,28-25.3,50.2-53.7,50.2c0,0-20.8,0-33.1,0
				c-34.8,4.9-62.7,31.4-69.4,66c-0.4,2-0.5,3.6-0.6,5.2c-0.1,1.6-0.3,3.4-0.7,5.5c-0.1,0.3-1.5,5.7-6.5,10.3c-4.1,3.8-9.8,6-15.6,6
				h0v-0.9h0c5.5,0,11-2.1,15-5.8c4.8-4.5,6.3-9.8,6.3-9.9c0.4-2,0.5-3.7,0.7-5.3c0.1-1.6,0.3-3.3,0.7-5.3c6.7-35,35-61.8,70.2-66.7
				c12.4,0,33.2,0,33.2,0c29.2,0,53-23.8,53-53h0.6c1.2-7.8,2.3-28.5-9.6-60.3c-0.2-1.2-4.6-27.6,5.4-32.6c9.1-4.5,8-17.7,7.9-18.8
				c-0.5-1-6-12-14.1-14.7c-2.3-0.8-3.7-2-4.1-3.7c-0.8-3.7,3.7-8,3.9-8.1l10.2-13.8l0.1-0.1c0.5-0.2,12.6-6.4,4.1-24.8
				c-8.4-18.1-11.8-19.3-11.9-19.3l-0.3,0l-0.1-0.2c-0.1-0.2-5.9-16.6,4.8-21.3c2.5-1.1,5.6-2,8.9-2.9c10.8-3,23.1-6.4,23.1-19.7
				c0-17.5-39.2-51.3-39.6-51.6c-0.5-0.4-52-41.4-45.1-72.5C761.2,285.7,724.2,202.7,723.8,201.9z"/>
			<path class="st1" d="M297.7,759.1c0-12.2-10-22.2-22.2-22.2h-90.2c-12.3,0-22.2,10-22.2,22.2c0,12.3,10,22.2,22.2,22.2h90.2
				C287.7,781.3,297.7,771.4,297.7,759.1z M298.6,759.1c0,12.8-10.4,23.1-23.1,23.1h-90.2c-12.8,0-23.1-10.4-23.1-23.1
				c0-12.7,10.4-23.1,23.1-23.1h90.2C288.2,736,298.6,746.4,298.6,759.1z"/>
			<path class="st1" d="M281,323.7c0-12.3-10-22.2-22.2-22.2h-92c-12.3,0-22.2,10-22.2,22.2c0,12.2,10,22.2,22.2,22.2h92
				C271,346,281,336,281,323.7z M258.8,300.6c12.7,0,23.1,10.4,23.1,23.1c0,12.7-10.4,23.1-23.1,23.1h-92
				c-12.8,0-23.1-10.4-23.1-23.1c0-12.8,10.4-23.1,23.1-23.1H258.8z"/>
			<path class="st1" d="M117.6,434.3c12.2,0,22.2,10,22.2,22.2s-10,22.2-22.2,22.2c-12.3,0-22.2-10-22.2-22.2
				S105.3,434.3,117.6,434.3z"/>
			<path class="st1" d="M118.3,357.5c4,4,6.5,9.6,6.5,15.7c0,12.3-10,22.2-22.2,22.2H47.1c-12.3,0-22.2-10-22.2-22.2
				c0-12.2,10-22.2,22.2-22.2h55.4C108.7,351,114.2,353.5,118.3,357.5z"/>
			<path class="st1" d="M117.6,434.3c-12.3,0-22.2,10-22.2,22.2s10,22.2,22.2,22.2c12.2,0,22.2-10,22.2-22.2
				S129.8,434.3,117.6,434.3z M94.5,456.5c0-12.8,10.4-23.1,23.1-23.1s23.1,10.4,23.1,23.1s-10.4,23.1-23.1,23.1
				S94.5,469.3,94.5,456.5z"/>
			<path class="st1" d="M47.1,351c-12.3,0-22.2,10-22.2,22.2c0,12.3,10,22.2,22.2,22.2h55.4c12.3,0,22.2-10,22.2-22.2
				c0-6.1-2.5-11.7-6.5-15.7c-4-4-9.6-6.5-15.7-6.5H47.1z M47.1,396.4C34.4,396.4,24,386,24,373.2s10.4-23.1,23.1-23.1h55.4
				c12.8,0,23.1,10.4,23.1,23.1s-10.4,23.1-23.1,23.1H47.1z"/>
		</g>
		<g>
		</g>
	</g>
</g>
<g>
	<g id="XMLID_4_">
		<g>
			<path class="st2" d="M751.5,521c12.8,0,23.2,10.4,23.2,23.2s-10.4,23.2-23.2,23.2l-2.6-0.2c-11.4,0-20.5,7.8-22.1,18.2
				c-0.1,11.9-7.4,24.4-20.8,24.4l-38.7,0.6c-12.7,0-19.6,12.2-19.6,23.7c0,11.4,8.7,18.8,22.2,18.8l56.2,0.1
				c12.8,0,23.2,10.4,23.2,23.2c0,12.8-10.4,23.2-23.2,23.2h-28.3c-11.3,0-20.7,8.3-22.2,19c-0.1,12.7-10.4,23.1-23.2,23.1
				l-58.1,1.5c-12.3,0-22.3,10-22.3,22.3c0,11.7,9.1,19.9,22.3,19.9l65.2-0.5l-0.2,0.4h0c0,0.1-0.1,0.2-0.1,0.3
				c-0.2,0.3-0.3,0.6-0.4,1c0,0.1-0.1,0.2-0.1,0.2c0,0,0,0.1-0.1,0.1l-0.1-0.1c0.1-0.4,0.2-0.7,0.3-1.1l-64.5,0.5
				c-13.4,0-23.2-8.8-23.2-20.8c0-12.8,10.4-23.2,23.2-23.2l58.1-1.5c11.2,0,20.4-8.3,22-19c0-1.1,0.1-2.2,0.2-3.2c0,0,0,0,0,0
				c1.6-11.2,11.4-19.8,23.2-19.8h28.3c12.3,0,22.2-10,22.2-22.2c0-12.3-10-22.2-22.2-22.2l-56.2-0.1c-13.9,0-23.2-7.9-23.2-19.7
				c0-11.9,7.2-24.6,20.5-24.6l38.7-0.6c11.7,0,18.5-9.9,19.8-20.3h0c0-1.1,0.1-2.2,0.2-3.3c0,0,0,0,0-0.1h0
				c1.6-10.9,11.2-19,23.1-19l2.6,0.2c12.2,0,22.2-10,22.2-22.2c0-12.3-10-22.2-22.2-22.2h-81.6c-13.4,0-23.2-8.8-23.2-20.9
				c0-12.8,10.4-23.2,23.2-23.2l14,0.3c12.5,0,22.3-9.4,22.3-21.5c0-11.8-9.2-20.3-21.9-20.3l-9.4,0.2c-12.8,0-23.2-10.4-23.2-23.2
				c0-12.3-10-22.2-22.2-22.2l-14.4,0c-13.4,0-23.2-8.8-23.2-20.9c0-12.8,10.4-23.2,23.2-23.2l23.3-1.1c11.2,0,20.4-8.3,22-19
				c0-1.1,0.1-2.2,0.2-3.2c0,0,0,0,0,0c1.6-10.8,10.8-19.3,22-19.8v-0.5c11.2,0,20.4-8.3,22-19c0-1.1,0.1-2.2,0.2-3.2c0,0,0,0,0,0
				c1.6-11.2,11.4-19.8,23.2-19.8l17.8-2.7c-1.6-5.8-17.5-61.8-60.3-115.4C644,91.4,568.1,31.4,441.9,40l-41.1-1.7l-103.6,1.2
				c-12.3,0-22.3,10-22.3,22.2s10,22.2,22.2,22.2l62.5-1.8l0,0.9l-62.5,1.8l0-0.5v0.5c-12.8,0-23.2-10.4-23.2-23.2
				c0-12.8,10.4-23.2,23.2-23.2l103.6-1.2l41.1,1.7c55.8-3.8,106.7,5.4,151,27.3c35.5,17.6,66.9,43.2,93.4,76.4
				c45.1,56.4,60.4,115.6,60.6,116.2l0.1,0.5l-18.9,2.9c-11.4,0-20.7,8.3-22.3,19c0,1.1-0.1,2.2-0.2,3.2
				c-1.6,10.8-10.6,19.3-21.8,19.8v0.5c-11.3,0-20.7,8.3-22.3,19c0,12.7-10.4,23.1-23.1,23.1l-23.3,1.1c-12.3,0-22.3,10-22.3,22.2
				c0,11.7,9.1,19.9,22.2,19.9l14.4,0c12.8,0,23.2,10.4,23.2,23.2c0,12.3,10,22.2,22.2,22.2l9.4-0.2c13.2,0,22.8,8.9,22.8,21.2
				c0,12.6-10.2,22.4-23.3,22.4l-14-0.3c-12.3,0-22.2,10-22.2,22.2c0,11.7,9.1,19.9,22.2,19.9H751.5z"/>
			<path class="st2" d="M751.5,521.9c12.3,0,22.2,10,22.2,22.2c0,12.3-10,22.2-22.2,22.2l-2.6-0.2c-11.9,0-21.4,8.1-23.1,19h0
				c0,0,0,0,0,0.1c-0.2,1.1-0.2,2.2-0.2,3.3h0c-1.2,10.4-8,20.3-19.8,20.3l-38.7,0.6c-13.3,0-20.5,12.7-20.5,24.6
				c0,11.8,9.3,19.7,23.2,19.7l56.2,0.1c12.3,0,22.2,10,22.2,22.2c0,12.3-10,22.2-22.2,22.2h-28.3c-11.8,0-21.5,8.6-23.2,19.8
				c0,0,0,0,0,0c-0.2,1.1-0.2,2.1-0.2,3.2c-1.6,10.7-10.8,19-22,19l-58.1,1.5c-12.8,0-23.2,10.4-23.2,23.2
				c0,12.1,9.7,20.8,23.2,20.8l64.5-0.5c-0.1,0.4-0.2,0.7-0.3,1.1c-0.2,0.6-0.6,1.3-1,2c-0.8,1.6-1.9,3.5-2.5,6.2
				c-0.6,2.7-0.9,5.4-1.2,8.1c-1.2,11-2.3,21.4-25.2,24.7l-217.3,2.3l0,0.4l-0.1-0.4l-67,0.7v0c-12.3,0-22.2-10-22.2-22.3
				c0-12.3,10-22.2,22.2-22.2h88.4c12.8,0,23.2-10.4,23.2-23.2c0-12.8-10.4-23.2-23.2-23.2H427c-12.3,0-22.2-10-22.2-22.2
				c0-12.8-10.4-23.2-23.2-23.2v0.5l0-0.5l-33.4,1c-13.1,0-22.2-8.2-22.2-19.9c0-12.3,10-22.2,22.2-22.2h22.7
				c12.8,0,23.2-10.4,23.2-23.2s-10.4-23.2-23.2-23.2v0.5l0-0.5l-45.4,0.6c-13.5,0-22.2-7.4-22.2-18.8c0-12.3,10-22.2,22.3-22.2
				h166.1c12.8,0,23.2-10.4,23.2-23.2c0-12.8-10.4-23.2-23.2-23.2v0.5l0-0.5l-188.8,2.1c-12.3,0-22.2-10-22.2-22.2
				c0-12.8-10.4-23.2-23.2-23.2l-50.9-0.1c-13.1,0-22.2-8.2-22.2-19.9c0-12.3,10-22.2,22.2-22.2l97.7,0c12.7,0,23.1-10.3,23.2-23.1
				c1.6-10.7,11-19,22.2-19h51c12.8,0,23.2-10.4,23.2-23.2c0-9.4-5.7-17.7-14-21.2c-0.1-0.1-0.2-0.1-0.4-0.2
				c-0.5-0.2-1.1-0.4-1.6-0.6l0.5,0c-0.2-0.1-0.3-0.2-0.5-0.3c-0.4-0.2-0.8-0.4-1.1-0.7l-6-0.2l-51,0c-12.3,0-22.2-10-22.2-22.2
				c0-13,11.2-18.9,22.2-18.9h124.7c12.9,0,23.1-10,23.1-22.8c0-12.9-10.4-23.5-23.1-23.5H326.8c-12.3,0-22.2-10-22.2-22.3
				c0-12.3,10-22.2,22.2-22.2l62.7,1.7l0-0.5v0.5c13.2,0,23.2-9.2,23.2-21.5c0-12.8-10.4-23.2-23.2-23.2h-22.7
				c-12.8,0-22.1-8.6-22.1-20.5c0-9.5,3-21.1,17.5-22.2c12.8,0,23.1-10.4,23.1-23.2c0-12.8-10.4-23.2-23.2-23.2V83h-2.4l0-0.9
				l-62.5,1.8c-12.3,0-22.2-10-22.2-22.2s10-22.2,22.3-22.2l103.6-1.2l41.1,1.7C568.1,31.4,644,91.4,685.5,143.3
				c42.8,53.5,58.7,109.6,60.3,115.4l-17.8,2.7c-11.8,0-21.5,8.6-23.2,19.8c0,0,0,0,0,0c-0.1,1.1-0.2,2.1-0.2,3.2
				c-1.6,10.7-10.8,19-22,19v0.5c-11.2,0.5-20.4,9-22,19.8c0,0,0,0,0,0c-0.2,1.1-0.2,2.1-0.2,3.2c-1.6,10.7-10.8,19-22,19l-23.3,1.1
				c-12.8,0-23.2,10.4-23.2,23.2c0,12.1,9.7,20.9,23.2,20.9l14.4,0c12.3,0,22.2,10,22.2,22.2c0,12.8,10.4,23.2,23.2,23.2l9.4-0.2
				c12.7,0,21.9,8.5,21.9,20.3c0,12-9.8,21.5-22.3,21.5l-14-0.3c-12.8,0-23.2,10.4-23.2,23.2c0,12.1,9.7,20.9,23.2,20.9H751.5z"/>
			<path class="st2" d="M658.5,786.5l0.1,0.1c-0.2,0.5-0.4,1-0.5,1.5c-0.1,0.3-0.2,0.6-0.3,0.9c-0.1,0.2-0.2,0.5-0.2,0.7
				c-0.2,0.4-0.3,0.8-0.4,1.2c-0.2,0.5-0.4,1-0.5,1.6c-0.3,0.7-0.5,1.6-0.8,2.5c-0.6,2.6-0.9,5.3-1.2,7.9
				c-1.2,11.4-2.4,22.1-26.1,25.5l-217.3,2.3v-0.2v-0.2v0l0-0.4l217.3-2.3c22.9-3.3,24.1-13.7,25.2-24.7c0.3-2.6,0.6-5.4,1.2-8.1
				c0.6-2.7,1.7-4.7,2.5-6.2C657.8,787.8,658.2,787.1,658.5,786.5z"/>
			<path class="st3" d="M206.4,434.5c-12.3,0-22.2,10-22.2,22.2c0,11.7,9.1,19.9,22.2,19.9l50.9,0.1c12.8,0,23.2,10.4,23.2,23.2
				c0,12.3,10,22.2,22.2,22.2l188.8-2.1l0,0.5V520c12.8,0,23.2,10.4,23.2,23.2c0,12.8-10.4,23.2-23.2,23.2H325.5
				c-12.3,0-22.3,10-22.3,22.2c0,11.4,8.7,18.8,22.2,18.8l45.4-0.6l0,0.5v-0.5c12.8,0,23.2,10.4,23.2,23.2s-10.4,23.2-23.2,23.2
				h-22.7c-12.3,0-22.2,10-22.2,22.2c0,11.7,9.1,19.9,22.2,19.9l33.4-1l0,0.5v-0.5c12.8,0,23.2,10.4,23.2,23.2
				c0,12.3,10,22.2,22.2,22.2h5.5c12.8,0,23.2,10.4,23.2,23.2c0,12.8-10.4,23.2-23.2,23.2h-88.4c-12.3,0-22.2,10-22.2,22.2
				c0,12.3,10,22.2,22.2,22.3v0l67-0.7l0.1,0.4v0v0.2v0.2h-0.1l-67,0.7v0c-12.8,0-23.2-10.4-23.2-23.2c0-12.8,10.4-23.2,23.2-23.2
				h88.4c12.3,0,22.3-10,22.3-22.2s-10-22.2-22.3-22.2H427c-12.8,0-23.2-10.4-23.2-23.2c0-12.3-10-22.2-22.2-22.2l-33.4,1l0-0.5v0.5
				c-13.4,0-23.2-8.8-23.2-20.9c0-12.8,10.4-23.2,23.2-23.2h22.7c12.3,0,22.2-10,22.2-22.2c0-12.3-10-22.2-22.2-22.2l-45.4,0.6
				c-13.9,0-23.2-7.9-23.2-19.7c0-12.8,10.4-23.2,23.2-23.2h166.1c12.3,0,22.2-10,22.2-22.3c0-12.3-10-22.2-22.2-22.2l-188.8,2.1
				l0-0.5v0.5c-12.8,0-23.2-10.4-23.2-23.2c0-12.3-10-22.2-22.2-22.2l-50.9-0.1c-13.4,0-23.2-8.8-23.2-20.9
				c0-12.8,10.4-23.2,23.2-23.2l97.7,0c11.2,0,20.4-8.3,22-19c0-1.1,0.1-2.2,0.2-3.2c0,0,0,0,0,0h0c1.6-11.2,11.4-19.8,23.1-19.8h51
				c12.3,0,22.2-10,22.2-22.2c0-11.6-9.1-21.4-20.7-22.2v0l-1.6-0.1l-51,0l0-0.5v0.5c-12.8,0-23.2-10.4-23.2-23.2
				c0-11.8,9.3-19.8,23.2-19.8h124.7c12.4,0,22.2-9.6,22.2-21.9c0-12.4-10-22.6-22.2-22.6H326.8c-12.8,0-23.2-10.4-23.2-23.2
				c0-12.8,10.4-23.2,23.2-23.2v0.5l0-0.5l62.7,1.7c12.9,0,22.2-8.7,22.2-20.6c0-12.3-10-22.2-22.2-22.2h-22.7c-13.4,0-23-9-23-21.4
				c0-14.2,6.4-22.2,18.4-23.2l0,0.5v-0.5c12.3,0,22.2-10,22.2-22.2S374.4,83,362.1,83v-0.9c12.8,0,23.2,10.4,23.2,23.2
				c0,12.8-10.4,23.1-23.1,23.2c-14.5,1.1-17.5,12.7-17.5,22.2c0,11.9,9.3,20.5,22.1,20.5h22.7c12.8,0,23.2,10.4,23.2,23.2
				c0,12.2-10,21.5-23.2,21.5v-0.5l0,0.5l-62.7-1.7c-12.3,0-22.2,10-22.2,22.2c0,12.3,10,22.3,22.2,22.3h147.4
				c12.7,0,23.1,10.5,23.1,23.5c0,12.8-10.1,22.8-23.1,22.8H349.5c-11.1,0-22.2,5.8-22.2,18.9c0,12.3,10,22.2,22.2,22.2l51,0l6,0.2
				c0.4,0.2,0.7,0.5,1.1,0.7c0.2,0.1,0.3,0.2,0.5,0.3l-0.5,0c0.5,0.2,1.1,0.4,1.6,0.6c0.1,0.1,0.2,0.1,0.4,0.2
				c8.2,3.6,14,11.8,14,21.2c0,12.8-10.4,23.2-23.2,23.2h-51c-11.3,0-20.7,8.3-22.2,19c0,12.7-10.4,23.1-23.2,23.1L206.4,434.5z"/>
		</g>
		<g>
		</g>
	</g>
</g>
<g id="XMLID_3_">
	<g>
		<path class="st4" d="M393.9,630.1c0-12.8-10.4-23.1-23.1-23.1v0.5l0-0.5l-45.4,0.6c-13.5,0-22.2-7.4-22.2-18.8
			c0-12.3,10-22.2,22.2-22.2h166c12.8,0,23.1-10.4,23.1-23.1c0-12.8-10.4-23.1-23.1-23.1l-188.7,2.1c-12.3,0-22.2-10-22.2-22.2
			c0-12.8-10.4-23.1-23.1-23.1l-50.9-0.1c-13.1,0-22.2-8.2-22.2-19.9c0-12.3,10-22.2,22.2-22.2l97.6,0c12.7,0,23.1-10.3,23.1-23.1
			c1.6-10.7,10.9-19,22.2-19h51c12.8,0,23.1-10.4,23.1-23.1c0-9.2-5.4-17.2-13.3-20.9c-0.6-0.2-1.1-0.4-1.6-0.7
			c-0.3-0.1-0.7-0.3-1-0.4l0.3,0c-0.2-0.1-0.3-0.2-0.5-0.4c-0.5-0.2-0.9-0.4-1.4-0.6l-5.6-0.2l-51,0c-12.3,0-22.2-10-22.2-22.2
			c0-13,11.2-18.9,22.2-18.9H474v0c12.8,0,23.1-10.4,23.1-23.1c0-12.8-10.4-23.2-23.1-23.2v0H326.7c-12.3,0-22.2-10-22.2-22.2
			s10-22.2,22.2-22.2l62.7,1.7l0-0.5v0.5c13.2,0,23.1-9.2,23.1-21.5c0-12.8-10.4-23.1-23.1-23.1h-22.7c-12.8,0-22.1-8.6-22.1-20.5
			c0-9.5,3-21.1,17.5-22.2c12.7,0,23.1-10.4,23.1-23.1c0-12.8-10.4-23.1-23.1-23.1l-64.9,1.8c-12.3,0-22.2-10-22.2-22.2
			c0-12.3,10-22.2,22.2-22.2l103.5-1.2l35.2,1.5c-10.2,2.4-17.2,10.7-17.2,21.3c0,12.8,10.4,23.1,23.1,23.1l141.5-0.4
			c12.3,0,22.2,10,22.2,22.2c0,11.9-9.4,20.6-22.2,20.6l-6-0.1c-12.8,0-23.1,10.4-23.1,23.1c0,12.8,10.4,23.1,23.2,23.1l23.1-0.7
			c12.2,0,20.1,7.9,20.1,20.1c0,12.8,10.4,23.1,23.1,23.1l27.3,0.2c12.3,0,22.2,10,22.2,22.2c0,11.9-9.3,20.6-22.3,20.6l-8.4,1.7
			c-11.8,0-21.5,8.6-23.1,19.8c0,0,0,0,0,0c-0.2,1.1-0.2,2.1-0.2,3.2c-1.6,10.7-10.8,19-22,19l-59.9,0.5c-13.1,0-22.2,14-22.2,26.5
			c-1.6,10.7-10.8,19-22,19v0.1c-11.7,1.2-20.8,11-20.8,23c0,11.8,9.3,19.7,23.1,19.7l54.6,1.2h2.4c12.3,0,22.2,10,22.2,22.2
			c0,12.3-10,22.2-22.2,22.2l-66-1.4c-12.8,0-23.1,10.4-23.1,23.1c0,11.8,9.3,19.7,23.1,19.7l53.2-0.6c12.2,0,20.1,7.9,20.1,20.1
			c0,12.8,10.4,23.1,23.2,23.1l2.9-0.2c12.3,0,22.2,10,22.2,22.2c0,12.8,10.4,23.1,23.1,23.1h5.5c12.3,0,22.2,10,22.2,22.2
			c0,12.3-10,22.2-22.2,22.2l-42.5-1.1c-11.8,0-21.5,8.6-23.1,19.8h0c0,0,0,0,0,0c-0.1,1.1-0.2,2.1-0.2,3.2c-1.6,10.7-10.8,19-22,19
			l-62.4,0.5c-12.8,0-23.1,10.4-23.1,23.1c0,12.8,10.4,23.1,23.1,23.1l95.4-1.2c12.3,0,22.2,10,22.2,22.2c0,12.3-10,22.2-22.2,22.2
			h-47.5c-11.8,0-21.5,8.6-23.1,19.8c0,0,0,0,0,0c-0.2,1.1-0.2,2.1-0.2,3.2c-1.6,10.7-10.8,19-22,19l-27.5,0.4
			c-12.8,0-23.1,10.4-23.1,23.1c0,10.5,7,19.6,16.6,22.4h-0.1l-63.7-0.2v0.4l-0.1-0.4l-66.9,0.7c-6.1,0-11.7-2.5-15.7-6.5
			c-4-4-6.5-9.6-6.5-15.7c0-12.3,10-22.2,22.2-22.2h88.3c12.8,0,23.1-10.4,23.1-23.1c0-12.8-10.4-23.1-23.1-23.1h-5.5
			c-12.3,0-22.2-10-22.2-22.2c0-12.8-10.4-23.1-23.1-23.1v0.5l0-0.5l-33.4,1c-13.1,0-22.2-8.2-22.2-19.9c0-12.3,10-22.2,22.2-22.2
			h22.7C383.5,653.3,393.9,642.9,393.9,630.1z"/>
		<path class="st4" d="M515.3,349.5c-12.3,0-22.2,10-22.2,22.2c0,11.4,8.7,18.8,22.2,18.8l54.6,1.2h2.4c12.8,0,23.1,10.4,23.1,23.1
			c0,12.8-10.4,23.1-23.1,23.1l-66-1.4c-12.3,0-22.2,10-22.2,22.2c0,11.4,8.7,18.8,22.2,18.8l53.2-0.6c12.8,0,21,8.3,21,21
			c0,12.3,10,22.2,22.2,22.2l2.9-0.2c12.8,0,23.2,10.4,23.2,23.1c0,12.3,10,22.2,22.2,22.2h5.5c12.8,0,23.1,10.4,23.1,23.1
			c0,12.8-10.4,23.1-23.1,23.1l-42.5-1.1c-11.3,0-20.6,8.3-22.2,19c0,12.7-10.4,23.1-23.1,23.1l-62.4,0.5c-12.3,0-22.2,10-22.2,22.2
			c0,12.3,10,22.2,22.2,22.2l95.4-1.2c12.8,0,23.1,10.4,23.1,23.1c0,12.8-10.4,23.1-23.1,23.1h-47.5c-11.3,0-20.6,8.3-22.2,19
			c0,12.7-10.4,23.1-23.1,23.1l-27.5,0.4c-12.3,0-22.2,10-22.2,22.2c0,6.1,2.4,11.7,6.4,15.8c4,4.1,9.5,6.6,15.6,6.6l-6.3,0.1
			c-9.6-2.8-16.6-11.9-16.6-22.4c0-12.8,10.4-23.1,23.1-23.1l27.5-0.4c11.2,0,20.4-8.3,22-19c0-1.1,0.1-2.2,0.2-3.2c0,0,0,0,0,0
			c1.6-11.2,11.4-19.8,23.1-19.8h47.5c12.3,0,22.2-10,22.2-22.2c0-12.3-10-22.2-22.2-22.2l-95.4,1.2c-12.8,0-23.1-10.4-23.1-23.1
			c0-12.8,10.4-23.1,23.1-23.1l62.4-0.5c11.2,0,20.4-8.3,22-19c0-1.1,0.1-2.2,0.2-3.2c0,0,0,0,0,0h0c1.6-11.2,11.4-19.8,23.1-19.8
			l42.5,1.1c12.2,0,22.2-10,22.2-22.2c0-12.3-10-22.2-22.2-22.2h-5.5c-12.8,0-23.1-10.4-23.1-23.1c0-12.3-10-22.2-22.2-22.2
			l-2.9,0.2c-12.8,0-23.2-10.4-23.2-23.1c0-12.2-7.9-20.1-20.1-20.1l-53.2,0.6c-13.8,0-23.1-7.9-23.1-19.7
			c0-12.8,10.4-23.1,23.1-23.1l66,1.4c12.3,0,22.2-10,22.2-22.2c0-12.3-10-22.2-22.2-22.2h-2.4l-54.6-1.2
			c-13.8,0-23.1-7.9-23.1-19.7c0-12,9.1-21.9,20.8-23v-0.1c11.1,0,20.4-8.3,22-19c0-12.6,9.1-26.5,22.2-26.5l59.9-0.5
			c11.1,0,20.4-8.3,22-19c0-1.1,0.1-2.2,0.2-3.2c0,0,0,0,0,0c1.6-11.2,11.4-19.8,23.1-19.8l8.4-1.7c13,0,22.3-8.7,22.3-20.6
			c0-12.3-10-22.2-22.2-22.2l-27.3-0.2c-12.8,0-23.1-10.4-23.1-23.1c0-12.2-7.9-20.1-20.1-20.1l-23.1,0.7
			c-12.8,0-23.2-10.4-23.2-23.1c0-12.8,10.4-23.1,23.1-23.1l6,0.1c12.9,0,22.2-8.6,22.2-20.6c0-12.3-10-22.2-22.2-22.2l-141.5,0.4
			c-12.8,0-23.1-10.4-23.1-23.1c0-10.6,7.1-19,17.2-21.3l-35.2-1.5l-103.5,1.2c-12.3,0-22.2,10-22.2,22.2c0,12.3,10,22.2,22.2,22.2
			l64.9-1.8v0.9l-64.8,1.8l0-0.5v0.5c-12.8,0-23.1-10.4-23.1-23.1c0-12.8,10.4-23.1,23.1-23.1l103.5-1.2l41.1,1.7l0,0.9
			c-12.7,0-22.2,9.1-22.2,21.1c0,12.3,10,22.2,22.2,22.2l141.5-0.4c12.8,0,23.1,10.4,23.1,23.1c0,12.2-9.9,21.5-23.1,21.5l-6-0.1
			c-12.3,0-22.2,10-22.2,22.2c0,12.3,10,22.2,22.2,22.2l23.1-0.7c12.8,0,21,8.2,21,21c0,12.3,10,22.2,22.2,22.2l27.3,0.2
			c12.8,0,23.1,10.4,23.1,23.1c0,12.2-9.9,21.5-23.1,21.5l-8.4,1.7c-11.4,0-20.7,8.3-22.3,19c-0.1,12.7-10.4,23-23.1,23l-59.9,0.5
			c-11.1,0-19.6,11.2-21.1,22.4h0C536.1,338.4,526.9,348.3,515.3,349.5L515.3,349.5z"/>
		<path class="st4" d="M370.7,652.3c12.3,0,22.2-10,22.2-22.2s-10-22.2-22.2-22.2l-45.4,0.6c-13.9,0-23.1-7.9-23.1-19.7
			c0-12.8,10.4-23.1,23.1-23.1h166c12.3,0,22.2-10,22.2-22.2c0-12.3-10-22.2-22.2-22.2l-188.7,2.1c-12.8,0-23.1-10.4-23.1-23.1
			c0-12.3-10-22.2-22.2-22.2l-50.9-0.1c-13.4,0-23.1-8.8-23.1-20.8c0-12.8,10.4-23.1,23.1-23.1l97.6,0c11.2,0,20.4-8.3,22-19
			c0-1.1,0.1-2.2,0.2-3.2c0,0,0,0,0,0c1.6-11.2,11.4-19.8,23.1-19.8h51c12.3,0,22.2-10,22.2-22.2c0-11.6-9.1-21.4-20.7-22.2v0
			l-1.6-0.1l-51,0c-12.8,0-23.1-10.4-23.1-23.1c0-11.8,9.3-19.8,23.1-19.8H474v0c12.3,0,22.2-10,22.2-22.2c0-12.3-10-22.2-22.2-22.2
			v0H326.7c-12.8,0-23.1-10.4-23.1-23.1c0-12.8,10.4-23.1,23.1-23.1v0.5l0-0.5l62.7,1.7c12.9,0,22.2-8.6,22.2-20.6
			c0-12.3-10-22.2-22.2-22.2h-22.7c-13.3,0-23-9-23-21.4c0-14.2,6.3-22.2,18.3-23.1l0,0.4v-0.5c12.3,0,22.2-10,22.2-22.2
			c0-12.3-10-22.2-22.2-22.2v-0.9c12.8,0,23.1,10.4,23.1,23.1c0,12.7-10.4,23.1-23.1,23.1c-14.5,1.1-17.5,12.7-17.5,22.2
			c0,11.9,9.3,20.5,22.1,20.5h22.7c12.8,0,23.1,10.4,23.1,23.1c0,12.2-10,21.5-23.1,21.5v-0.5l0,0.5l-62.7-1.7
			c-12.3,0-22.2,10-22.2,22.2s10,22.2,22.2,22.2H474v0c12.8,0,23.1,10.4,23.1,23.2c0,12.8-10.4,23.1-23.1,23.1v0H349.4
			c-11.1,0-22.2,5.8-22.2,18.9c0,12.3,10,22.2,22.2,22.2l51,0l5.6,0.2c0.4,0.2,0.9,0.4,1.4,0.6c0.2,0.1,0.3,0.2,0.5,0.4l-0.3,0
			c0.3,0.1,0.7,0.2,1,0.4c0.5,0.3,1.1,0.5,1.6,0.7c7.9,3.7,13.3,11.7,13.3,20.9c0,12.8-10.4,23.1-23.1,23.1h-51
			c-11.3,0-20.6,8.3-22.2,19c-0.1,12.7-10.4,23.1-23.1,23.1l-97.6,0c-12.3,0-22.2,10-22.2,22.2c0,11.7,9.1,19.9,22.2,19.9l50.9,0.1
			c12.8,0,23.1,10.4,23.1,23.1c0,12.3,10,22.2,22.2,22.2l188.7-2.1c12.8,0,23.1,10.4,23.1,23.1c0,12.8-10.4,23.1-23.1,23.1h-166
			c-12.3,0-22.2,10-22.2,22.2c0,11.4,8.7,18.8,22.2,18.8l45.4-0.6l0,0.5V607c12.8,0,23.1,10.4,23.1,23.1c0,12.8-10.4,23.1-23.1,23.1
			h-22.7c-12.3,0-22.2,10-22.2,22.2c0,11.7,9.1,19.9,22.2,19.9l33.4-1l0,0.5v-0.5c12.8,0,23.1,10.4,23.1,23.1
			c0,12.3,10,22.2,22.2,22.2h5.5c12.8,0,23.1,10.4,23.1,23.1c0,12.8-10.4,23.1-23.1,23.1h-88.3c-12.3,0-22.2,10-22.2,22.2
			c0,6.1,2.5,11.7,6.5,15.7c4,4,9.6,6.5,15.7,6.5l66.9-0.7l0.1,0.4v-0.4l63.7,0.2l-63.6,0.7H411l-66.9,0.7
			c-12.8,0-23.1-10.4-23.1-23.1c0-12.8,10.4-23.1,23.1-23.1h88.3c12.3,0,22.2-10,22.2-22.2c0-12.3-10-22.2-22.2-22.2h-5.5
			c-12.8,0-23.1-10.4-23.1-23.1c0-12.3-10-22.2-22.2-22.2l-33.4,1l0-0.5v0.5c-13.4,0-23.1-8.8-23.1-20.8c0-12.8,10.4-23.1,23.1-23.1
			H370.7z"/>
	</g>
	<g>
	</g>
</g>
<g>
	<g id="XMLID_2_">
		<g>
			<path class="st1" d="M547.5,543.1c0,12.3-10,22.2-22.2,22.2h-26.5c9.7-2.8,16.7-11.7,16.7-22.2c0-10.5-7.1-19.5-16.7-22.2h26.5
				C537.5,520.8,547.5,530.8,547.5,543.1z"/>
			<path class="st1" d="M452.7,717.3c0,12.8,10.4,23.2,23.1,23.2h5.5c12.3,0,22.2,10,22.2,22.2c0,12.3-10,22.2-22.2,22.2h-41.7
				c0.3-0.1,0.6-0.2,0.9-0.3c9.2-3.1,15.8-11.7,15.8-22c0-12.8-10.4-23.2-23.1-23.2h-5.5c-12.3,0-22.2-10-22.2-22.2
				c0-12.8-10.4-23.1-23.1-23.1v0.5l0-0.5l-33.4,1c-13.1,0-22.2-8.2-22.2-19.9c0-12.3,10-22.2,22.2-22.2h22.7
				c12.8,0,23.1-10.4,23.1-23.2c0-12.8-10.4-23.2-23.1-23.2v0.5l0-0.5l-45.4,0.6c-13.5,0-22.2-7.4-22.2-18.8
				c0-12.3,10-22.2,22.2-22.2h130.2c-8.8,3.3-15,11.8-15,21.7c0,12.1,9.7,20.8,23.2,20.8l43.3-0.6c12.3,0,22.2,10,22.2,22.2
				c0,12.3-10,22.2-22.2,22.2l-84.5-0.6c-12.8,0-23.1,10.4-23.1,23.1c0,12.1,9.7,20.8,23.2,20.8h0l7.1-1
				C442.7,695.1,452.7,705,452.7,717.3z"/>
			<path class="st1" d="M442.3,742c8,3.4,13.6,11.3,13.6,20.5c0,5.1-1.8,9.9-4.7,13.7c2.2-3.7,3.4-8.2,3.4-13.1
				C454.6,753.5,450.1,745.7,442.3,742z"/>
			<path class="st1" d="M455.9,762.4c0-9.2-5.6-17.1-13.6-20.5c0,0,0,0-0.1,0c-2.7-1.3-5.7-2.1-9-2.4c12.8,0,23.1,10.4,23.1,23.2
				c0,10.2-6.6,18.9-15.8,22c4.7-1.6,8.3-4.6,10.7-8.5c0,0,0,0,0,0C454.1,772.3,455.9,767.6,455.9,762.4z"/>
			<path class="st1" d="M439.4,369.6c0,12.8,10.4,23.1,23.2,23.1l12.3-0.5c12.3,0,22.2,10,22.2,22.2c0,11.8-9.4,20.3-22.2,20.3
				H342.6c-12.7,0-22.3,9.7-22.3,22.6c0,10.3,7,18.3,17.8,20.4l0.1,0l29.7-1.3c12.3,0,22.2,10,22.2,22.2c0,10.4,6.9,19.2,16.4,22.1
				L303.9,522l-0.5,0c-12.3,0-22.2-10-22.2-22.2c0-12.6-10.1-22.9-22.7-23.1c-0.1,0-0.3,0-0.5,0l-50.9-0.1
				c-13.1,0-22.2-8.2-22.2-19.9c0-12.3,10-22.2,22.2-22.2l97.6-0.1c6.4,0,12.1-2.6,16.3-6.8c4.2-4.2,6.8-9.9,6.8-16.3
				c1.6-10.7,11-19,22.2-19h51c12.8,0,23.1-10.4,23.1-23.2c0-10.2-6.7-18.9-15.9-22l8.7,0.3C429.4,347.4,439.4,357.4,439.4,369.6z"
				/>
			<path class="st1" d="M350.2,304.8h50.5c-9.4,2.7-15.8,11.1-15.8,21.7c0,9.1,5.4,16.4,14.2,19.4l-48.9,0
				c-12.3,0-22.2-10-22.2-22.2C327.9,310.7,339.1,304.8,350.2,304.8z"/>
			<path class="st1" d="M405.1,829.7l-60.2,0.7c-6.1,0-11.7-2.5-15.7-6.5c-4-4-6.5-9.6-6.5-15.7c0-12.3,10-22.2,22.2-22.2h60.9
				c-9.7,2.9-17,12.4-17,23.4C388.7,819.4,395.3,827.2,405.1,829.7z"/>
			<path class="st1" d="M428.1,740.2c-12.8,0-24.4-9.9-24.4-22.6c0-12.3-8.7-22.8-20.9-22.8l-0.4,0l0-0.2v-0.5
				c12.8,0,23.1,10.4,23.1,23.1c0,12.3,10,22.2,22.2,22.2h5.5c3.4,0.3,6.4,1.1,9,2.4c-2.6-1.1-5.6-1.7-8.6-1.7H428.1z"/>
			<path class="st1" d="M326.6,675.2c0,11.7,9.1,19.9,22.2,19.9l33.4-1l0,0.5l0,0.2l-33,1l0-0.3v0.3c-13.4,0-23.2-8.8-23.2-20.8
				c0-12.8,10.4-23.2,23.2-23.2H372c12.3,0,21-9.4,21-21.7c0-12.3-8.7-22.8-21-22.8l-0.4,0v-0.2v-0.5c12.8,0,23.1,10.4,23.1,23.2
				c0,12.8-10.4,23.2-23.1,23.2h-22.7C336.6,653,326.6,662.9,326.6,675.2z"/>
			<path class="st1" d="M345.3,150.6c0-9.5,3-21.1,17.5-22.2c12.8,0,23.1-10.4,23.1-23.2c0-12.8-10.4-23.1-23.1-23.1v0.5l0-0.5
				l-64.9,1.8c-12.3,0-22.2-10-22.2-22.2s10-22.2,22.2-22.2l96.9-1.1c-9.5,2.9-16.5,11.7-16.5,22.2c0,12.5,10,22,23.2,22h29.6
				c12.2,0,21,8.9,21,21c0,12.8,10.4,23.2,23.1,23.2l32.4,0.9c12.3,0,22.2,10,22.2,22.2c0,12.3-10,22.2-22.3,22.2l-27.3,0.8
				c-12.8,0-23.1,10.4-23.1,23.1c0,12,9.9,20.7,23.4,20.7l28.7-0.8c12.3,0,20.6,8.3,20.6,20.6c0,12.8,10.4,23.2,23.1,23.2
				c6.1,0,11.7,2.5,15.7,6.5c4,4,6.5,9.6,6.5,15.7c0,12.3-10,22.2-22.2,22.2v0h-70.9c9.6-2.8,16.7-11.7,16.7-22.2
				c0-12.8-10.4-23.2-23.1-23.2H327.5c-12.3,0-22.2-10-22.2-22.2c0-12.3,10-22.2,22.2-22.2l62.7,1.7l0-0.5v0.5
				c13.2,0,23.1-9.2,23.1-21.5c0-12.8-10.4-23.1-23.1-23.1h-22.7C354.7,171.1,345.3,162.5,345.3,150.6z"/>
			<path class="st1" d="M480.5,173.7c-12.3,0-22.3,10-22.3,22.2c0,11.6,9.3,19.7,22.5,19.7l28.7-0.8c12.9,0,21.5,8.6,21.5,21.5
				c0,12.3,10,22.2,22.2,22.2c12.8,0,23.2,10.4,23.2,23.2c0,12.8-10.4,23.1-23.2,23.1v0h-76.8c-0.2,0-0.4,0-0.6,0v0v-0.9v0h0.6
				c12-0.3,21.6-10.2,21.6-22.2c0-12.3-10-22.2-22.2-22.2H327.5c-12.8,0-23.1-10.4-23.1-23.2c0-12.8,10.4-23.1,23.1-23.1v0.5l0-0.5
				l62.7,1.7c12.9,0,22.2-8.6,22.2-20.6c0-12.3-10-22.2-22.2-22.2h-22.7c-13.3,0-23-9-23-21.4c0-14.2,6.3-22.2,18.4-23.2l0,0.5v-0.5
				c12.3,0,22.2-10,22.2-22.2c0-12.3-10-22.2-22.2-22.2L298,84.8l0-0.5v0.5c-12.8,0-23.1-10.4-23.1-23.1s10.4-23.2,25.1-23.2
				l48.5-1.4l53.1,0.3c-12,0.3-22.2,11.1-22.2,23.1c0,12,9.6,21,22.3,21h29.6c12.7,0,22,9.2,22,22c0,12.3,10,22.2,22.2,22.2
				l32.4,0.9c12.7,0,23.1,10.4,23.1,23.2c0,12.8-10.4,23.1-23.2,23.1L480.5,173.7z M345.3,150.6c0,11.9,9.3,20.5,22.1,20.5h22.7
				c12.8,0,23.1,10.4,23.1,23.1c0,12.2-10,21.5-23.1,21.5v-0.5l0,0.5l-62.7-1.7c-12.3,0-22.2,10-22.2,22.2c0,12.3,10,22.2,22.2,22.2
				h148.3c12.8,0,23.1,10.4,23.1,23.2c0,10.5-7,19.4-16.7,22.2h70.9v0c12.3,0,22.2-10,22.2-22.2c0-6.1-2.5-11.7-6.5-15.7
				c-4-4-9.6-6.5-15.7-6.5c-12.8,0-23.1-10.4-23.1-23.2c0-12.3-8.3-20.6-20.6-20.6l-28.7,0.8c-13.6,0-23.4-8.7-23.4-20.7
				c0-12.8,10.4-23.1,23.1-23.1l27.3-0.8c12.3,0,22.3-10,22.3-22.2c0-12.3-10-22.2-22.2-22.2l-32.4-0.9c-12.8,0-23.1-10.4-23.1-23.2
				c0-12.2-8.9-21-21-21h-29.6c-13.2,0-23.2-9.4-23.2-22c0-10.4,6.9-19.3,16.5-22.2l-96.9,1.1c-12.3,0-22.2,10-22.2,22.2
				s10,22.2,22.2,22.2l64.9-1.8l0,0.5v-0.5c12.8,0,23.1,10.4,23.1,23.1c0,12.8-10.4,23.1-23.1,23.2
				C348.4,129.5,345.3,141.1,345.3,150.6z"/>
			<path class="st1" d="M258.5,476.9v-0.2c12.6,0.2,22.7,10.5,22.7,23.1c0,12.3,10,22.2,22.2,22.2l0.5,0v0.2v0.5
				c-12.8,0-24.3-10-24.3-22.8c0-12.3-8.8-22.6-21.1-22.6V477V476.9z"/>
			<path class="st1" d="M498.7,520.8c9.7,2.8,16.7,11.7,16.7,22.2c0,10.5-7.1,19.5-16.7,22.2h26.5c12.3,0,22.2-10,22.2-22.2
				c0-12.3-10-22.2-22.2-22.2H498.7z M400.7,304.8h-50.5c-11.1,0-22.2,5.8-22.2,18.9c0,12.3,10,22.2,22.2,22.2l48.9,0
				c-8.7-3-14.2-10.3-14.2-19.4C384.9,316,391.4,307.5,400.7,304.8z M344.9,830.3l60.2-0.7c-9.8-2.5-16.3-10.3-16.3-20.4
				c0-11,7.3-20.5,17-23.4h-60.9c-12.3,0-22.2,10-22.2,22.2c0,6.1,2.5,11.7,6.5,15.7C333.2,827.8,338.7,830.3,344.9,830.3z
				 M475.8,740.5c-12.8,0-23.1-10.4-23.1-23.2c0-12.3-10-22.2-22.2-22.2l-7.1,1h0c-13.5,0-23.2-8.8-23.2-20.8
				c0-12.8,10.4-23.1,23.1-23.1l84.5,0.6c12.3,0,22.2-10,22.2-22.2c0-12.3-10-22.2-22.2-22.2l-43.3,0.6c-13.4,0-23.2-8.8-23.2-20.8
				c0-9.9,6.2-18.4,15-21.7H326.2c-12.3,0-22.2,10-22.2,22.2c0,11.4,8.7,18.8,22.2,18.8l45.4-0.6l0,0.5v0.2l-44.9,0.6l0-0.5v0.5
				c-13.8,0-23.1-7.9-23.1-19.7c0-12.8,10.4-23.1,23.1-23.1h133.2c0.6,0,1.2,0,1.7,0c1.1,0,2.2,0,3.4,0h26.2h1.6
				c12.3,0,21.1-9.6,21.1-21.9c0-12.3-8.9-22.6-21.1-22.6l-79,0.9v0.2c-0.9,0-1.7-0.1-2.6-0.1l-107.2,1.2v-0.5V522l102.5-1.2
				c-9.5-2.9-16.4-11.7-16.4-22.1c0-12.3-10-22.2-22.2-22.2l-29.7,1.3l-0.1,0c-10.8-2-17.8-10-17.8-20.4c0-12.9,9.6-22.6,22.3-22.6
				h132.3c12.9,0,22.2-8.5,22.2-20.3c0-12.3-10-22.2-22.2-22.2l-12.3,0.5c-12.8,0-23.2-10.4-23.2-23.1c0-12.3-10-22.2-22.2-22.2
				l-8.7-0.3c9.2,3,15.9,11.8,15.9,22c0,12.8-10.4,23.2-23.1,23.2h-51c-11.3,0-20.7,8.3-22.2,19c0,6.4-2.6,12.1-6.8,16.3
				c-4.2,4.2-10,6.8-16.3,6.8l-97.6,0.1c-12.3,0-22.2,10-22.2,22.2c0,11.7,9.1,19.9,22.2,19.9l50.9,0.1c0.2,0,0.3,0,0.5,0v0.2v0.1
				l0,0.3l-50.9-0.1c-13.4,0-23.2-8.8-23.2-20.8c0-6.4,2.6-12.2,6.8-16.4c4.2-4.2,10-6.8,16.4-6.8l97.6,0c11.2,0,20.4-8.3,22-19
				c0-1.1,0.1-2.2,0.2-3.2c0,0,0,0,0,0c1.6-11.2,11.4-19.8,23.1-19.8h51c12.3,0,22.2-10,22.2-22.2c0-11.6-9.1-21.4-20.7-22.2
				c0,0,0,0-0.1,0l-1.5-0.1l-51,0c-12.8,0-23.1-10.4-23.1-23.1c0-11.8,9.3-19.8,23.1-19.8h124.7v0.9h-67.7
				c-12.2,0-21.4,9.3-21.4,21.7c0,9.8,6.7,17.5,17,19.4l14.4,0.5c12.7,0,23.1,10.4,23.1,23.1c0,12.3,10,22.2,22.2,22.2l12.3-0.6
				c12.8,0,23.2,10.4,23.2,23.2c0,12.3-9.7,21.2-23.1,21.2H343c-12.2,0-21.4,9.3-21.4,21.7c0,9.9,6.7,17.5,17,19.5l29.7-1.3
				c12.8,0,23.2,10.4,23.2,23.1c0,11.4,8.6,20.8,19.7,22.1l81.5-0.9h33c12.8,0,23.2,10.4,23.2,23.1S538.4,566,525.7,566h-33h-1.6
				h-31.2c-9.9,2.3-17.2,11.1-17.2,21.7c0,11.7,9.1,19.9,22.2,19.9l43.3-0.6c12.8,0,23.2,10.4,23.2,23.1c0,12.8-10.4,23.2-23.1,23.2
				l-84.5-0.6c-12.3,0-22.2,10-22.2,22.2c0,11.7,9.1,19.9,22.2,19.9l7.1-1c0,0,0,0,0,0c12.8,0,23.2,10.4,23.2,23.1
				c0,12.3,10,22.2,22.2,22.2h5.5c12.8,0,23.1,10.4,23.1,23.2s-10.4,23.2-23.1,23.2h-69.5c-12.1,0-22.2,10.7-22.2,23.4
				c0,11.8,9.2,21.7,22.1,21.7l-66.9,0.3v0c-13.2,1.8-24.4-10.6-24.4-23.3c0-12.8,10.8-23.8,24.4-23h88.3c7.1,0,13.5-3.4,17.5-8.6
				c-2.4,4-6,7-10.7,8.5c-0.3,0.1-0.6,0.2-0.9,0.3h41.7c12.3,0,22.2-10,22.2-22.2c0-12.3-10-22.2-22.2-22.2H475.8z"/>
		</g>
		<g>
		</g>
	</g>
</g>
</svg>
