<?xml version="1.0" encoding="UTF-8" standalone="no"?>
<!-- Created with Inkscape (http://www.inkscape.org/) -->

<svg
   width="515.8739"
   height="520.67352"
   viewBox="0 0 136.49163 137.76153"
   version="1.1"
   id="svg1082"
   inkscape:version="1.2-dev (9ee32be, 2021-06-19)"
   sodipodi:docname="Bluedeck Whatsapp.svg"
   xmlns:inkscape="http://www.inkscape.org/namespaces/inkscape"
   xmlns:sodipodi="http://sodipodi.sourceforge.net/DTD/sodipodi-0.dtd"
   xmlns="http://www.w3.org/2000/svg"
   xmlns:svg="http://www.w3.org/2000/svg">
  <sodipodi:namedview
     id="namedview1084"
     pagecolor="#ffffff"
     bordercolor="#666666"
     borderopacity="1.0"
     inkscape:pageshadow="2"
     inkscape:pageopacity="0.0"
     inkscape:pagecheckerboard="0"
     inkscape:document-units="mm"
     showgrid="false"
     units="px"
     inkscape:zoom="1.0552132"
     inkscape:cx="295.67485"
     inkscape:cy="292.35798"
     inkscape:window-width="1316"
     inkscape:window-height="847"
     inkscape:window-x="0"
     inkscape:window-y="25"
     inkscape:window-maximized="0"
     inkscape:current-layer="layer1"
     fit-margin-top="0"
     fit-margin-left="0"
     fit-margin-right="0"
     fit-margin-bottom="0" />
  <defs
     id="defs1079">
    <clipPath
       clipPathUnits="userSpaceOnUse"
       id="clipPath930">
      <path
         d="M 183.273,826.675 H 774.619 V 32.5465 H 183.273 Z"
         id="path928" />
    </clipPath>
    <clipPath
       clipPathUnits="userSpaceOnUse"
       id="clipPath958">
      <path
         d="M 183.245,826.184 H 694.07 V 32.5114 H 183.245 Z"
         id="path956" />
    </clipPath>
    <clipPath
       clipPathUnits="userSpaceOnUse"
       id="clipPath982">
      <path
         d="M 184.451,826.931 H 576.319 V 32.8344 H 184.451 Z"
         id="path980" />
    </clipPath>
    <rect
       x="303.66043"
       y="218.08339"
       width="789.51709"
       height="223.60449"
       id="rect4681" />
  </defs>
  <g
     inkscape:label="Layer 1"
     inkscape:groupmode="layer"
     id="layer1"
     transform="translate(0.10036328,0.92153829)">
    <g
       id="g1032">
      <path
         id="rect5576"
         style="fill:#1c5072;stroke-width:42.4884;stroke-linecap:round"
         d="M -0.10036328,-0.92153829 H 136.39127 L 122.63294,136.84 H 12.07047 Z"
         sodipodi:nodetypes="ccccc" />
      <g
         id="g1804"
         transform="matrix(0.34566072,0,0,-0.34566072,24.395114,78.704117)"
         style="fill:#ff9400;fill-opacity:1">
        <path
           d="m 0,0 c -2.094,0 -3.79,1.697 -3.79,3.79 0,2.093 1.696,3.791 3.79,3.791 2.093,0 3.79,-1.698 3.79,-3.791 C 3.79,1.697 2.093,0 0,0 M 8.501,5.444 C 8.276,6.606 7.823,7.687 7.185,8.633 L 4.716,8.507 4.842,10.975 C 3.896,11.614 2.815,12.067 1.653,12.292 L 0,10.46 -1.653,12.292 c -1.162,-0.225 -2.243,-0.678 -3.19,-1.317 L -4.717,8.507 -7.185,8.633 C -7.824,7.687 -8.276,6.606 -8.502,5.444 L -6.67,3.79 -8.502,2.137 c 0.226,-1.162 0.678,-2.243 1.317,-3.189 l 2.468,0.126 -0.126,-2.469 c 0.947,-0.638 2.028,-1.091 3.19,-1.316 L 0,-2.88 1.653,-4.711 c 1.162,0.225 2.243,0.678 3.189,1.316 l -0.126,2.469 2.469,-0.126 c 0.638,0.946 1.091,2.027 1.316,3.189 L 6.67,3.79 Z"
           style="fill:#ff9400;fill-opacity:1;fill-rule:nonzero;stroke:none"
           id="path1806" />
      </g>
      <path
         d="M 57.815186,69.041612 C 47.79931,72.687015 36.684311,67.503473 33.038272,57.486644 29.39223,47.469179 34.574819,36.353225 44.590694,32.70782 54.608795,29.061463 65.725068,34.245323 69.371108,44.26247 73.01683,54.279618 67.83297,65.395253 57.815186,69.041612 m 16.275001,-9.623944 0.05882,-0.158435 5.790209,1.023088 1.485962,-8.420791 -5.797525,-1.025324 -0.0022,-0.168617 c -0.01051,-1.266455 -0.127628,-2.554859 -0.34392,-3.828954 l -0.02862,-0.167329 5.545302,-2.018177 -2.924849,-8.035223 -5.544936,2.018507 -0.08558,-0.146656 C 71.590054,37.376 70.851684,36.314096 70.045235,35.335221 l -0.106966,-0.130422 3.782517,-4.511345 -6.552757,-5.499759 -3.779017,4.506889 -0.147625,-0.08367 C 62.116584,28.982565 60.942381,28.435708 59.75291,27.99065 l -0.159057,-0.05974 1.026589,-5.794662 -8.425246,-1.484697 -1.022132,5.801027 -0.170526,0.0018 c -1.270904,0.01145 -2.560913,0.126921 -3.833098,0.343901 l -0.167652,0.02862 -2.018509,-5.545889 -8.037132,2.925167 2.01851,5.546207 -1.657755,0.977282 c -0.102084,0.06 -0.19915,0.128228 -0.290766,0.202968 l -1.478014,1.212058 -4.513887,-3.787606 -5.498488,6.55212 4.504027,3.783153 -0.08335,0.147625 c -0.631802,1.120121 -1.178655,2.292734 -1.623079,3.485388 l -0.05908,0.158749 -5.799117,-1.019912 -1.483413,8.419201 5.805479,1.027231 0.0022,0.169232 c 0.01018,1.274734 0.124959,2.561867 0.341352,3.826418 l 0.02863,0.167663 -5.549706,2.019783 2.925486,8.037448 5.549705,-2.020099 0.08548,0.146684 c 0.646745,1.107397 1.386393,2.168027 2.198886,3.152944 l 0.106922,0.130737 -3.788241,4.514207 6.549257,5.500078 3.786969,-4.508799 0.147312,0.08365 c 1.100717,0.624486 2.272056,1.171668 3.484116,1.626896 l 0.158435,0.05908 -1.018317,5.793707 8.423655,1.48501 1.022135,-5.801981 0.170185,-0.0018 c 1.260407,-0.01177 2.54787,-0.126399 3.825781,-0.341666 l 0.167602,-0.02798 2.018509,5.545888 8.037132,-2.925167 -2.018509,-5.545887 0.146374,-0.08617 c 1.120434,-0.656931 2.182027,-1.397214 3.156127,-2.199521 l 0.13168,-0.107967 4.513886,3.786652 5.499761,-6.553074 -4.511345,-3.779655 0.0834,-0.147939 c 0.624158,-1.103579 1.17198,-2.278098 1.628168,-3.491431"
         style="fill:#ffffff;fill-opacity:1;fill-rule:nonzero;stroke:none;stroke-width:0.318126"
         id="path3289" />
      <path
         d="m 59.447747,54.620461 c -0.102741,-0.168597 -0.374193,-0.269618 -0.77947,-0.471429 -0.407162,-0.201631 -2.408583,-1.179292 -2.780886,-1.313101 -0.372632,-0.134371 -0.645844,-0.202144 -0.915462,0.201308 -0.271316,0.403937 -1.051465,1.313592 -1.28945,1.583226 -0.23681,0.269944 -0.473279,0.302765 -0.8806,0.100909 -0.407497,-0.201523 -1.719231,-0.629239 -3.272539,-2.002855 -1.208881,-1.071685 -2.025398,-2.392092 -2.26408,-2.796017 -0.236143,-0.403426 -0.02366,-0.621688 0.178002,-0.823323 0.183688,-0.18174 0.407675,-0.471422 0.610996,-0.706192 0.20383,-0.236652 0.271486,-0.405779 0.407164,-0.675254 0.135679,-0.269617 0.06797,-0.504399 -0.0349,-0.706335 -0.100778,-0.201452 -0.915121,-2.188264 -1.254617,-2.997471 -0.337286,-0.80684 -0.676769,-0.776567 -0.915278,-0.776567 -0.236652,0 -0.675907,0.07058 -0.675907,0.07058 0,0 -0.81565,0.100778 -1.187966,0.504754 -0.372488,0.403413 -1.423429,1.381086 -1.423429,3.366203 0,1.986299 1.456759,3.906977 1.660076,4.17473 0.20383,0.269945 2.813864,4.479544 6.950684,6.09592 4.136824,1.616047 4.136824,1.076785 4.88296,1.008632 0.744779,-0.06575 2.406713,-0.975811 2.746203,-1.918812 0.33951,-0.943001 0.33951,-1.751529 0.238497,-1.918636 M 51.066158,36.979218 c -7.696655,0 -13.955607,6.21101 -13.955607,13.847656 0,3.028579 0.986685,5.835307 2.657975,8.118938 l -1.742684,5.1417 5.362019,-1.703587 c 2.202885,1.445353 4.8425,2.289414 7.678297,2.289414 7.693595,0 13.954417,-6.211521 13.954417,-13.846465 0,-7.636646 -6.260822,-13.847656 -13.954417,-13.847656 m 16.59777,13.847656 c 0,9.094916 -7.43094,16.469422 -16.59777,16.469422 -2.91094,0 -5.645924,-0.743262 -8.02357,-2.049202 l -9.190119,2.920457 2.9956,-8.836003 c -1.511655,-2.482536 -2.380875,-5.393645 -2.380875,-8.504674 0,-9.09662 7.431114,-16.470951 16.598964,-16.470951 9.16683,0 16.59777,7.374331 16.59777,16.470951"
         style="fill:#ffffff;fill-opacity:1;fill-rule:evenodd;stroke:none;stroke-width:4.40515"
         id="path896" />
      <circle
         style="fill:#ffffff;fill-opacity:1;stroke:none;stroke-width:35.0551;stroke-linecap:round"
         id="path8602"
         cx="93.209831"
         cy="35.499039"
         r="10.858315" />
      <path
         d="m 97.742909,47.941175 c -6.794924,2.472961 -14.335121,-1.043585 -16.808425,-7.838848 -2.473645,-6.795948 1.04222,-14.336826 7.837142,-16.810131 6.796291,-2.473646 14.337164,1.042903 16.810804,7.838849 2.47365,6.795266 -1.04323,14.336484 -7.839521,16.81013 m 11.041011,-6.52873 0.04,-0.107688 3.92831,0.694006 1.00804,-5.712382 -3.93344,-0.695732 -0.002,-0.114427 c -0.007,-0.859383 -0.0865,-1.733137 -0.23307,-2.597667 l -0.0198,-0.113445 3.7619,-1.368887 -1.98397,-5.451316 -3.7619,1.369239 -0.0579,-0.0994 c -0.44278,-0.755569 -0.94372,-1.475895 -1.49115,-2.139839 l -0.0724,-0.08852 2.56624,-3.060707 -4.44566,-3.731141 -2.56385,3.057629 -0.0998,-0.05678 c -0.76308,-0.430137 -1.559605,-0.801246 -2.366395,-1.103319 l -0.108389,-0.04031 0.696421,-3.931385 -5.715459,-1.007018 -0.693668,3.935486 -0.11555,0.0011 c -0.862053,0.0078 -1.73717,0.0865 -2.600332,0.23337 l -0.113725,0.01948 -1.369239,-3.762239 -5.452682,1.984317 1.369577,3.76258 -1.124575,0.662919 c -0.06936,0.04099 -0.135067,0.08684 -0.197166,0.137734 l -1.002916,0.822475 -3.062071,-2.569667 -3.730119,4.444975 3.055582,2.566251 -0.05672,0.100388 c -0.428505,0.759628 -0.799601,1.555124 -1.101338,2.364297 l -0.04002,0.107688 -3.934117,-0.691955 -1.006343,5.712039 3.93822,0.696407 0.0017,0.11527 c 0.0069,0.864522 0.08466,1.737941 0.231677,2.595977 l 0.01951,0.113444 -3.76497,1.370264 1.984998,5.45234 3.76463,-1.370263 0.05784,0.09983 c 0.438756,0.751077 0.940733,1.470381 1.491915,2.138768 l 0.07244,0.08845 -2.570009,3.062757 4.443269,3.731141 2.568983,-3.058654 0.09983,0.05672 c 0.746978,0.423381 1.541451,0.794813 2.363614,1.103725 l 0.107968,0.04002 -0.691295,3.930361 5.714779,1.007705 0.693342,-3.936169 0.11555,-0.0014 c 0.855297,-0.0078 1.728716,-0.08579 2.595634,-0.232028 l 0.113447,-0.01882 1.369575,3.76258 5.452337,-1.984658 -1.36923,-3.762578 0.0991,-0.0584 c 0.76008,-0.445312 1.48006,-0.947613 2.14126,-1.491974 l 0.0892,-0.07343 3.06207,2.569325 3.73114,-4.445659 -3.0607,-2.5642 0.0567,-0.100388 c 0.42338,-0.748691 0.79517,-1.545549 1.10441,-2.368397"
         style="fill:#ffffff;fill-opacity:1;fill-rule:nonzero;stroke:none;stroke-width:0.341711"
         id="path3293" />
      <g
         id="g1702"
         transform="matrix(0.27540709,0,0,0.27540709,91.236371,34.359322)"
         style="stroke-width:50.9799">
        <g
           id="g858"
           transform="matrix(0.08019666,0,0,-0.08019666,-28.019376,36.184707)"
           style="display:inline;stroke-width:50.9799" />
        <g
           transform="matrix(0.08019666,0,0,-0.08019666,30.038057,25.729323)"
           id="g866"
           style="display:inline;fill:#97c6d4;fill-opacity:1;stroke-width:50.9799">
          <path
             d="m 0,0 c -35.256,-4.958 -63.481,-31.777 -70.229,-66.742 -0.394,-2.036 -0.531,-3.698 -0.667,-5.305 -0.137,-1.626 -0.275,-3.306 -0.676,-5.343 -0.009,-0.054 -1.452,-5.405 -6.274,-9.88 -3.971,-3.679 -9.424,-5.789 -14.957,-5.789 h -0.01 v -0.913 h -1.14 l -0.01,0.913 -284.491,-3.196 c -12.254,0 -22.217,9.963 -22.217,22.217 0,12.255 9.963,22.217 22.217,22.217 h 88.265 c 12.756,0 23.129,10.383 23.129,23.139 0,12.747 -10.373,23.13 -23.129,23.13 h -5.534 c -12.255,0 -22.217,9.962 -22.217,22.217 0,12.757 -10.382,23.13 -23.139,23.13 v -0.456 l -0.009,0.456 -33.376,-0.977 c -13.076,0.009 -22.207,8.191 -22.207,19.915 0,12.255 9.971,22.218 22.216,22.218 h 22.683 c 12.748,0 23.13,10.382 23.13,23.139 0,12.748 -10.382,23.13 -23.13,23.13 v -0.456 l -0.009,0.456 -45.347,-0.584 c -13.497,0 -22.217,7.369 -22.217,18.764 0,12.246 9.963,22.217 22.217,22.217 h 165.946 c 12.757,0 23.13,10.374 23.13,23.131 0,12.757 -10.373,23.13 -23.13,23.13 v -0.457 l -0.008,0.457 -188.611,-2.128 c -12.255,0 -22.218,9.963 -22.218,22.217 0,12.757 -10.382,23.13 -23.139,23.13 l -50.871,0.119 c -13.086,0 -22.217,8.191 -22.217,19.916 0,12.254 9.962,22.217 22.217,22.217 l 97.542,0.054 c 12.73,0 23.085,10.328 23.131,23.039 1.588,10.729 10.948,18.994 22.226,18.994 h 50.963 c 12.747,0 23.129,10.373 23.129,23.129 0,12.757 -10.382,23.131 -23.129,23.131 l -50.963,-0.028 c -12.255,0 -22.217,9.972 -22.217,22.217 0,13.04 11.159,18.875 22.217,18.875 h 124.599 c 12.757,0 23.13,10.373 23.13,23.13 0,12.756 -10.373,23.13 -23.13,23.13 h -147.273 c -12.255,0 -22.226,9.972 -22.226,22.226 0,12.245 9.971,22.208 22.217,22.217 l 62.605,-1.68 0.009,0.456 v -0.456 c 13.196,0 23.14,9.232 23.14,21.459 0,12.757 -10.383,23.139 -23.14,23.139 h -22.673 c -12.802,0 -22.098,8.593 -22.098,20.436 0,9.506 3.041,21.076 17.496,22.217 12.738,0.018 23.102,10.383 23.102,23.13 0,12.757 -10.382,23.13 -23.139,23.13 l -64.824,-1.78 c -12.246,0.009 -22.217,9.971 -22.217,22.216 0,12.255 9.971,22.227 22.226,22.227 v 0.456 l 0.036,-0.456 c 0.686,0.064 69.774,6.337 208.801,-2.776 72.504,-4.758 127.467,-47.84 160.814,-83.152 36.143,-38.27 55.383,-75.919 55.566,-76.275 0.375,-0.831 37.33,-83.809 30.526,-114.436 -6.903,-31.056 44.607,-72.056 45.109,-72.458 0.403,-0.338 39.622,-34.134 39.622,-51.593 0,-13.305 -12.291,-16.729 -23.129,-19.743 -3.316,-0.921 -6.438,-1.798 -8.941,-2.894 -10.692,-4.731 -4.857,-21.167 -4.803,-21.331 l 0.074,-0.246 0.255,-0.046 c 0.146,-0.037 3.552,-1.196 11.917,-19.341 8.456,-18.372 -3.617,-24.518 -4.137,-24.765 l -0.1,-0.054 -10.154,-13.771 c -0.192,-0.173 -4.712,-4.483 -3.908,-8.144 0.365,-1.654 1.744,-2.886 4.081,-3.662 8.072,-2.685 13.596,-13.716 14.062,-14.684 0.119,-1.105 1.224,-14.254 -7.852,-18.783 -10.018,-4.995 -5.598,-31.358 -5.388,-32.564 11.907,-31.75 10.721,-52.496 9.561,-60.267 H 86.129 C 86.129,23.76 62.368,0 33.166,0 Z"
             style="fill:#97c6d4;fill-opacity:1;fill-rule:nonzero;stroke:none;stroke-width:50.9799"
             id="path864" />
        </g>
        <g
           transform="matrix(0.08019666,0,0,-0.08019666,-5.928805,25.991454)"
           id="g870"
           style="display:inline;fill:#1a5072;fill-opacity:1;stroke-width:50.9799">
          <path
             d="M 0,0 C 12.254,0 22.226,-9.972 22.226,-22.218 22.226,-34.472 12.254,-44.443 0,-44.443 h -90.219 c -12.255,0 -22.226,9.971 -22.226,22.225 0,12.246 9.971,22.218 22.226,22.218 z"
             style="fill:#1a5072;fill-opacity:1;fill-rule:nonzero;stroke:none;stroke-width:50.9799"
             id="path868" />
        </g>
        <g
           transform="matrix(0.08019666,0,0,-0.08019666,-7.265289,-8.924541)"
           id="g874"
           style="display:inline;fill:#1a5072;fill-opacity:1;stroke-width:50.9799">
          <path
             d="M 0,0 C 12.245,0 22.208,-9.972 22.208,-22.226 22.208,-34.472 12.245,-44.434 0,-44.434 h -92.027 c -12.255,0 -22.217,9.962 -22.217,22.208 0,12.254 9.962,22.226 22.217,22.226 z"
             style="fill:#1a5072;fill-opacity:1;fill-rule:nonzero;stroke:none;stroke-width:50.9799"
             id="path872" />
        </g>
        <g
           transform="matrix(0.08019666,0,0,-0.08019666,-5.92736,-21.153432)"
           id="g878"
           style="display:inline;fill:#1a5072;fill-opacity:1;stroke-width:50.9799">
          <path
             d="m 0,0 c 0,-12.254 -9.962,-22.217 -22.217,-22.217 -12.245,0 -22.217,9.963 -22.217,22.217 0,12.246 9.972,22.217 22.217,22.217 C -9.962,22.217 0,12.246 0,0"
             style="fill:#1a5072;fill-opacity:1;fill-rule:nonzero;stroke:none;stroke-width:50.9799"
             id="path876" />
        </g>
        <g
           transform="matrix(0.08019666,0,0,-0.08019666,-8.0203,12.286999)"
           id="g882"
           style="display:inline;fill:#1a5072;fill-opacity:1;stroke-width:50.9799">
          <path
             d="m 0,0 c 12.245,0 22.217,-9.971 22.217,-22.217 0,-12.254 -9.972,-22.225 -22.217,-22.225 -12.254,0 -22.226,9.971 -22.226,22.225 C -22.226,-9.971 -12.254,0 0,0"
             style="fill:#1a5072;fill-opacity:1;fill-rule:nonzero;stroke:none;stroke-width:50.9799"
             id="path880" />
        </g>
        <g
           transform="matrix(0.08019666,0,0,-0.08019666,-5.854133,-21.153432)"
           id="g886"
           style="display:inline;stroke-width:50.9799">
          <path
             d="m 0,0 c 0,-12.756 -10.373,-23.13 -23.13,-23.13 -12.757,0 -23.13,10.374 -23.13,23.13 0,12.757 10.373,23.13 23.13,23.13 C -10.373,23.13 0,12.757 0,0 m -23.13,-22.217 c 12.255,0 22.217,9.963 22.217,22.217 0,12.246 -9.962,22.217 -22.217,22.217 -12.245,0 -22.217,-9.971 -22.217,-22.217 0,-12.254 9.972,-22.217 22.217,-22.217"
             style="fill:#1a5072;fill-opacity:1;fill-rule:nonzero;stroke:none;stroke-width:50.9799"
             id="path884" />
        </g>
        <g
           transform="matrix(0.08019666,0,0,-0.08019666,-8.0203,15.851128)"
           id="g890"
           style="display:inline;stroke-width:50.9799">
          <path
             d="m 0,0 c 12.245,0 22.217,9.972 22.217,22.226 0,12.246 -9.972,22.216 -22.217,22.216 -12.254,0 -22.226,-9.97 -22.226,-22.216 C -22.226,9.972 -12.254,0 0,0 M 23.13,22.226 C 23.13,9.47 12.757,-0.913 0,-0.913 c -12.757,0 -23.139,10.383 -23.139,23.139 0,12.748 10.382,23.13 23.139,23.13 12.757,0 23.13,-10.382 23.13,-23.13"
             style="fill:#1a5072;fill-opacity:1;fill-rule:nonzero;stroke:none;stroke-width:50.9799"
             id="path888" />
        </g>
        <g
           transform="matrix(0.08019666,0,0,-0.08019666,30.029294,-16.915543)"
           id="g894"
           style="display:inline;stroke-width:50.9799">
          <path
             d="m 0,0 c -0.183,0.356 -19.423,38.005 -55.565,76.275 -33.348,35.312 -88.311,78.394 -160.815,83.152 -139.026,9.113 -208.115,2.84 -208.8,2.776 l -0.037,0.456 v -0.456 c -12.254,0 -22.226,-9.972 -22.226,-22.226 0,-12.246 9.972,-22.208 22.217,-22.217 l 64.825,1.781 c 12.756,0 23.139,-10.374 23.139,-23.131 0,-12.747 -10.364,-23.112 -23.103,-23.13 -14.455,-1.141 -17.496,-12.711 -17.496,-22.217 0,-11.843 9.296,-20.436 22.098,-20.436 h 22.674 c 12.756,0 23.139,-10.382 23.139,-23.139 0,-12.227 -9.944,-21.459 -23.139,-21.459 v 0.456 l -0.009,-0.456 -62.606,1.68 c -12.245,-0.009 -22.216,-9.972 -22.216,-22.217 0,-12.254 9.971,-22.226 22.225,-22.226 h 147.273 c 12.757,0 23.13,-10.373 23.13,-23.13 0,-12.757 -10.373,-23.13 -23.13,-23.13 h -124.599 c -11.058,0 -22.217,-5.835 -22.217,-18.875 0,-12.245 9.963,-22.216 22.217,-22.216 l 50.963,0.027 c 12.747,0 23.13,-10.374 23.13,-23.13 0,-12.757 -10.383,-23.13 -23.13,-23.13 h -50.963 c -11.277,0 -20.637,-8.265 -22.226,-18.994 -0.046,-12.711 -10.401,-23.039 -23.13,-23.039 l -97.543,-0.054 c -12.254,0 -22.217,-9.963 -22.217,-22.217 0,-11.725 9.132,-19.916 22.217,-19.916 l 50.872,-0.119 c 12.756,0 23.139,-10.373 23.139,-23.13 0,-12.254 9.962,-22.217 22.217,-22.217 l 188.611,2.128 0.009,-0.457 v 0.457 c 12.757,0 23.13,-10.373 23.13,-23.13 0,-12.757 -10.373,-23.131 -23.13,-23.131 h -165.947 c -12.254,0 -22.216,-9.97 -22.216,-22.217 0,-11.395 8.72,-18.764 22.216,-18.764 l 45.347,0.584 0.009,-0.456 v 0.456 c 12.748,0 23.13,-10.382 23.13,-23.13 0,-12.757 -10.382,-23.139 -23.13,-23.139 h -22.682 c -12.245,0 -22.217,-9.963 -22.217,-22.218 0,-11.724 9.131,-19.906 22.208,-19.915 l 33.375,0.977 0.009,-0.456 v 0.456 c 12.757,0 23.139,-10.373 23.139,-23.13 0,-12.255 9.963,-22.217 22.218,-22.217 h 5.533 c 12.757,0 23.13,-10.382 23.13,-23.13 0,-12.756 -10.373,-23.139 -23.13,-23.139 h -88.265 c -12.254,0 -22.217,-9.962 -22.217,-22.217 0,-12.254 9.963,-22.217 22.217,-22.217 l 284.491,3.197 0.01,-0.914 -284.491,-3.196 -0.01,0.456 v -0.456 c -12.757,0 -23.13,10.373 -23.13,23.13 0,12.757 10.373,23.13 23.13,23.13 h 88.265 c 12.255,0 22.217,9.972 22.217,22.226 0,12.246 -9.962,22.217 -22.217,22.217 h -5.533 c -12.757,0 -23.131,10.373 -23.131,23.13 0,12.255 -9.971,22.217 -22.216,22.217 l -33.367,-0.977 -0.018,0.456 v -0.456 c -13.405,0 -23.13,8.766 -23.13,20.828 0,12.757 10.382,23.131 23.13,23.131 h 22.682 c 12.246,0 22.217,9.971 22.217,22.226 0,12.245 -9.971,22.217 -22.217,22.217 l -45.347,-0.584 -0.009,0.456 v -0.456 c -13.834,0 -23.13,7.907 -23.13,19.677 0,12.749 10.374,23.131 23.13,23.131 h 165.947 c 12.255,0 22.217,9.962 22.217,22.217 0,12.254 -9.962,22.217 -22.217,22.217 l -188.62,-2.128 c -12.757,0 -23.13,10.373 -23.13,23.13 0,12.245 -9.972,22.217 -22.226,22.217 l -50.872,0.119 c -13.405,0 -23.13,8.757 -23.13,20.829 0,12.757 10.374,23.13 23.13,23.13 l 97.543,0.055 c 11.149,0 20.399,8.245 21.979,18.966 0.009,1.096 0.091,2.173 0.247,3.232 v 0.018 c 1.634,11.186 11.378,19.816 23.13,19.816 h 50.963 c 12.245,0 22.217,9.962 22.217,22.217 0,12.254 -9.972,22.216 -22.217,22.216 l -50.963,-0.027 c -12.757,0 -23.13,10.374 -23.13,23.13 0,11.835 9.296,19.788 23.13,19.788 h 124.599 c 12.245,0 22.217,9.963 22.217,22.217 0,12.255 -9.972,22.217 -22.217,22.217 h -147.273 c -12.756,0 -23.139,10.382 -23.139,23.139 0,12.748 10.383,23.13 23.139,23.13 v -0.456 l 0.009,0.456 62.606,-1.68 c 12.875,0.009 22.217,8.647 22.217,20.546 0,12.254 -9.971,22.226 -22.226,22.226 h -22.674 c -13.332,0 -23.011,8.976 -23.011,21.349 0,14.182 6.346,22.181 18.336,23.13 l 0.037,-0.456 v 0.456 c 12.254,0 22.226,9.963 22.226,22.217 0,12.255 -9.972,22.217 -22.226,22.217 l -64.807,-1.78 -0.009,0.456 v -0.456 c -12.756,0 -23.139,10.373 -23.139,23.13 0,12.747 10.364,23.121 23.103,23.129 0.968,0.147 71.17,5.324 208.928,-2.775 32.171,-1.891 63.583,-11.826 93.415,-28.901 23.851,-13.652 46.735,-31.997 68.02,-54.543 36.235,-38.37 55.52,-76.12 55.712,-76.494 0.383,-0.859 37.466,-84.11 30.59,-115.03 -6.775,-30.499 44.288,-71.143 44.809,-71.545 1.643,-1.415 39.95,-34.425 39.95,-52.305 0,-13.998 -13.195,-17.669 -23.806,-20.628 -3.278,-0.913 -6.374,-1.772 -8.802,-2.849 -9.315,-4.118 -4.987,-18.163 -4.383,-19.989 1.049,-0.493 4.72,-3.351 12.272,-19.751 8.428,-18.291 -3.196,-25.239 -4.447,-25.915 L 76.924,-341.28 c -0.101,-0.101 -4.393,-4.192 -3.698,-7.342 0.292,-1.324 1.461,-2.328 3.469,-2.995 8.784,-2.913 14.409,-14.729 14.648,-15.232 l 0.036,-0.136 c 0.018,-0.156 1.652,-14.793 -8.356,-19.779 -9.414,-4.694 -4.958,-31.239 -4.903,-31.512 15.15,-40.38 9.168,-63.182 8.894,-64.167 -1.89,-28.007 -25.257,-50.224 -53.739,-50.224 0,0 -20.793,0 -33.101,0.009 -34.81,-4.904 -62.725,-31.431 -69.4,-66.011 -0.383,-1.982 -0.52,-3.626 -0.648,-5.215 -0.137,-1.643 -0.283,-3.35 -0.694,-5.46 -0.073,-0.256 -1.525,-5.698 -6.547,-10.346 -4.146,-3.835 -9.825,-6.036 -15.578,-6.036 h -0.01 v 0.914 h 0.01 c 5.533,0 10.985,2.109 14.957,5.789 4.821,4.474 6.264,9.825 6.273,9.879 0.401,2.038 0.539,3.717 0.676,5.343 0.137,1.607 0.273,3.269 0.667,5.305 6.748,34.965 34.974,61.784 70.229,66.742 h 33.166 c 29.203,0 52.963,23.76 52.963,52.972 h 0.557 c 1.16,7.771 2.347,28.517 -9.561,60.267 -0.21,1.206 -4.63,27.569 5.388,32.564 9.076,4.529 7.972,17.679 7.853,18.783 -0.466,0.968 -5.991,11.999 -14.063,14.684 -2.337,0.776 -3.716,2.008 -4.081,3.662 -0.804,3.661 3.716,7.971 3.908,8.144 l 10.155,13.771 0.099,0.054 c 0.521,0.248 12.593,6.393 4.137,24.765 -8.364,18.145 -11.771,19.304 -11.916,19.341 l -0.256,0.046 -0.073,0.246 c -0.055,0.164 -5.89,16.601 4.803,21.331 2.502,1.096 5.625,1.973 8.94,2.895 10.839,3.013 23.13,6.437 23.13,19.742 0,17.459 -39.22,51.255 -39.622,51.593 -0.502,0.402 -52.013,41.402 -45.11,72.458 C 37.33,-83.809 0.375,-0.831 0,0"
             style="fill:#97c6d4;fill-opacity:1;fill-rule:nonzero;stroke:none;stroke-width:50.9799"
             id="path892" />
        </g>
        <g
           transform="matrix(0.08019666,0,0,-0.08019666,-4.073126,27.773244)"
           id="g898"
           style="display:inline;stroke-width:50.9799">
          <path
             d="m 0,0 c 0,-12.756 -10.383,-23.139 -23.139,-23.139 h -90.219 c -12.757,0 -23.14,10.383 -23.14,23.139 0,12.748 10.383,23.131 23.14,23.131 h 90.219 C -10.383,23.131 0,12.748 0,0 m -0.913,0 c 0,12.246 -9.972,22.218 -22.226,22.218 h -90.219 c -12.255,0 -22.226,-9.972 -22.226,-22.218 0,-12.254 9.971,-22.226 22.226,-22.226 h 90.219 c 12.254,0 22.226,9.972 22.226,22.226"
             style="fill:#1a5072;fill-opacity:1;fill-rule:nonzero;stroke:none;stroke-width:50.9799"
             id="path896-8" />
        </g>
        <g
           transform="matrix(0.08019666,0,0,-0.08019666,-7.265289,-8.997768)"
           id="g902"
           style="display:inline;stroke-width:50.9799">
          <path
             d="M 0,0 C 12.748,0 23.121,-10.383 23.121,-23.139 23.121,-35.887 12.748,-46.26 0,-46.26 h -92.027 c -12.757,0 -23.13,10.373 -23.13,23.121 0,12.756 10.373,23.139 23.13,23.139 z m 22.208,-23.139 c 0,12.254 -9.963,22.226 -22.208,22.226 h -92.027 c -12.255,0 -22.217,-9.972 -22.217,-22.226 0,-12.246 9.962,-22.208 22.217,-22.208 H 0 c 12.245,0 22.208,9.962 22.208,22.208"
             style="fill:#1a5072;fill-opacity:1;fill-rule:nonzero;stroke:none;stroke-width:50.9799"
             id="path900" />
        </g>
        <g
           transform="matrix(0.08019666,0,0,-0.08019666,-18.588326,1.722584)"
           id="g906"
           style="display:inline;fill:#1a5072;fill-opacity:1;stroke-width:50.9799">
          <path
             d="m 0,0 c 12.245,0 22.217,-9.963 22.217,-22.217 0,-12.255 -9.972,-22.217 -22.217,-22.217 -12.254,0 -22.226,9.962 -22.226,22.217 C -22.226,-9.963 -12.254,0 0,0"
             style="fill:#1a5072;fill-opacity:1;fill-rule:nonzero;stroke:none;stroke-width:50.9799"
             id="path904" />
        </g>
        <g
           transform="matrix(0.08019666,0,0,-0.08019666,-18.535621,-4.431764)"
           id="g910"
           style="display:inline;fill:#1a5072;fill-opacity:1;stroke-width:50.9799">
          <path
             d="m 0,0 c 4.027,-4.027 6.52,-9.579 6.52,-15.706 0,-12.254 -9.972,-22.217 -22.226,-22.217 h -55.419 c -12.254,0 -22.217,9.963 -22.217,22.217 0,12.245 9.963,22.217 22.217,22.217 h 55.419 C -9.579,6.511 -4.027,4.018 0,0"
             style="fill:#1a5072;fill-opacity:1;fill-rule:nonzero;stroke:none;stroke-width:50.9799"
             id="path908" />
        </g>
        <g
           transform="matrix(0.08019666,0,0,-0.08019666,-20.444005,3.504296)"
           id="g914"
           style="display:inline;stroke-width:50.9799">
          <path
             d="m 0,0 c 0,12.757 10.382,23.13 23.139,23.13 12.757,0 23.13,-10.373 23.13,-23.13 0,-12.757 -10.373,-23.13 -23.13,-23.13 C 10.382,-23.13 0,-12.757 0,0 M 23.139,22.217 C 10.885,22.217 0.913,12.254 0.913,0 c 0,-12.255 9.972,-22.217 22.226,-22.217 12.245,0 22.217,9.962 22.217,22.217 0,12.254 -9.972,22.217 -22.217,22.217"
             style="fill:#1a5072;fill-opacity:1;fill-rule:nonzero;stroke:none;stroke-width:50.9799"
             id="path912" />
        </g>
        <g
           transform="matrix(0.08019666,0,0,-0.08019666,-24.239606,-1.317254)"
           id="g918"
           style="display:inline;stroke-width:50.9799">
          <path
             d="m 0,0 c -12.757,0 -23.13,10.373 -23.13,23.13 0,12.757 10.373,23.13 23.13,23.13 h 55.428 c 12.757,0 23.13,-10.373 23.13,-23.13 C 78.558,10.373 68.185,0 55.428,0 Z m 0,45.347 c -12.254,0 -22.217,-9.972 -22.217,-22.217 0,-12.255 9.963,-22.217 22.217,-22.217 h 55.419 c 12.254,0 22.226,9.962 22.226,22.217 0,6.127 -2.493,11.679 -6.52,15.706 -4.027,4.018 -9.579,6.511 -15.706,6.511 z"
             style="fill:#1a5072;fill-opacity:1;fill-rule:nonzero;stroke:none;stroke-width:50.9799"
             id="path916" />
        </g>
        <g
           id="g926"
           style="display:inline;fill:#5fa6b7;fill-opacity:1;stroke-width:50.9799"
           transform="matrix(0.08019666,0,0,-0.08019666,-28.019376,36.184707)" />
        <g
           id="g950"
           style="display:inline;fill:#5fa6b7;fill-opacity:1;stroke-width:50.9799"
           transform="matrix(0.08019666,0,0,-0.08019666,-28.019376,36.184707)">
          <g
             clip-path="url(#clipPath930)"
             id="g948"
             style="fill:#5fa6b7;fill-opacity:1;stroke-width:50.9799">
            <g
               transform="translate(751.4609,342.9805)"
               id="g934"
               style="fill:#5fa6b7;fill-opacity:1;stroke-width:50.9799">
              <path
                 d="M 0,0 C 12.775,0 23.157,-10.392 23.157,-23.157 23.157,-35.923 12.775,-46.314 0,-46.314 l -2.63,0.21 c -11.387,0 -20.546,-7.772 -22.116,-18.209 -0.055,-11.853 -7.351,-24.409 -20.848,-24.409 l -38.662,-0.575 c -12.711,0 -19.559,-12.199 -19.559,-23.678 0,-11.414 8.729,-18.783 22.244,-18.783 l 56.25,-0.11 c 12.765,0 23.157,-10.392 23.157,-23.157 0,-12.775 -10.392,-23.158 -23.157,-23.158 h -28.308 c -11.287,0 -20.655,-8.273 -22.244,-19.02 -0.055,-12.721 -10.419,-23.067 -23.158,-23.067 l -58.14,-1.479 c -12.282,0 -22.263,-9.98 -22.263,-22.253 0,-11.734 9.15,-19.935 22.254,-19.935 l 65.153,0.458 -0.183,-0.449 h 0.046 c -0.046,-0.091 -0.073,-0.182 -0.118,-0.282 -0.156,-0.311 -0.302,-0.631 -0.439,-0.959 -0.037,-0.073 -0.073,-0.155 -0.092,-0.228 -0.027,-0.046 -0.045,-0.082 -0.063,-0.128 l -0.128,0.054 c 0.146,0.375 0.246,0.731 0.301,1.087 l -64.477,-0.466 c -13.424,0 -23.167,8.767 -23.167,20.848 0,12.774 10.392,23.166 23.167,23.166 l 58.14,1.48 c 11.168,0 20.427,8.263 22.017,18.993 0,1.095 0.082,2.174 0.237,3.232 v 0.019 c 1.634,11.204 11.395,19.842 23.157,19.842 h 28.308 c 12.263,0 22.244,9.972 22.244,22.245 0,12.263 -9.981,22.244 -22.244,22.244 l -56.25,0.11 c -13.853,0 -23.158,7.907 -23.158,19.696 0,11.917 7.168,24.591 20.463,24.591 l 38.663,0.575 c 11.707,0 18.538,9.936 19.752,20.3 h -0.045 c 0,1.114 0.082,2.2 0.237,3.269 v 0.054 h 0.009 c 1.626,10.885 11.168,18.995 23.057,18.995 l 2.63,-0.21 c 12.235,0 22.207,9.98 22.207,22.244 0,12.263 -9.972,22.244 -22.244,22.244 h -81.571 c -13.424,0 -23.158,8.767 -23.158,20.856 0,12.766 10.382,23.158 23.158,23.158 l 13.953,-0.274 c 12.518,0 22.335,9.442 22.335,21.486 0,11.771 -9.213,20.318 -21.906,20.318 l -9.378,-0.193 c -12.776,0 -23.167,10.393 -23.167,23.158 0,12.264 -9.981,22.245 -22.245,22.245 l -14.427,-0.037 c -13.414,0 -23.157,8.776 -23.157,20.857 0,12.765 10.391,23.157 23.157,23.157 l 23.258,1.141 c 11.177,0 20.445,8.264 22.025,18.994 0.009,1.096 0.092,2.173 0.247,3.233 v 0.027 c 1.579,10.83 10.757,19.258 21.997,19.797 v 0.53 c 11.168,0 20.428,8.264 22.007,18.993 0.01,1.096 0.092,2.164 0.237,3.223 0,0.01 0.01,0.019 0.01,0.028 1.635,11.195 11.396,19.833 23.157,19.833 l 17.807,2.731 c -1.571,5.789 -17.496,61.847 -60.286,115.367 -41.476,51.867 -117.395,111.897 -243.583,103.332 l -41.119,1.735 -103.569,-1.16 c -12.273,0 -22.254,-9.98 -22.254,-22.244 0,-12.264 9.981,-22.245 22.244,-22.245 l 62.506,1.781 0.027,-0.913 -62.514,-1.781 -0.009,0.457 v -0.457 c -12.775,0 -23.167,10.383 -23.167,23.158 0,12.766 10.392,23.157 23.167,23.157 l 103.587,1.16 41.092,-1.735 c 55.849,3.79 106.656,-5.406 150.98,-27.34 35.467,-17.551 66.87,-43.246 93.351,-76.366 45.064,-56.378 60.405,-115.578 60.561,-116.162 l 0.118,-0.493 -18.875,-2.895 c -11.35,0 -20.728,-8.282 -22.317,-19.02 0,-1.097 -0.083,-2.174 -0.238,-3.224 -1.562,-10.83 -10.638,-19.258 -21.76,-19.806 v -0.521 c -11.296,0 -20.665,-8.273 -22.254,-19.011 -0.045,-12.73 -10.409,-23.076 -23.148,-23.076 l -23.258,-1.141 c -12.291,0 -22.271,-9.981 -22.271,-22.244 0,-11.744 9.149,-19.944 22.244,-19.944 l 14.427,0.037 c 12.776,0 23.159,-10.392 23.159,-23.158 0,-12.263 9.98,-22.243 22.244,-22.243 l 9.378,0.191 c 13.231,0 22.828,-8.931 22.828,-21.231 0,-12.555 -10.218,-22.399 -23.258,-22.399 l -13.952,0.274 c -12.255,0 -22.235,-9.981 -22.235,-22.245 C -103.815,8.2 -94.666,0 -81.571,0 Z"
                 style="fill:#5fa6b7;fill-opacity:1;fill-rule:nonzero;stroke:none;stroke-width:50.9799"
                 id="path932" />
            </g>
            <g
               transform="translate(751.4609,342.0674)"
               id="g938"
               style="fill:#5fa6b7;fill-opacity:1;stroke-width:50.9799">
              <path
                 d="m 0,0 c 12.272,0 22.244,-9.98 22.244,-22.244 0,-12.264 -9.972,-22.244 -22.207,-22.244 l -2.63,0.21 c -11.889,0 -21.431,-8.11 -23.057,-18.994 h -0.009 v -0.055 c -0.155,-1.069 -0.237,-2.154 -0.237,-3.269 h 0.045 c -1.214,-10.364 -8.045,-20.3 -19.752,-20.3 l -38.663,-0.575 c -13.295,0 -20.463,-12.674 -20.463,-24.591 0,-11.789 9.305,-19.696 23.158,-19.696 l 56.25,-0.11 c 12.263,0 22.244,-9.981 22.244,-22.244 0,-12.273 -9.981,-22.244 -22.244,-22.244 h -28.308 c -11.762,0 -21.523,-8.639 -23.157,-19.843 v -0.019 c -0.155,-1.058 -0.237,-2.136 -0.237,-3.232 -1.59,-10.73 -10.849,-18.993 -22.017,-18.993 l -58.14,-1.48 c -12.775,0 -23.167,-10.391 -23.167,-23.166 0,-12.081 9.743,-20.848 23.167,-20.848 l 64.477,0.466 c -0.055,-0.356 -0.155,-0.712 -0.301,-1.087 -0.247,-0.621 -0.612,-1.269 -1.014,-2.008 -0.849,-1.553 -1.908,-3.48 -2.529,-6.228 -0.602,-2.666 -0.904,-5.406 -1.187,-8.054 -1.197,-10.985 -2.329,-21.358 -25.248,-24.673 l -217.266,-2.329 0.009,-0.429 -0.082,0.429 -66.98,-0.749 v -0.008 c -12.263,0.008 -22.235,9.989 -22.235,22.253 0,12.263 9.981,22.244 22.244,22.244 h 88.366 c 12.775,0 23.166,10.382 23.166,23.158 0,12.765 -10.391,23.157 -23.166,23.157 h -5.543 c -12.263,0 -22.244,9.981 -22.244,22.244 0,12.776 -10.383,23.157 -23.158,23.157 v -0.456 l -0.009,0.456 -33.412,-0.976 c -13.095,0.009 -22.235,8.2 -22.235,19.943 0,12.263 9.981,22.244 22.244,22.244 h 22.701 c 12.766,0 23.158,10.392 23.158,23.158 0,12.765 -10.392,23.157 -23.158,23.157 v -0.456 l -0.009,0.456 -45.402,-0.584 c -13.505,0 -22.244,7.378 -22.244,18.783 0,12.273 9.981,22.244 22.253,22.244 h 166.138 c 12.766,0 23.159,10.392 23.159,23.167 0,12.766 -10.393,23.157 -23.159,23.157 V 1.442 l -0.008,0.457 -188.84,-2.136 c -12.264,0 -22.244,9.98 -22.244,22.244 0,12.765 -10.382,23.157 -23.157,23.157 l -50.936,0.119 c -13.094,0 -22.244,8.2 -22.244,19.944 0,12.263 9.981,22.244 22.244,22.244 l 97.661,0.046 c 12.739,0 23.112,10.345 23.158,23.074 1.588,10.739 10.958,19.012 22.244,19.012 h 51.027 c 12.766,0 23.157,10.383 23.157,23.158 0,9.432 -5.734,17.66 -13.971,21.23 -0.119,0.055 -0.246,0.11 -0.365,0.165 -0.53,0.219 -1.059,0.42 -1.607,0.602 l 0.475,-0.018 c -0.174,0.101 -0.338,0.21 -0.503,0.311 -0.392,0.2 -0.766,0.42 -1.141,0.657 l -6.045,0.21 -51.027,-0.027 c -12.263,0 -22.244,9.981 -22.244,22.244 0,13.049 11.177,18.893 22.244,18.893 h 124.745 c 12.949,0 23.094,10.027 23.094,22.829 0,12.948 -10.355,23.486 -23.094,23.486 h -147.446 c -12.263,0 -22.244,9.981 -22.244,22.253 0,12.264 9.981,22.236 22.244,22.245 l 62.679,-1.68 0.009,0.456 v -0.456 c 13.204,0 23.157,9.24 23.157,21.486 0,12.766 -10.382,23.157 -23.157,23.157 h -22.701 c -12.82,0 -22.126,8.602 -22.126,20.464 0,9.515 3.041,21.103 17.515,22.244 12.756,0.019 23.13,10.401 23.13,23.158 0,12.766 -10.392,23.157 -23.158,23.157 v -0.913 h -2.374 l -0.027,0.913 -62.506,-1.781 c -12.263,0 -22.244,9.981 -22.244,22.245 0,12.264 9.981,22.244 22.254,22.244 l 103.569,1.16 41.119,-1.735 c 126.188,8.565 202.107,-51.465 243.583,-103.332 42.79,-53.52 58.715,-109.578 60.286,-115.367 l -17.807,-2.731 c -11.761,0 -21.522,-8.638 -23.157,-19.833 0,-0.009 -0.01,-0.018 -0.01,-0.028 -0.145,-1.059 -0.227,-2.127 -0.237,-3.223 -1.579,-10.729 -10.839,-18.993 -22.007,-18.993 v -0.53 c -11.24,-0.539 -20.418,-8.967 -21.997,-19.797 v -0.027 c -0.155,-1.06 -0.238,-2.137 -0.247,-3.233 -1.58,-10.73 -10.848,-18.993 -22.025,-18.993 l -23.258,-1.142 c -12.766,0 -23.157,-10.392 -23.157,-23.157 0,-12.081 9.743,-20.857 23.157,-20.857 l 14.427,0.037 c 12.264,0 22.245,-9.981 22.245,-22.245 0,-12.765 10.391,-23.157 23.167,-23.157 l 9.378,0.192 c 12.693,0 21.906,-8.547 21.906,-20.317 0,-12.045 -9.817,-21.487 -22.335,-21.487 l -13.953,0.274 c -12.776,0 -23.158,-10.392 -23.158,-23.158 C -104.729,8.767 -94.995,0 -81.571,0 Z"
                 style="fill:#5fa6b7;fill-opacity:1;fill-rule:nonzero;stroke:none;stroke-width:50.9799"
                 id="path936" />
            </g>
            <g
               transform="translate(658.457,77.5098)"
               id="g942"
               style="fill:#5fa6b7;fill-opacity:1;stroke-width:50.9799">
              <path
                 d="m 0,0 0.128,-0.055 c -0.201,-0.483 -0.375,-0.986 -0.521,-1.488 -0.119,-0.311 -0.219,-0.63 -0.319,-0.95 -0.083,-0.237 -0.174,-0.475 -0.247,-0.712 -0.155,-0.393 -0.292,-0.794 -0.401,-1.196 -0.21,-0.502 -0.393,-1.023 -0.539,-1.552 -0.284,-0.74 -0.548,-1.571 -0.758,-2.485 -0.594,-2.62 -0.886,-5.323 -1.169,-7.944 -1.233,-11.35 -2.402,-22.07 -26.089,-25.495 l -217.32,-2.328 v 0.246 0.22 0.017 l -0.009,0.43 217.265,2.328 c 22.92,3.316 24.052,13.689 25.249,24.674 0.283,2.647 0.584,5.388 1.187,8.054 0.621,2.748 1.68,4.674 2.529,6.227 C -0.612,-1.27 -0.247,-0.621 0,0"
                 style="fill:#5fa6b7;fill-opacity:1;fill-rule:nonzero;stroke:none;stroke-width:50.9799"
                 id="path940" />
            </g>
            <g
               transform="translate(206.4302,429.5381)"
               id="g946"
               style="fill:#5fa6b7;fill-opacity:1;stroke-width:50.9799">
              <path
                 d="m 0,0 c -12.264,0 -22.245,-9.98 -22.245,-22.244 0,-11.743 9.15,-19.944 22.245,-19.944 l 50.936,-0.119 c 12.774,0 23.157,-10.391 23.157,-23.157 0,-12.264 9.98,-22.244 22.244,-22.244 l 188.839,2.137 0.009,-0.457 v 0.457 c 12.766,0 23.158,-10.392 23.158,-23.158 0,-12.775 -10.392,-23.167 -23.158,-23.167 H 119.047 c -12.273,0 -22.254,-9.971 -22.254,-22.244 0,-11.405 8.74,-18.783 22.245,-18.783 l 45.401,0.584 0.01,-0.456 v 0.456 c 12.766,0 23.157,-10.391 23.157,-23.157 0,-12.766 -10.391,-23.157 -23.157,-23.157 h -22.701 c -12.264,0 -22.245,-9.982 -22.245,-22.244 0,-11.744 9.141,-19.935 22.236,-19.944 l 33.412,0.977 0.009,-0.456 v 0.456 c 12.775,0 23.157,-10.382 23.157,-23.157 0,-12.264 9.981,-22.245 22.245,-22.245 h 5.542 c 12.775,0 23.167,-10.391 23.167,-23.157 0,-12.775 -10.392,-23.158 -23.167,-23.158 h -88.365 c -12.263,0 -22.244,-9.981 -22.244,-22.244 0,-12.264 9.971,-22.244 22.235,-22.253 v 0.009 l 66.979,0.749 0.083,-0.43 v -0.018 -0.219 -0.246 h -0.083 l -66.97,-0.749 v -0.009 c -12.765,0 -23.157,10.391 -23.157,23.166 0,12.765 10.392,23.157 23.157,23.157 h 88.365 c 12.273,0 22.254,9.981 22.254,22.245 0,12.264 -9.981,22.244 -22.254,22.244 h -5.542 c -12.766,0 -23.158,10.392 -23.158,23.158 0,12.263 -9.971,22.244 -22.235,22.244 l -33.412,-0.977 -0.009,0.456 v -0.456 c -13.423,0 -23.158,8.775 -23.158,20.857 0,12.765 10.383,23.157 23.158,23.157 h 22.701 c 12.263,0 22.244,9.98 22.244,22.244 0,12.264 -9.981,22.244 -22.244,22.244 l -45.402,-0.584 c -13.852,0 -23.167,7.917 -23.167,19.696 0,12.776 10.392,23.158 23.167,23.158 h 166.138 c 12.264,0 22.244,9.98 22.244,22.253 0,12.264 -9.98,22.245 -22.244,22.245 l -188.839,-2.137 -0.009,0.456 v -0.456 c -12.766,0 -23.157,10.383 -23.157,23.157 0,12.264 -9.981,22.244 -22.244,22.244 L 0,-43.101 c -13.423,0 -23.158,8.776 -23.158,20.857 0,12.765 10.383,23.157 23.158,23.157 l 97.661,0.046 c 11.159,0 20.427,8.264 22.007,18.993 0,1.096 0.082,2.173 0.237,3.233 v 0.027 h 0.01 c 1.634,11.195 11.387,19.834 23.148,19.834 h 51.027 c 12.263,0 22.244,9.98 22.244,22.244 0,11.643 -9.086,21.377 -20.674,22.18 v 0.009 l -1.589,0.055 -50.999,-0.027 -0.009,0.456 v -0.456 c -12.766,0 -23.158,10.391 -23.158,23.158 0,11.843 9.315,19.806 23.158,19.806 h 124.745 c 12.438,0 22.181,9.624 22.181,21.915 0,12.447 -9.953,22.573 -22.181,22.573 H 120.362 c -12.766,0 -23.157,10.392 -23.157,23.166 0,12.767 10.391,23.158 23.157,23.158 v -0.456 l 0.018,0.456 62.679,-1.68 c 12.884,0.009 22.235,8.657 22.235,20.573 0,12.264 -9.972,22.244 -22.244,22.244 h -22.701 c -13.35,0 -23.039,8.986 -23.039,21.377 0,14.2 6.356,22.208 18.363,23.158 l 0.037,-0.457 v 0.457 c 12.264,0 22.244,9.981 22.244,22.244 0,12.264 -9.98,22.244 -22.244,22.244 v 0.913 c 12.766,0 23.158,-10.391 23.158,-23.157 0,-12.757 -10.374,-23.139 -23.131,-23.157 -14.473,-1.142 -17.514,-12.73 -17.514,-22.245 0,-11.861 9.305,-20.464 22.126,-20.464 h 22.701 c 12.775,0 23.157,-10.391 23.157,-23.157 0,-12.245 -9.953,-21.486 -23.157,-21.486 v 0.456 l -0.009,-0.456 -62.679,1.68 c -12.263,-0.009 -22.244,-9.981 -22.244,-22.245 0,-12.272 9.981,-22.253 22.244,-22.253 h 147.446 c 12.738,0 23.094,-10.538 23.094,-23.486 0,-12.802 -10.146,-22.829 -23.094,-22.829 H 143.063 c -11.067,0 -22.245,-5.844 -22.245,-18.892 0,-12.264 9.981,-22.245 22.245,-22.245 l 51.027,0.027 6.045,-0.21 c 0.374,-0.237 0.748,-0.456 1.141,-0.657 0.164,-0.101 0.329,-0.21 0.502,-0.31 l -0.474,0.018 c 0.548,-0.183 1.077,-0.384 1.607,-0.603 0.118,-0.055 0.246,-0.109 0.365,-0.164 8.237,-3.571 13.971,-11.798 13.971,-21.231 0,-12.775 -10.392,-23.158 -23.157,-23.158 h -51.027 c -11.287,0 -20.656,-8.273 -22.245,-19.011 C 120.773,10.392 110.399,0.046 97.661,0.046 Z"
                 style="fill:#5fa6b7;fill-opacity:1;fill-rule:nonzero;stroke:none;stroke-width:50.9799"
                 id="path944" />
            </g>
          </g>
        </g>
        <g
           id="g954"
           style="display:inline;fill:#1188a2;fill-opacity:1;stroke-width:50.9799"
           transform="matrix(0.08019666,0,0,-0.08019666,-28.019376,36.184707)" />
        <g
           id="g974"
           style="display:inline;fill:#1188a2;fill-opacity:1;stroke-width:50.9799"
           transform="matrix(0.08019666,0,0,-0.08019666,-28.019376,36.184707)">
          <g
             clip-path="url(#clipPath958)"
             id="g972"
             style="fill:#1188a2;fill-opacity:1;stroke-width:50.9799">
            <g
               transform="translate(393.8901,233.8877)"
               id="g962"
               style="fill:#1188a2;fill-opacity:1;stroke-width:50.9799">
              <path
                 d="m 0,0 c 0,12.767 -10.382,23.148 -23.148,23.148 v -0.456 l -0.009,0.456 -45.375,-0.584 c -13.505,0 -22.226,7.37 -22.226,18.775 0,12.254 9.972,22.235 22.236,22.235 H 97.515 c 12.766,0 23.149,10.382 23.149,23.139 0,12.766 -10.383,23.148 -23.149,23.148 l -188.729,-2.136 c -12.264,0 -22.235,9.971 -22.235,22.235 0,12.757 -10.383,23.148 -23.149,23.148 l -50.908,0.119 c -13.085,0 -22.226,8.191 -22.226,19.924 0,12.255 9.972,22.236 22.226,22.236 l 97.607,0.046 c 12.738,0 23.093,10.337 23.148,23.056 1.589,10.73 10.949,19.003 22.235,19.003 H 6.475 c 12.765,0 23.148,10.383 23.148,23.149 0,9.168 -5.424,17.185 -13.296,20.911 -0.566,0.191 -1.114,0.428 -1.643,0.694 -0.329,0.128 -0.658,0.264 -0.996,0.374 l 0.338,-0.009 c -0.182,0.109 -0.347,0.237 -0.529,0.356 -0.466,0.182 -0.932,0.384 -1.379,0.621 l -5.643,0.192 -50.991,-0.028 c -12.263,0 -22.235,9.972 -22.235,22.235 0,13.04 11.168,18.884 22.235,18.884 H 80.157 v -0.009 c 12.765,0 23.148,10.392 23.148,23.148 0,12.766 -10.383,23.158 -23.148,23.158 v -0.009 H -67.208 c -12.254,0 -22.235,9.981 -22.235,22.235 0,12.254 9.972,22.226 22.226,22.235 l 62.652,-1.68 0.008,0.457 v -0.457 c 13.196,0 23.149,9.232 23.149,21.477 0,12.757 -10.383,23.139 -23.149,23.139 h -22.691 c -12.812,0 -22.107,8.602 -22.107,20.455 0,9.515 3.041,21.094 17.504,22.235 12.748,0.009 23.112,10.391 23.112,23.139 0,12.766 -10.382,23.148 -23.148,23.148 l -64.861,-1.78 c -12.264,0 -22.226,9.971 -22.226,22.226 0,12.263 9.972,22.235 22.235,22.235 l 103.506,1.16 35.165,-1.488 c -10.154,-2.356 -17.24,-10.739 -17.24,-21.323 0,-12.765 10.382,-23.148 23.148,-23.148 l 141.52,0.366 c 12.255,0 22.225,-9.972 22.225,-22.227 0,-11.917 -9.35,-20.564 -22.225,-20.564 l -5.963,0.055 c -12.766,0 -23.148,-10.383 -23.148,-23.148 0,-12.757 10.382,-23.139 23.157,-23.139 l 23.085,0.657 c 12.209,0 20.098,-7.89 20.098,-20.098 0,-12.757 10.382,-23.139 23.139,-23.139 l 27.313,-0.238 c 12.253,0 22.225,-9.971 22.225,-22.226 0,-11.917 -9.341,-20.564 -22.317,-20.573 l -8.355,-1.653 c -11.761,0 -21.514,-8.629 -23.148,-19.825 v -0.018 c -0.155,-1.059 -0.238,-2.136 -0.247,-3.233 -1.579,-10.72 -10.839,-18.975 -21.989,-18.975 l -59.929,-0.493 c -13.086,0 -22.199,-13.98 -22.236,-26.545 -1.58,-10.721 -10.838,-18.975 -21.989,-18.975 v -0.073 c -11.687,-1.16 -20.838,-11.049 -20.838,-23.03 0,-11.77 9.306,-19.687 23.14,-19.687 l 54.588,-1.151 h 2.447 c 12.264,0 22.235,-9.971 22.235,-22.235 0,-12.255 -9.971,-22.236 -22.226,-22.236 l -65.956,1.425 c -12.767,0 -23.149,-10.383 -23.149,-23.148 0,-11.771 9.305,-19.688 23.149,-19.688 l 53.218,0.585 c 12.209,0 20.098,-7.889 20.098,-20.098 0,-12.766 10.383,-23.149 23.176,-23.149 l 2.931,0.174 c 12.255,0 22.226,-9.972 22.226,-22.235 0,-12.766 10.392,-23.149 23.149,-23.149 h 5.543 c 12.254,0 22.234,-9.971 22.234,-22.235 0,-12.254 -9.98,-22.226 -22.226,-22.226 l -42.544,1.059 c -11.751,0 -21.504,-8.638 -23.138,-19.824 h -0.01 V 0.493 c -0.145,-1.058 -0.237,-2.145 -0.237,-3.241 -1.579,-10.721 -10.839,-18.976 -21.997,-18.976 l -62.423,-0.51 c -12.767,0 -23.149,-10.383 -23.149,-23.14 0,-12.766 10.382,-23.148 23.149,-23.148 l 95.369,1.15 c 12.264,0 22.234,-9.972 22.234,-22.234 0,-12.255 -9.97,-22.227 -22.234,-22.227 h -47.493 c -11.762,0 -21.514,-8.629 -23.149,-19.824 v -0.019 c -0.155,-1.059 -0.237,-2.145 -0.237,-3.241 -1.58,-10.721 -10.839,-18.976 -21.998,-18.976 l -27.495,-0.438 c -12.756,0 -23.148,-10.382 -23.148,-23.148 0,-10.529 6.995,-19.624 16.628,-22.427 h -0.1 l -63.656,0.192 v -0.448 l -0.082,0.448 -66.934,-0.749 c -6.127,0 -11.679,2.492 -15.706,6.52 -4.027,4.027 -6.52,9.579 -6.52,15.715 0,12.254 9.972,22.226 22.236,22.226 H 38.48 c 12.757,0 23.14,10.383 23.14,23.148 0,12.766 -10.383,23.149 -23.14,23.149 h -5.542 c -12.255,0 -22.236,9.972 -22.236,22.235 0,12.756 -10.382,23.139 -23.139,23.139 v -0.456 l -0.018,0.456 -33.394,-0.977 c -13.086,0.009 -22.217,8.2 -22.217,19.934 0,12.255 9.972,22.227 22.226,22.227 h 22.692 C -10.382,-23.147 0,-12.766 0,0"
                 style="fill:#1188a2;fill-opacity:1;fill-rule:nonzero;stroke:none;stroke-width:50.9799"
                 id="path960" />
            </g>
            <g
               transform="translate(515.2568,514.4531)"
               id="g966"
               style="fill:#1188a2;fill-opacity:1;stroke-width:50.9799">
              <path
                 d="m 0,0 c -12.264,0 -22.235,-9.981 -22.235,-22.235 0,-11.406 8.73,-18.775 22.235,-18.775 l 54.588,-1.15 h 2.438 c 12.766,0 23.149,-10.382 23.149,-23.149 0,-12.756 -10.383,-23.148 -23.149,-23.148 l -65.957,1.425 c -12.254,0 -22.225,-9.972 -22.225,-22.236 0,-11.405 8.729,-18.774 22.235,-18.774 l 53.218,0.585 c 12.766,0 21.012,-8.255 21.012,-21.012 0,-12.263 9.971,-22.235 22.235,-22.235 l 2.931,0.174 c 12.784,0 23.167,-10.383 23.167,-23.149 0,-12.263 9.98,-22.235 22.235,-22.235 h 5.543 c 12.756,0 23.147,-10.383 23.147,-23.148 0,-12.757 -10.391,-23.139 -23.147,-23.139 l -42.544,1.058 c -11.277,0 -20.638,-8.272 -22.227,-19.002 -0.045,-12.72 -10.409,-23.057 -23.138,-23.057 l -62.432,-0.511 c -12.264,0 -22.235,-9.972 -22.235,-22.226 0,-12.264 9.971,-22.236 22.235,-22.236 l 95.369,1.151 c 12.766,0 23.149,-10.382 23.149,-23.148 0,-12.757 -10.383,-23.14 -23.149,-23.14 H 38.955 c -11.286,0 -20.646,-8.273 -22.235,-19.002 -0.046,-12.72 -10.41,-23.057 -23.149,-23.057 l -27.485,-0.439 c -12.264,0 -22.244,-9.971 -22.244,-22.235 0,-6.127 2.437,-11.716 6.419,-15.769 3.972,-4.064 9.478,-6.584 15.615,-6.584 l -6.319,-0.074 c -9.634,2.804 -16.628,11.899 -16.628,22.427 0,12.767 10.391,23.149 23.147,23.149 l 27.495,0.438 c 11.159,0 20.418,8.255 21.998,18.976 0,1.095 0.082,2.181 0.238,3.241 v 0.018 c 1.634,11.196 11.386,19.825 23.148,19.825 h 47.493 c 12.264,0 22.235,9.971 22.235,22.226 0,12.263 -9.971,22.235 -22.235,22.235 l -95.369,-1.151 c -12.766,0 -23.148,10.383 -23.148,23.149 0,12.756 10.382,23.139 23.148,23.139 l 62.423,0.511 c 11.158,0 20.418,8.255 21.997,18.976 0,1.095 0.092,2.182 0.237,3.241 v 0.018 h 0.01 c 1.634,11.187 11.387,19.825 23.139,19.825 l 42.544,-1.059 c 12.245,0 22.225,9.972 22.225,22.226 0,12.263 -9.98,22.235 -22.234,22.235 h -5.543 c -12.757,0 -23.148,10.383 -23.148,23.148 0,12.264 -9.972,22.236 -22.227,22.236 l -2.931,-0.174 c -12.793,0 -23.175,10.383 -23.175,23.148 0,12.209 -7.89,20.099 -20.099,20.099 l -53.218,-0.585 c -13.844,0 -23.148,7.917 -23.148,19.687 0,12.766 10.382,23.149 23.148,23.149 l 65.956,-1.425 c 12.255,0 22.227,9.981 22.227,22.235 0,12.264 -9.972,22.236 -22.236,22.236 h -2.447 l -54.588,1.15 c -13.834,0 -23.139,7.917 -23.139,19.688 0,11.98 9.15,21.87 20.837,23.029 v 0.073 c 11.151,0 20.41,8.255 21.99,18.976 0.036,12.565 9.149,26.545 22.235,26.545 l 59.93,0.493 c 11.149,0 20.409,8.255 21.988,18.975 0.01,1.096 0.092,2.173 0.247,3.233 v 0.018 c 1.634,11.195 11.387,19.825 23.149,19.825 l 8.354,1.652 c 12.977,0.009 22.317,8.657 22.317,20.574 0,12.254 -9.971,22.225 -22.225,22.225 l -27.313,0.238 c -12.757,0 -23.138,10.382 -23.138,23.139 0,12.209 -7.89,20.098 -20.099,20.098 l -23.085,-0.657 c -12.774,0 -23.157,10.382 -23.157,23.139 0,12.766 10.383,23.149 23.148,23.149 l 5.963,-0.055 c 12.875,0 22.226,8.647 22.226,20.564 0,12.254 -9.971,22.226 -22.226,22.226 l -141.519,-0.365 c -12.766,0 -23.149,10.382 -23.149,23.148 0,10.583 7.086,18.966 17.24,21.322 l -35.165,1.488 -103.505,-1.159 c -12.264,0 -22.236,-9.972 -22.236,-22.236 0,-12.254 9.963,-22.226 22.226,-22.226 l 64.862,1.781 v -0.913 l -64.843,-1.781 -0.019,0.457 v -0.457 c -12.756,0 -23.139,10.383 -23.139,23.139 0,12.766 10.383,23.149 23.139,23.149 l 103.533,1.159 41.073,-1.734 -0.027,-0.913 c -12.674,0 -22.226,-9.059 -22.226,-21.076 0,-12.264 9.972,-22.235 22.226,-22.235 l 141.52,0.365 c 12.766,0 23.149,-10.383 23.149,-23.139 0,-12.246 -9.945,-21.477 -23.14,-21.477 l -5.972,0.054 c -12.254,0 -22.226,-9.971 -22.226,-22.235 0,-12.254 9.972,-22.226 22.235,-22.226 l 23.084,0.657 c 12.776,0 21.022,-8.245 21.022,-21.011 0,-12.254 9.971,-22.226 22.234,-22.226 l 27.304,-0.237 c 12.757,0 23.138,-10.383 23.138,-23.139 0,-12.246 -9.943,-21.478 -23.138,-21.478 L 147.31,88.027 C 135.949,88.018 126.571,79.754 124.992,69.016 124.938,56.295 114.573,45.968 101.844,45.968 l -59.93,-0.493 c -11.095,0 -19.643,-11.223 -21.103,-22.372 h 0.027 C 20.838,11.113 11.68,1.232 0,0.073 Z"
                 style="fill:#1188a2;fill-opacity:1;fill-rule:nonzero;stroke:none;stroke-width:50.9799"
                 id="path964" />
            </g>
            <g
               transform="translate(370.7422,211.6533)"
               id="g1033"
               style="fill:#1188a2;fill-opacity:1;stroke-width:50.9799">
              <path
                 d="M 0,0 C 12.263,0 22.235,9.98 22.235,22.234 22.235,34.489 12.263,44.47 0,44.47 l -45.375,-0.584 c -13.852,0 -23.148,7.907 -23.148,19.687 0,12.757 10.383,23.149 23.148,23.149 h 166.038 c 12.264,0 22.235,9.971 22.235,22.225 0,12.264 -9.971,22.236 -22.225,22.236 l -188.739,-2.137 c -12.766,0 -23.148,10.383 -23.148,23.148 0,12.254 -9.972,22.236 -22.236,22.236 l -50.908,0.118 c -13.414,0 -23.139,8.757 -23.139,20.838 0,12.757 10.383,23.139 23.139,23.148 l 97.607,0.046 c 11.158,0 20.418,8.255 21.998,18.984 0,1.096 0.082,2.174 0.237,3.224 v 0.027 c 1.634,11.195 11.387,19.825 23.148,19.825 h 50.991 c 12.263,0 22.234,9.971 22.234,22.235 0,11.633 -9.076,21.368 -20.664,22.162 v 0.009 l -1.589,0.055 -50.972,-0.028 c -12.766,0 -23.148,10.383 -23.148,23.149 0,11.843 9.305,19.797 23.148,19.797 h 124.673 v -0.009 c 12.263,0 22.234,9.98 22.234,22.235 0,12.263 -9.971,22.235 -22.234,22.244 V 392.48 H -44.06 c -12.765,0 -23.148,10.382 -23.148,23.148 0,12.766 10.383,23.149 23.148,23.149 v -0.457 l 0.01,0.457 62.651,-1.68 c 12.875,0.008 22.226,8.647 22.226,20.564 0,12.254 -9.972,22.226 -22.236,22.226 H -4.1 c -13.332,0 -23.021,8.985 -23.021,21.367 0,14.2 6.347,22.199 18.346,23.14 l 0.036,-0.448 v 0.457 c 12.263,0 22.235,9.971 22.235,22.225 0,12.264 -9.972,22.236 -22.235,22.236 v 0.913 c 12.766,0 23.148,-10.382 23.148,-23.149 0,-12.747 -10.364,-23.129 -23.112,-23.139 -14.464,-1.141 -17.505,-12.719 -17.505,-22.235 0,-11.852 9.296,-20.454 22.108,-20.454 h 22.691 c 12.766,0 23.149,-10.383 23.149,-23.139 0,-12.246 -9.953,-21.478 -23.149,-21.478 v 0.457 l -0.008,-0.457 -62.652,1.68 c -12.254,-0.009 -22.226,-9.98 -22.226,-22.235 0,-12.254 9.981,-22.235 22.235,-22.235 h 147.365 v 0.009 c 12.765,0 23.148,-10.391 23.148,-23.157 0,-12.757 -10.383,-23.148 -23.148,-23.148 v 0.008 H -21.368 c -11.067,0 -22.235,-5.843 -22.235,-18.883 0,-12.264 9.972,-22.235 22.235,-22.235 l 50.991,0.027 5.643,-0.192 c 0.447,-0.237 0.913,-0.438 1.379,-0.621 0.182,-0.118 0.347,-0.246 0.529,-0.356 l -0.338,0.009 c 0.338,-0.109 0.667,-0.246 0.996,-0.374 0.529,-0.265 1.077,-0.502 1.643,-0.694 7.872,-3.726 13.296,-11.743 13.296,-20.911 0,-12.766 -10.383,-23.148 -23.148,-23.148 h -50.991 c -11.286,0 -20.646,-8.274 -22.235,-19.003 -0.055,-12.72 -10.41,-23.057 -23.148,-23.057 l -97.607,-0.046 c -12.254,0 -22.226,-9.98 -22.226,-22.235 0,-11.734 9.141,-19.925 22.226,-19.925 l 50.908,-0.118 c 12.766,0 23.149,-10.392 23.149,-23.149 0,-12.263 9.971,-22.235 22.235,-22.235 l 188.729,2.137 c 12.766,0 23.149,-10.383 23.149,-23.149 0,-12.757 -10.383,-23.138 -23.149,-23.138 H -45.375 c -12.263,0 -22.235,-9.982 -22.235,-22.236 0,-11.405 8.721,-18.774 22.226,-18.774 L -0.009,45.383 0,44.927 v 0.456 c 12.766,0 23.148,-10.382 23.148,-23.149 C 23.148,9.469 12.766,-0.913 0,-0.913 h -22.692 c -12.254,0 -22.226,-9.972 -22.226,-22.227 0,-11.734 9.131,-19.924 22.217,-19.933 l 33.394,0.976 0.018,-0.456 v 0.456 c 12.757,0 23.139,-10.382 23.139,-23.138 0,-12.264 9.981,-22.236 22.235,-22.236 h 5.543 c 12.757,0 23.14,-10.383 23.14,-23.148 0,-12.766 -10.383,-23.149 -23.14,-23.149 h -88.319 c -12.264,0 -22.236,-9.971 -22.236,-22.225 0,-6.137 2.493,-11.689 6.52,-15.716 4.027,-4.027 9.579,-6.52 15.706,-6.52 l 66.934,0.75 0.082,-0.449 v 0.449 l 63.656,-0.193 -63.646,-0.722 h -0.083 l -66.933,-0.748 c -12.767,0 -23.149,10.382 -23.149,23.149 0,12.756 10.382,23.139 23.149,23.139 h 88.319 c 12.255,0 22.226,9.98 22.226,22.235 0,12.264 -9.971,22.235 -22.226,22.235 h -5.543 c -12.765,0 -23.148,10.382 -23.148,23.149 0,12.254 -9.962,22.225 -22.226,22.225 l -33.385,-0.976 -0.018,0.456 v -0.456 c -13.405,0 -23.139,8.765 -23.139,20.846 0,12.757 10.382,23.14 23.139,23.14 z"
                 style="fill:#1188a2;fill-opacity:1;fill-rule:nonzero;stroke:none;stroke-width:50.9799"
                 id="path968" />
            </g>
          </g>
        </g>
        <g
           id="g978"
           style="display:inline;fill:#1a5072;fill-opacity:1;stroke-width:50.9799"
           transform="matrix(0.08019666,0,0,-0.08019666,-28.019376,36.184707)" />
        <g
           id="g1038"
           style="display:inline;fill:#1a5072;fill-opacity:1;stroke-width:50.9799"
           transform="matrix(0.08019666,0,0,-0.08019666,-28.019376,36.184707)">
          <g
             clip-path="url(#clipPath982)"
             id="g1036"
             style="fill:#1a5072;fill-opacity:1;stroke-width:50.9799">
            <g
               transform="translate(547.4639,320.9277)"
               id="g986"
               style="fill:#1a5072;fill-opacity:1;stroke-width:50.9799">
              <path
                 d="m 0,0 c 0,-12.264 -9.972,-22.235 -22.235,-22.235 h -26.536 c 9.652,2.785 16.728,11.698 16.728,22.235 0,10.538 -7.076,19.45 -16.728,22.244 h 26.536 C -9.972,22.244 0,12.264 0,0"
                 style="fill:#1a5072;fill-opacity:1;fill-rule:nonzero;stroke:none;stroke-width:50.9799"
                 id="path984" />
            </g>
            <g
               transform="translate(452.6787,146.6904)"
               id="g990"
               style="fill:#1a5072;fill-opacity:1;stroke-width:50.9799">
              <path
                 d="m 0,0 c 0,-12.775 10.383,-23.158 23.148,-23.158 h 5.543 c 12.264,0 22.245,-9.981 22.245,-22.244 0,-12.254 -9.981,-22.236 -22.245,-22.236 h -41.74 c 0.302,0.092 0.603,0.183 0.895,0.284 9.196,3.068 15.834,11.743 15.834,21.952 0,12.775 -10.382,23.158 -23.148,23.158 h -5.543 c -12.263,0 -22.244,9.98 -22.244,22.244 0,12.766 -10.383,23.148 -23.149,23.148 v -0.457 l -0.018,0.457 -33.403,-0.977 c -13.085,0 -22.226,8.2 -22.226,19.933 0,12.264 9.972,22.236 22.235,22.236 h 22.701 c 12.766,0 23.149,10.391 23.149,23.158 0,12.766 -10.383,23.157 -23.149,23.157 v -0.457 l -0.009,0.457 -45.383,-0.585 c -13.515,0 -22.245,7.369 -22.245,18.775 0,12.263 9.981,22.244 22.245,22.244 H 3.644 c -8.757,-3.315 -14.995,-11.771 -14.995,-21.669 0,-12.071 9.735,-20.838 23.159,-20.838 l 43.283,0.575 c 12.263,0 22.244,-9.98 22.244,-22.244 0,-12.264 -9.981,-22.235 -22.235,-22.235 l -84.54,0.575 c -12.766,0 -23.148,-10.382 -23.148,-23.149 0,-12.08 9.725,-20.846 23.203,-20.837 h 0.009 l 7.132,0.967 C -9.98,22.234 0,12.264 0,0"
                 style="fill:#1a5072;fill-opacity:1;fill-rule:nonzero;stroke:none;stroke-width:50.9799"
                 id="path988" />
            </g>
            <g
               transform="translate(442.3057,122.0439)"
               id="g994"
               style="fill:#1a5072;fill-opacity:1;stroke-width:50.9799">
              <path
                 d="m 0,0 c 7.98,-3.378 13.597,-11.295 13.597,-20.491 0,-5.141 -1.753,-9.88 -4.703,-13.652 2.228,3.69 3.397,8.201 3.397,13.131 C 12.291,-11.506 7.771,-3.78 0,0"
                 style="fill:#1a5072;fill-opacity:1;fill-rule:nonzero;stroke:none;stroke-width:50.9799"
                 id="path992" />
            </g>
            <g
               transform="translate(455.9023,101.5527)"
               id="g998"
               style="fill:#1a5072;fill-opacity:1;stroke-width:50.9799">
              <path
                 d="m 0,0 c 0,9.196 -5.616,17.113 -13.597,20.491 -0.018,0.01 -0.037,0.019 -0.054,0.019 -2.658,1.287 -5.68,2.109 -9.04,2.384 12.765,0 23.147,-10.383 23.147,-23.159 0,-10.209 -6.638,-18.883 -15.834,-21.952 4.685,1.571 8.282,4.584 10.666,8.538 0.009,0.01 0.019,0.019 0.009,0.028 C -1.753,-9.88 0,-5.141 0,0"
                 style="fill:#1a5072;fill-opacity:1;fill-rule:nonzero;stroke:none;stroke-width:50.9799"
                 id="path996" />
            </g>
            <g
               transform="translate(439.3838,494.353)"
               id="g1002"
               style="fill:#1a5072;fill-opacity:1;stroke-width:50.9799">
              <path
                 d="m 0,0 c 0,-12.766 10.392,-23.148 23.176,-23.148 l 12.336,0.548 c 12.263,0 22.244,-9.972 22.244,-22.235 0,-11.78 -9.36,-20.318 -22.244,-20.318 H -96.803 c -12.739,0 -22.345,-9.734 -22.345,-22.637 0,-10.319 6.995,-18.308 17.806,-20.354 l 0.055,-0.009 29.742,1.296 c 12.263,0 22.244,-9.98 22.244,-22.244 0,-10.409 6.912,-19.239 16.382,-22.144 l -102.538,-1.15 -0.457,-0.01 c -12.263,0 -22.234,9.972 -22.234,22.236 0,12.611 -10.145,22.911 -22.702,23.148 -0.146,0.01 -0.301,0.01 -0.456,0.01 l -50.926,0.118 c -13.095,0 -22.235,8.2 -22.235,19.935 0,12.262 9.971,22.234 22.235,22.234 l 97.643,0.055 c 6.364,0 12.145,2.584 16.336,6.757 4.182,4.183 6.794,9.945 6.812,16.309 1.589,10.729 10.958,19.003 22.244,19.003 h 51.009 c 12.766,0 23.148,10.392 23.148,23.157 0,10.172 -6.666,18.948 -15.907,21.989 l 8.712,-0.301 C -9.972,22.245 0,12.264 0,0"
                 style="fill:#1a5072;fill-opacity:1;fill-rule:nonzero;stroke:none;stroke-width:50.9799"
                 id="path1000" />
            </g>
            <g
               transform="translate(350.187,559.1592)"
               id="g1006"
               style="fill:#1a5072;fill-opacity:1;stroke-width:50.9799">
              <path
                 d="m 0,0 h 50.524 c -9.35,-2.693 -15.806,-11.14 -15.806,-21.714 0,-9.104 5.433,-16.382 14.163,-19.387 L 0,-41.128 c -12.264,0 -22.244,9.981 -22.244,22.244 C -22.244,-5.844 -11.067,0 0,0"
                 style="fill:#1a5072;fill-opacity:1;fill-rule:nonzero;stroke:none;stroke-width:50.9799"
                 id="path1004" />
            </g>
            <g
               transform="translate(405.0581,34.3359)"
               id="g1010"
               style="fill:#1a5072;fill-opacity:1;stroke-width:50.9799">
              <path
                 d="m 0,0 -60.204,-0.676 c -6.136,0 -11.688,2.493 -15.715,6.521 -4.027,4.026 -6.52,9.588 -6.52,15.715 0,12.263 9.972,22.244 22.235,22.244 H 0.694 C -8.985,40.9 -16.318,31.367 -16.318,20.409 -16.318,10.31 -9.762,2.484 0,0"
                 style="fill:#1a5072;fill-opacity:1;fill-rule:nonzero;stroke:none;stroke-width:50.9799"
                 id="path1008" />
            </g>
            <g
               transform="translate(428.1152,123.7979)"
               id="g1014"
               style="fill:#1a5072;fill-opacity:1;stroke-width:50.9799">
              <path
                 d="m 0,0 c -12.766,0 -24.436,9.853 -24.436,22.618 0,12.264 -8.684,22.765 -20.948,22.775 l -0.447,-0.01 -0.009,0.201 v 0.457 c 12.766,0 23.148,-10.383 23.148,-23.148 0,-12.264 9.981,-22.245 22.244,-22.245 h 5.544 c 3.36,-0.274 6.383,-1.096 9.04,-2.383 C 11.487,-0.612 8.584,0 5.543,0 Z"
                 style="fill:#1a5072;fill-opacity:1;fill-rule:nonzero;stroke:none;stroke-width:50.9799"
                 id="path1012" />
            </g>
            <g
               transform="translate(326.6279,188.7949)"
               id="g1018"
               style="fill:#1a5072;fill-opacity:1;stroke-width:50.9799">
              <path
                 d="m 0,0 c 0,-11.733 9.141,-19.934 22.226,-19.934 l 33.403,0.978 0.018,-0.457 0.009,-0.201 -32.955,-0.968 -0.01,0.329 v -0.329 c -13.414,0 -23.157,8.767 -23.157,20.838 0,12.775 10.392,23.158 23.157,23.158 h 22.692 c 12.264,0 20.966,9.414 20.966,21.678 0,12.263 -8.702,22.802 -20.966,22.802 l -0.447,-0.01 v 0.21 0.457 c 12.766,0 23.148,-10.392 23.148,-23.157 0,-12.767 -10.382,-23.159 -23.148,-23.159 H 22.235 C 9.972,22.235 0,12.264 0,0"
                 style="fill:#1a5072;fill-opacity:1;fill-rule:nonzero;stroke:none;stroke-width:50.9799"
                 id="path1016" />
            </g>
            <g
               transform="translate(345.3472,713.3535)"
               id="g1022"
               style="fill:#1a5072;fill-opacity:1;stroke-width:50.9799">
              <path
                 d="m 0,0 c 0,9.524 3.041,21.103 17.505,22.245 12.757,0.018 23.121,10.4 23.121,23.157 0,12.765 -10.382,23.148 -23.148,23.148 v -0.456 l -0.019,0.456 -64.87,-1.78 c -12.263,0 -22.235,9.971 -22.235,22.235 0,12.264 9.981,22.244 22.245,22.244 l 96.866,1.078 C 39.951,109.45 33.011,100.602 33.011,90.165 33.011,77.645 43,68.203 56.25,68.203 h 29.632 c 12.191,0 21.048,-8.857 21.048,-21.048 0,-12.766 10.382,-23.157 23.139,-23.157 l 32.353,-0.859 c 12.263,0 22.245,-9.98 22.245,-22.244 0,-12.264 -9.982,-22.235 -22.254,-22.235 l -27.303,-0.758 c -12.766,0 -23.149,-10.382 -23.149,-23.149 0,-11.971 9.853,-20.655 23.45,-20.655 l 28.691,0.822 c 12.3,0 20.565,-8.264 20.565,-20.564 0,-12.766 10.381,-23.158 23.148,-23.158 6.136,0 11.687,-2.492 15.724,-6.519 4.027,-4.036 6.52,-9.589 6.52,-15.725 0,-12.254 -9.98,-22.235 -22.244,-22.235 v 0.018 H 136.9 c 9.624,2.804 16.674,11.707 16.674,22.217 0,12.775 -10.383,23.158 -23.149,23.158 H -17.861 c -12.264,0 -22.235,9.98 -22.235,22.244 0,12.254 9.971,22.235 22.235,22.235 l 62.66,-1.671 0.018,0.456 v -0.456 c 13.196,0 23.149,9.232 23.149,21.477 0,12.766 -10.383,23.148 -23.149,23.148 h -22.7 C 9.305,-20.455 0,-11.853 0,0"
                 style="fill:#1a5072;fill-opacity:1;fill-rule:nonzero;stroke:none;stroke-width:50.9799"
                 id="path1020" />
            </g>
            <g
               transform="translate(345.3472,713.3535)"
               id="g1026"
               style="fill:#1a5072;fill-opacity:1;stroke-width:50.9799">
              <path
                 d="m 0,0 c 0,-11.853 9.305,-20.455 22.117,-20.455 h 22.7 c 12.766,0 23.149,-10.382 23.149,-23.148 0,-12.245 -9.953,-21.477 -23.149,-21.477 v 0.456 l -0.018,-0.456 -62.66,1.671 c -12.264,0 -22.235,-9.981 -22.235,-22.235 0,-12.264 9.971,-22.244 22.235,-22.244 h 148.286 c 12.766,0 23.149,-10.383 23.149,-23.158 0,-10.51 -7.05,-19.413 -16.674,-22.217 h 70.915 v -0.018 c 12.264,0 22.244,9.981 22.244,22.235 0,6.136 -2.493,11.689 -6.52,15.725 -4.037,4.027 -9.588,6.519 -15.724,6.519 -12.767,0 -23.148,10.392 -23.148,23.158 0,12.3 -8.265,20.564 -20.565,20.564 l -28.691,-0.822 c -13.597,0 -23.45,8.684 -23.45,20.655 0,12.767 10.383,23.149 23.149,23.149 l 27.303,0.758 c 12.272,0 22.254,9.971 22.254,22.235 0,12.264 -9.982,22.244 -22.245,22.244 l -32.353,0.859 c -12.757,0 -23.139,10.391 -23.139,23.157 0,12.191 -8.857,21.048 -21.048,21.048 H 56.25 c -13.25,0 -23.239,9.442 -23.239,21.962 0,10.437 6.94,19.285 16.454,22.162 l -96.866,-1.078 c -12.264,0 -22.245,-9.98 -22.245,-22.244 0,-12.264 9.972,-22.235 22.235,-22.235 l 64.87,1.78 0.019,-0.456 V 68.55 C 30.244,68.55 40.626,58.167 40.626,45.402 40.626,32.645 30.262,22.263 17.505,22.245 3.041,21.103 0,9.524 0,0 m 135.128,-23.011 c -12.282,0 -22.253,-9.972 -22.253,-22.236 0,-11.624 9.259,-19.742 22.527,-19.742 l 28.681,0.822 c 12.867,0 21.497,-8.629 21.497,-21.477 0,-12.264 9.971,-22.244 22.235,-22.244 12.774,0 23.157,-10.383 23.157,-23.158 0,-12.766 -10.383,-23.148 -23.157,-23.148 v 0.018 h -76.778 c -0.21,-0.009 -0.411,-0.018 -0.612,-0.018 v 0.018 0.895 0.018 h 0.612 c 11.98,0.329 21.624,10.163 21.624,22.217 0,12.264 -9.972,22.244 -22.236,22.244 H -17.861 c -12.766,0 -23.148,10.392 -23.148,23.158 0,12.766 10.382,23.148 23.148,23.148 v -0.456 l 0.018,0.456 62.66,-1.671 c 12.885,0 22.236,8.647 22.236,20.564 0,12.264 -9.981,22.235 -22.236,22.235 h -22.7 c -13.342,0 -23.03,8.986 -23.03,21.368 0,14.208 6.347,22.208 18.354,23.158 l 0.037,-0.457 v 0.457 c 12.263,0 22.235,9.98 22.235,22.244 0,12.254 -9.972,22.235 -22.235,22.235 l -64.87,-1.781 -0.019,0.457 v -0.457 c -12.765,0 -23.148,10.383 -23.148,23.149 0,12.766 10.383,23.157 25.13,23.176 l 48.507,1.397 53.081,-0.265 C 44.133,113.048 33.924,102.254 33.924,90.165 c 0,-11.999 9.597,-21.049 22.326,-21.049 h 29.632 c 12.72,0 21.961,-9.241 21.961,-21.961 0,-12.263 9.972,-22.244 22.236,-22.244 l 32.361,-0.859 c 12.748,0 23.14,-10.391 23.14,-23.157 0,-12.766 -10.392,-23.148 -23.158,-23.148 z"
                 style="fill:#1a5072;fill-opacity:1;fill-rule:nonzero;stroke:none;stroke-width:50.9799"
                 id="path1024" />
            </g>
            <g
               transform="translate(258.5342,387.1406)"
               id="g1030"
               style="fill:#1a5072;fill-opacity:1;stroke-width:50.9799">
              <path
                 d="m 0,0 v 0.191 c 12.556,-0.237 22.701,-10.537 22.701,-23.148 0,-12.264 9.971,-22.235 22.235,-22.235 l 0.457,0.009 v -0.21 -0.457 c -12.766,0 -24.317,10.018 -24.317,22.784 0,12.263 -8.822,22.609 -21.076,22.609 v 0.32 z"
                 style="fill:#1a5072;fill-opacity:1;fill-rule:nonzero;stroke:none;stroke-width:50.9799"
                 id="path1028" />
            </g>
            <g
               transform="translate(475.8271,123.5322)"
               id="g1034"
               style="fill:#1a5072;fill-opacity:1;stroke-width:50.9799">
              <path
                 d="m 0,0 c -12.766,0 -23.148,10.383 -23.148,23.158 0,12.264 -9.981,22.235 -22.245,22.235 l -7.131,-0.968 h -0.009 c -13.479,-0.009 -23.203,8.758 -23.203,20.838 0,12.766 10.382,23.148 23.148,23.148 l 84.539,-0.575 c 12.254,0 22.236,9.972 22.236,22.235 0,12.264 -9.982,22.244 -22.245,22.244 l -43.283,-0.575 c -13.424,0 -23.158,8.767 -23.158,20.838 0,9.899 6.237,18.355 14.994,21.669 h -130.151 c -12.263,0 -22.244,-9.98 -22.244,-22.244 0,-11.405 8.73,-18.774 22.244,-18.774 l 45.384,0.584 0.009,-0.457 v -0.21 l -44.936,-0.575 -0.009,0.457 v -0.457 c -13.844,0 -23.149,7.917 -23.149,19.697 0,12.766 10.383,23.148 23.149,23.148 h 133.191 c 0.603,0.037 1.178,0.046 1.745,0.046 1.123,0 2.2,-0.046 3.378,-0.046 h 26.171 1.617 c 12.263,0 21.138,9.598 21.138,21.861 0,12.264 -8.875,22.619 -21.138,22.619 l -79.034,-0.895 v -0.174 c -0.867,0 -1.726,0.055 -2.566,0.147 L -171.9,217.759 v 0.457 0.21 l 102.537,1.15 c -9.469,2.904 -16.382,11.735 -16.382,22.144 0,12.263 -9.981,22.244 -22.244,22.244 l -29.741,-1.296 -0.055,0.009 c -10.812,2.046 -17.806,10.035 -17.806,20.354 0,12.903 9.606,22.637 22.344,22.637 H -0.932 c 12.885,0 22.244,8.538 22.244,20.317 0,12.264 -9.98,22.236 -22.244,22.236 l -12.336,-0.548 c -12.784,0 -23.175,10.382 -23.175,23.148 0,12.263 -9.973,22.244 -22.236,22.244 l -8.711,0.302 c 9.241,-3.041 15.907,-11.817 15.907,-21.989 0,-12.766 -10.383,-23.157 -23.149,-23.157 h -51.008 c -11.287,0 -20.655,-8.274 -22.244,-19.003 -0.019,-6.364 -2.63,-12.127 -6.812,-16.309 -4.192,-4.173 -9.972,-6.758 -16.337,-6.758 l -97.643,-0.054 c -12.263,0 -22.235,-9.972 -22.235,-22.235 0,-11.734 9.141,-19.934 22.235,-19.934 l 50.926,-0.118 c 0.156,0 0.311,0 0.457,-0.01 v -0.192 -0.136 l -0.009,-0.321 -50.917,0.12 c -13.414,0.008 -23.157,8.775 -23.157,20.846 0,6.383 2.593,12.173 6.793,16.364 4.191,4.192 9.981,6.794 16.364,6.794 l 97.634,0.045 c 11.158,0 20.418,8.264 21.998,18.985 0.008,1.105 0.091,2.182 0.246,3.242 v 0.018 c 1.634,11.195 11.387,19.833 23.148,19.833 h 51.009 c 12.264,0 22.244,9.972 22.244,22.236 0,11.642 -9.077,21.377 -20.674,22.171 -0.018,0.009 -0.045,0.018 -0.063,0.018 l -1.516,0.055 -51,-0.027 c -12.765,0 -23.148,10.382 -23.148,23.148 0,11.843 9.305,19.806 23.148,19.806 H -0.475 v -0.913 H -68.13 c -12.218,0 -21.422,-9.342 -21.422,-21.724 0,-9.835 6.656,-17.45 16.966,-19.432 l 14.373,-0.502 c 12.747,0 23.139,-10.382 23.139,-23.148 0,-12.264 9.98,-22.245 22.235,-22.245 l 12.337,0.557 c 12.793,0 23.176,-10.391 23.176,-23.157 0,-12.3 -9.735,-21.23 -23.149,-21.23 h -132.324 c -12.218,0 -21.423,-9.333 -21.423,-21.715 0,-9.854 6.676,-17.478 17.003,-19.45 l 29.659,1.287 c 12.793,0 23.176,-10.382 23.176,-23.149 0,-11.414 8.648,-20.846 19.733,-22.097 l 81.535,0.922 h 32.965 c 12.765,0 23.157,-10.382 23.157,-23.149 0,-12.765 -10.392,-23.157 -23.157,-23.157 H 16.894 15.277 -15.907 c -9.853,-2.282 -17.231,-11.122 -17.231,-21.659 0,-11.735 9.15,-19.935 22.244,-19.935 l 43.284,0.575 c 12.774,0 23.157,-10.382 23.157,-23.148 0,-12.774 -10.383,-23.157 -23.149,-23.157 l -84.539,0.584 c -12.254,0 -22.235,-9.981 -22.235,-22.244 0,-11.734 9.15,-19.925 22.244,-19.925 L -45,46.562 h 0.009 c 12.821,0 23.203,-10.382 23.203,-23.149 0,-12.263 9.981,-22.234 22.245,-22.234 h 5.542 c 12.767,0 23.148,-10.392 23.148,-23.158 0,-12.766 -10.381,-23.158 -23.148,-23.158 h -69.481 c -12.054,0 -22.245,-10.711 -22.245,-23.385 0,-11.789 9.242,-21.697 22.126,-21.697 l -66.915,-0.301 v -0.009 c -13.25,-1.762 -24.409,10.574 -24.409,23.349 0,12.766 10.821,23.751 24.409,22.956 h 88.347 c 7.113,0 13.45,3.352 17.532,8.566 -2.384,-3.954 -5.981,-6.967 -10.666,-8.538 -0.292,-0.101 -0.593,-0.192 -0.894,-0.283 h 41.74 c 12.264,0 22.244,9.981 22.244,22.235 C 27.787,-9.98 17.807,0 5.543,0 Z m -130.973,-89.872 60.204,0.676 c -9.762,2.484 -16.318,10.309 -16.318,20.409 0,10.958 7.333,20.491 17.012,23.394 h -60.898 c -12.263,0 -22.235,-9.98 -22.235,-22.244 0,-6.127 2.493,-11.688 6.52,-15.715 4.027,-4.027 9.579,-6.52 15.715,-6.52 m 55.857,525.499 h -50.524 c -11.068,0 -22.244,-5.844 -22.244,-18.884 0,-12.264 9.98,-22.244 22.244,-22.244 l 48.881,0.027 c -8.73,3.005 -14.163,10.283 -14.163,19.387 0,10.574 6.456,19.021 15.806,21.714 M 22.865,219.64 c 9.653,-2.794 16.729,-11.706 16.729,-22.244 0,-10.538 -7.076,-19.451 -16.729,-22.236 h 26.536 c 12.264,0 22.236,9.972 22.236,22.236 0,12.263 -9.972,22.244 -22.236,22.244 z"
                 style="fill:#1a5072;fill-opacity:1;fill-rule:nonzero;stroke:none;stroke-width:50.9799"
                 id="path1032" />
            </g>
          </g>
        </g>
        <text
           xml:space="preserve"
           transform="matrix(0.27430674,0,0,0.27430674,-30.515269,-88.437535)"
           id="text4679"
           style="font-style:normal;font-variant:normal;font-weight:normal;font-stretch:normal;font-size:8px;line-height:1.25;font-family:'Courier New';-inkscape-font-specification:'Courier New';white-space:pre;shape-inside:url(#rect4681);stroke-width:50.9799" />
      </g>
      <g
         id="g5781"
         transform="matrix(0.34566072,0,0,-0.34566072,72.357188,18.677028)"
         style="fill:#ff9400;fill-opacity:1">
        <path
           d="m 0,0 c -2.094,0 -3.79,1.697 -3.79,3.79 0,2.093 1.696,3.791 3.79,3.791 2.093,0 3.79,-1.698 3.79,-3.791 C 3.79,1.697 2.093,0 0,0 M 8.501,5.444 C 8.276,6.606 7.823,7.687 7.185,8.633 L 4.716,8.507 4.842,10.975 C 3.896,11.614 2.815,12.067 1.653,12.292 L 0,10.46 -1.653,12.292 c -1.162,-0.225 -2.243,-0.678 -3.19,-1.317 L -4.717,8.507 -7.185,8.633 C -7.824,7.687 -8.276,6.606 -8.502,5.444 L -6.67,3.79 -8.502,2.137 c 0.226,-1.162 0.678,-2.243 1.317,-3.189 l 2.468,0.126 -0.126,-2.469 c 0.947,-0.638 2.028,-1.091 3.19,-1.316 L 0,-2.88 1.653,-4.711 c 1.162,0.225 2.243,0.678 3.189,1.316 l -0.126,2.469 2.469,-0.126 c 0.638,0.946 1.091,2.027 1.316,3.189 L 6.67,3.79 Z"
           style="fill:#ff9400;fill-opacity:1;fill-rule:nonzero;stroke:none"
           id="path5779" />
      </g>
      <g
         id="g5785"
         transform="matrix(0.87074998,0,0,-0.87074998,89.974238,71.521064)"
         style="fill:#ff9400;fill-opacity:1">
        <path
           d="m 0,0 c -2.094,0 -3.79,1.697 -3.79,3.79 0,2.093 1.696,3.791 3.79,3.791 2.093,0 3.79,-1.698 3.79,-3.791 C 3.79,1.697 2.093,0 0,0 M 8.501,5.444 C 8.276,6.606 7.823,7.687 7.185,8.633 L 4.716,8.507 4.842,10.975 C 3.896,11.614 2.815,12.067 1.653,12.292 L 0,10.46 -1.653,12.292 c -1.162,-0.225 -2.243,-0.678 -3.19,-1.317 L -4.717,8.507 -7.185,8.633 C -7.824,7.687 -8.276,6.606 -8.502,5.444 L -6.67,3.79 -8.502,2.137 c 0.226,-1.162 0.678,-2.243 1.317,-3.189 l 2.468,0.126 -0.126,-2.469 c 0.947,-0.638 2.028,-1.091 3.19,-1.316 L 0,-2.88 1.653,-4.711 c 1.162,0.225 2.243,0.678 3.189,1.316 l -0.126,2.469 2.469,-0.126 c 0.638,0.946 1.091,2.027 1.316,3.189 L 6.67,3.79 Z"
           style="fill:#ff9400;fill-opacity:1;fill-rule:nonzero;stroke:none"
           id="path5783" />
      </g>
      <text
         xml:space="preserve"
         style="font-size:3.7241px;line-height:1.25;font-family:sans-serif;fill:#ff9400;fill-opacity:1;stroke-width:0.232756"
         x="23.505169"
         y="92.470139"
         id="text18259"><tspan
           sodipodi:role="line"
           id="tspan18257"
           style="fill:#ff9400;fill-opacity:1;stroke-width:0.232756"
           x="23.505169"
           y="92.470139" /></text>
      <text
         xml:space="preserve"
         style="font-size:7.76111px;line-height:1.25;font-family:'Oriya Sangam MN';-inkscape-font-specification:'Oriya Sangam MN';fill:#ff9400;fill-opacity:1;stroke-width:0.44425"
         x="21.773237"
         y="93.109589"
         id="text53282"
         transform="scale(0.94952171,1.0531618)"><tspan
           sodipodi:role="line"
           style="font-style:normal;font-variant:normal;font-weight:900;font-stretch:normal;font-size:7.76111px;font-family:'Arial Black';-inkscape-font-specification:'Arial Black,  Heavy';fill:#ff9400;fill-opacity:1;stroke-width:0.44425"
           x="21.773237"
           y="93.109589"
           id="tspan58264">WhatsApp</tspan></text>
      <text
         xml:space="preserve"
         style="font-size:4.23333px;line-height:1.25;font-family:'Oriya Sangam MN';-inkscape-font-specification:'Oriya Sangam MN';stroke-width:0.264583"
         x="64.072792"
         y="95.58828"
         id="text58534"><tspan
           sodipodi:role="line"
           id="tspan58532"
           style="stroke-width:0.264583"
           x="64.072792"
           y="95.58828"> </tspan></text>
      <text
         xml:space="preserve"
         style="font-style:normal;font-variant:normal;font-weight:normal;font-stretch:normal;font-size:7.76111px;line-height:1.25;font-family:'Arial Black';-inkscape-font-specification:'Arial Black, ';fill:#ffffff;fill-opacity:1;stroke-width:0.46574"
         x="63.308105"
         y="98.391876"
         id="text59374"
         transform="scale(1.0016662,0.99833658)"><tspan
           sodipodi:role="line"
           id="tspan59372"
           style="font-style:normal;font-variant:normal;font-weight:900;font-stretch:normal;font-size:7.76111px;font-family:'Arial Black';-inkscape-font-specification:'Arial Black,  Heavy';fill:#ffffff;fill-opacity:1;stroke-width:0.46574"
           x="63.308105"
           y="98.391876">Integration</tspan></text>
      <text
         xml:space="preserve"
         style="font-size:3.52778px;line-height:1.25;font-family:'Oriya Sangam MN';-inkscape-font-specification:'Oriya Sangam MN';fill:#ffffff;fill-opacity:1;stroke-width:0.264583"
         x="22.188475"
         y="104.96478"
         id="text64778"><tspan
           sodipodi:role="line"
           id="tspan64776"
           style="font-style:normal;font-variant:normal;font-weight:normal;font-stretch:normal;font-size:3.52778px;font-family:Arial;-inkscape-font-specification:Arial;fill:#ffffff;fill-opacity:1;stroke-width:0.264583"
           x="22.188475"
           y="104.96478">GET THE REPORTS DIRECTLY TO YOUR WHATSAPP</tspan></text>
      <circle
         style="fill:#ff9400;fill-opacity:1;stroke:none;stroke-width:1;stroke-linecap:round;stroke-miterlimit:4;stroke-dasharray:none;stroke-opacity:1"
         id="path116543"
         cx="112.98706"
         cy="97.432518"
         r="1.041834"
         inkscape:transform-center-y="1.0833534" />
    </g>
  </g>
</svg>
