<?xml version="1.0" encoding="UTF-8" standalone="no"?>
<!-- Created with Inkscape (http://www.inkscape.org/) -->

<svg
   width="514.87933"
   height="516.63196"
   viewBox="0 0 136.22848 136.6922"
   version="1.1"
   id="svg1082"
   inkscape:version="1.2-dev (9ee32be, 2021-06-19)"
   sodipodi:docname="Bluedeck Fuel.svg"
   xmlns:inkscape="http://www.inkscape.org/namespaces/inkscape"
   xmlns:sodipodi="http://sodipodi.sourceforge.net/DTD/sodipodi-0.dtd"
   xmlns="http://www.w3.org/2000/svg"
   xmlns:svg="http://www.w3.org/2000/svg">
  <sodipodi:namedview
     id="namedview1084"
     pagecolor="#ffffff"
     bordercolor="#666666"
     borderopacity="1.0"
     inkscape:pageshadow="2"
     inkscape:pageopacity="0.0"
     inkscape:pagecheckerboard="0"
     inkscape:document-units="mm"
     showgrid="false"
     units="px"
     inkscape:zoom="1.4498268"
     inkscape:cx="261.41054"
     inkscape:cy="224.50958"
     inkscape:window-width="1440"
     inkscape:window-height="847"
     inkscape:window-x="0"
     inkscape:window-y="25"
     inkscape:window-maximized="0"
     inkscape:current-layer="layer1"
     inkscape:snap-global="false"
     fit-margin-top="0"
     fit-margin-left="0"
     fit-margin-right="0"
     fit-margin-bottom="0" />
  <defs
     id="defs1079">
    <clipPath
       clipPathUnits="userSpaceOnUse"
       id="clipPath930">
      <path
         d="M 183.273,826.675 H 774.619 V 32.5465 H 183.273 Z"
         id="path928" />
    </clipPath>
    <clipPath
       clipPathUnits="userSpaceOnUse"
       id="clipPath958">
      <path
         d="M 183.245,826.184 H 694.07 V 32.5114 H 183.245 Z"
         id="path956" />
    </clipPath>
    <clipPath
       clipPathUnits="userSpaceOnUse"
       id="clipPath982">
      <path
         d="M 184.451,826.931 H 576.319 V 32.8344 H 184.451 Z"
         id="path980" />
    </clipPath>
    <rect
       x="303.66043"
       y="218.08339"
       width="789.51709"
       height="223.60449"
       id="rect4681" />
    <clipPath
       clipPathUnits="userSpaceOnUse"
       id="clipPath1056">
      <path
         d="M 0,800 H 800 V 0 H 0 Z"
         id="path1054" />
    </clipPath>
    <clipPath
       clipPathUnits="userSpaceOnUse"
       id="clipPath1192">
      <path
         d="M 0,800 H 800 V 0 H 0 Z"
         id="path1190" />
    </clipPath>
  </defs>
  <g
     inkscape:label="Layer 1"
     inkscape:groupmode="layer"
     id="layer1"
     transform="translate(0.01301822,0.23666683)">
    <g
       id="g2079">
      <path
         id="rect13868"
         style="fill:#ffffff;stroke:#ffffff;stroke-width:2.99817;stroke-opacity:1"
         d="M 13.420476,1.4320007 122.7817,1.67745 134.57797,134.95641 H 1.6242083 Z"
         sodipodi:nodetypes="ccccc" />
      <text
         xml:space="preserve"
         style="font-size:3.7241px;line-height:1.25;font-family:sans-serif;fill:#ff9400;fill-opacity:1;stroke-width:0.232756"
         x="23.505169"
         y="92.470139"
         id="text18259"><tspan
           sodipodi:role="line"
           id="tspan18257"
           style="fill:#ff9400;fill-opacity:1;stroke-width:0.232756"
           x="23.505169"
           y="92.470139" /></text>
      <text
         xml:space="preserve"
         style="font-size:7.76111px;line-height:1.25;font-family:'Oriya Sangam MN';-inkscape-font-specification:'Oriya Sangam MN';fill:#ff9400;fill-opacity:1;stroke-width:0.44425"
         x="34.033802"
         y="93.109589"
         id="text53282"
         transform="scale(0.94952171,1.0531618)"><tspan
           sodipodi:role="line"
           style="font-style:normal;font-variant:normal;font-weight:900;font-stretch:normal;font-size:7.76111px;font-family:'Arial Black';-inkscape-font-specification:'Arial Black,  Heavy';fill:#ff9400;fill-opacity:1;stroke-width:0.44425"
           x="34.033802"
           y="93.109589"
           id="tspan58264">Fuel</tspan></text>
      <text
         xml:space="preserve"
         style="font-size:4.23333px;line-height:1.25;font-family:'Oriya Sangam MN';-inkscape-font-specification:'Oriya Sangam MN';stroke-width:0.264583"
         x="64.072792"
         y="95.58828"
         id="text58534"><tspan
           sodipodi:role="line"
           id="tspan58532"
           style="stroke-width:0.264583"
           x="64.072792"
           y="95.58828"> </tspan></text>
      <text
         xml:space="preserve"
         style="font-style:normal;font-variant:normal;font-weight:normal;font-stretch:normal;font-size:7.76111px;line-height:1.25;font-family:'Arial Black';-inkscape-font-specification:'Arial Black, ';fill:#1c5072;fill-opacity:1;stroke-width:0.46574"
         x="51.157528"
         y="98.391876"
         id="text59374"
         transform="scale(1.0016662,0.99833658)"><tspan
           sodipodi:role="line"
           id="tspan59372"
           style="font-style:normal;font-variant:normal;font-weight:900;font-stretch:normal;font-size:7.76111px;font-family:'Arial Black';-inkscape-font-specification:'Arial Black,  Heavy';fill:#1c5072;fill-opacity:1;stroke-width:0.46574"
           x="51.157528"
           y="98.391876">Management</tspan></text>
      <text
         xml:space="preserve"
         style="font-size:3.52778px;line-height:1.25;font-family:'Oriya Sangam MN';-inkscape-font-specification:'Oriya Sangam MN';fill:#1c5072;fill-opacity:1;stroke-width:0.264583"
         x="13.721806"
         y="106.02311"
         id="text64778"><tspan
           sodipodi:role="line"
           id="tspan64776"
           style="font-style:normal;font-variant:normal;font-weight:normal;font-stretch:normal;font-size:3.52778px;font-family:Arial;-inkscape-font-specification:Arial;fill:#1c5072;fill-opacity:1;stroke-width:0.264583"
           x="13.721806"
           y="106.02311">IMPROVE FUEL EFFICIENCY BY TRACKING USAGE METRICS </tspan><tspan
           sodipodi:role="line"
           style="font-style:normal;font-variant:normal;font-weight:normal;font-stretch:normal;font-size:3.52778px;font-family:Arial;-inkscape-font-specification:Arial;fill:#1c5072;fill-opacity:1;stroke-width:0.264583"
           x="13.721806"
           y="110.75451"
           id="tspan13342">AND FUEL DATA. TRACK EACH REFILL QUANTITY, COST AND </tspan><tspan
           sodipodi:role="line"
           style="font-style:normal;font-variant:normal;font-weight:normal;font-stretch:normal;font-size:3.52778px;font-family:Arial;-inkscape-font-specification:Arial;fill:#1c5072;fill-opacity:1;stroke-width:0.264583"
           x="13.721806"
           y="115.48592"
           id="tspan16278">USAGE IN ONE PLACE</tspan></text>
      <circle
         style="fill:#ff9400;fill-opacity:1;stroke:none;stroke-width:1;stroke-linecap:round;stroke-miterlimit:4;stroke-dasharray:none;stroke-opacity:1"
         id="path116543"
         cx="108.22456"
         cy="97.432518"
         r="1.041834"
         inkscape:transform-center-y="1.0833534" />
      <rect
         style="fill:#1c5072;fill-opacity:1;stroke-width:0.208054"
         id="rect5602"
         width="45.872192"
         height="26.383717"
         x="42.307251"
         y="17.574291" />
      <rect
         style="fill:#ffffff;fill-opacity:1;stroke:#ffffff;stroke-width:0.29195;stroke-opacity:1"
         id="rect6714"
         width="38.299309"
         height="18.500793"
         x="46.126503"
         y="21.323845"
         ry="2.8314745" />
      <rect
         style="fill:#1c5072;fill-opacity:1;stroke:none;stroke-width:0.311214;stroke-opacity:1"
         id="rect10243"
         width="36.053192"
         height="41.434605"
         x="47.625286"
         y="43.538704"
         ry="0" />
      <path
         style="color:#000000;fill:#1c5072;-inkscape-stroke:none"
         d="m 89.751953,24.531707 0.04226,3.208418 c 0,0 1.053737,-0.152837 1.567113,-0.201059 0.148091,-0.01391 0.121722,-0.01097 0.263672,-0.002 0.507259,7.807613 3.109092,17.897924 5.232422,27.294922 1.116488,4.941123 2.085211,9.65753 2.527344,13.611328 0.428106,3.828364 0.261723,6.886733 -0.435547,8.611328 -1.190343,1.209475 -2.473598,1.842144 -3.548828,1.871094 -1.139873,0.03069 -2.15771,-0.421501 -3.103516,-1.886719 -1.931613,-2.992404 -1.872706,-6.557541 -1.478516,-11.226562 2.79e-4,-4.392807 1.653323,-16.427074 -1.042971,-18.427734 -1.22496,-0.789078 -2.803049,-0.653829 -4.066407,-0.44336 -1.712898,0.289525 -3.289062,0.845703 -3.289062,0.845703 l 0.986328,2.832032 c 0,0 1.423561,-0.487587 2.802734,-0.720704 0.668833,-0.11305 1.307565,-0.137927 1.634766,-0.09375 0.988502,5.938514 0.378541,11.087137 -0.01563,15.75586 -0.401904,4.760379 -0.582253,9.186806 1.947266,13.105469 1.393894,2.159385 3.539234,3.31808 5.705078,3.259765 2.165844,-0.05831 4.234555,-1.198824 5.900391,-3.017578 l 0.16406,-0.177734 0.0977,-0.220703 c 1.20808,-2.687369 1.18902,-6.227959 0.72265,-10.398438 -0.46636,-4.170479 -1.45756,-8.964969 -2.582027,-13.941406 -2.248967,-9.952831 -5.01898,-20.687584 -5.287141,-28.003863 0.06226,-0.828606 -0.09669,-0.887367 -0.777344,-1.259766 -1.24924,-0.72257 -2.7818,-0.263174 -3.966797,-0.374543 z"
         id="path11362"
         sodipodi:nodetypes="ccscsscsscccccscssscccscccc" />
      <path
         d="M 68.036006,43.629361 64.385805,45.461659 60.962278,33.883998 Z"
         style="fill:#1c5072;fill-opacity:1;fill-rule:nonzero;stroke:none;stroke-width:0.0966197"
         id="path1270" />
      <path
         style="color:#000000;fill:#1c5072;fill-opacity:1;stroke-width:0.413995;stroke-miterlimit:10;-inkscape-stroke:none"
         d="m 56.751841,30.588282 -0.460893,0.144736 c 0.224829,0.716038 0.337228,1.07425 0.561966,1.790207 l 0.07035,0.224787 0.226406,-0.06469 c 4.886143,-1.398492 9.656309,-1.398024 14.542395,0 l 0.226405,0.06469 0.07035,-0.224787 c 0.22473,-0.71602 0.337406,-1.074011 0.561966,-1.790207 l -0.461704,-0.143927 c -0.198255,0.632307 -0.317704,1.013046 -0.49566,1.579974 -4.808718,-1.333766 -9.53626,-1.334204 -14.345102,0 -0.177964,-0.566954 -0.297928,-0.948461 -0.496471,-1.580783 z"
         id="path1274" />
      <path
         d="m 64.421005,31.592359 c 9.6e-5,-0.856438 -9.4e-5,-1.284561 -2.89e-4,-2.141095"
         style="fill:#1c5072;fill-opacity:1;stroke:#4d4d4d;stroke-width:0.4831;stroke-linecap:butt;stroke-linejoin:miter;stroke-miterlimit:10;stroke-dasharray:none;stroke-opacity:1"
         id="path1278" />
      <path
         d="m 63.988016,27.672367 0.230149,-2.298584 -0.739528,-0.01565 1.682924,-2.700234 -0.464743,2.2753 h 0.721076 z"
         style="fill:#1c5072;fill-opacity:1;fill-rule:nonzero;stroke:none;stroke-width:0.0966197"
         id="path1282" />
    </g>
  </g>
</svg>
